<svg width="612" height="601" viewBox="0 0 612 601" fill="none" xmlns="http://www.w3.org/2000/svg">
<path d="M275.996 553.968C264.765 553.968 253.544 553.683 242.337 553.127C173.34 549.697 99.9255 533.389 52.8355 481.823C27.7156 454.316 12.3042 418.151 8.2927 380.731C7.20728 370.613 6.95624 360.404 7.57187 350.249C9.34687 320.963 18.1719 292.321 32.4697 266.841C41.6803 289.22 54.074 310.821 51.0937 335.712C48.7145 355.587 49.138 373.805 48.6588 393.333C48.314 407.393 51.5355 420.607 57.2807 432.553V433.795C57.2807 433.832 57.2812 433.869 57.2812 433.907V440.433V440.903C57.2812 445.156 60.136 448.605 63.6563 448.605H67.0145C77.9088 463.297 92.6683 475.209 108.56 483.243C129.971 494.066 153.736 498.499 177.423 498.499C182.017 498.499 186.608 498.332 191.18 498.013C191.304 499.645 192.001 501.164 193.172 502.335L199.353 508.516C200.651 509.814 202.376 510.529 204.211 510.529C206.045 510.529 207.771 509.814 209.068 508.516L214.84 502.745C218.721 504.902 222.663 507.011 226.647 509.06V515.797C226.647 519.585 229.728 522.668 233.516 522.668H242.259C244.733 522.668 246.905 521.353 248.116 519.385C249.959 520.212 251.803 521.025 253.664 521.832L323.781 552.209C307.885 553.394 291.937 553.968 275.996 553.968ZM467.171 522.978C475.863 510.776 482.755 497.339 487.585 483.302C512.692 480.665 536.843 472.989 557.129 458.921C563.027 454.832 568.473 450.268 573.448 445.308C568.408 454.059 562.468 462.264 555.649 469.728C532.053 495.553 499.969 511.427 467.171 522.978M242.259 520.001H233.516C231.199 520.001 229.313 518.116 229.313 515.797V510.421C234.672 513.132 240.12 515.749 245.655 518.272C244.889 519.32 243.652 520.001 242.259 520.001ZM204.212 507.823C203.123 507.823 202.033 507.425 201.239 506.631L195.057 500.449C194.343 499.733 193.916 498.807 193.839 497.809C194.195 497.78 194.551 497.749 194.907 497.719C198.053 497.441 201.195 497.099 204.328 496.696C207.004 498.289 209.696 499.852 212.424 501.392L207.183 506.631C206.389 507.425 205.3 507.823 204.212 507.823M359.671 80.7067C346.453 66.6321 327.676 57.8428 306.844 57.8428C299.127 57.8428 291.692 59.0494 284.716 61.284C272.181 52.536 258.024 46.3654 242.548 45.1788C240.692 45.0361 238.832 44.9681 236.968 44.9681C222.589 44.9681 208.06 49.0814 194.685 55.3801C186.464 59.2521 178.677 63.9574 171.413 69.364C167.915 68.9734 164.428 68.7827 160.965 68.7827C159.272 68.7827 157.58 68.8294 155.897 68.9174C166.708 60.0001 178.765 52.6681 191.616 47.3454C210.387 39.5721 231.123 35.7708 251.857 35.7708C293.581 35.7708 335.341 51.1454 361.343 80.4947C360.783 80.5627 360.229 80.6334 359.671 80.7067" fill="#F6F5FB"/>
<path d="M378.121 58.0562C368.947 58.0562 361.288 50.7135 360.815 41.2508C360.327 31.4748 367.691 23.1388 377.267 22.6308C377.573 22.6148 377.879 22.6069 378.181 22.6069C387.355 22.6069 395.015 29.9495 395.488 39.4122C395.977 49.1882 388.612 57.5242 379.036 58.0322C378.729 58.0482 378.424 58.0562 378.121 58.0562Z" fill="#F9F8FC"/>
<path d="M92.9614 49.4775C88.2281 49.4775 84.2754 45.6882 84.0312 40.8055C83.7786 35.7615 87.5797 31.4616 92.5197 31.1989C92.6781 31.1896 92.8349 31.1855 92.9917 31.1855C97.7254 31.1855 101.678 34.9749 101.922 39.8576C102.174 44.9016 98.3734 49.2015 93.4333 49.4642C93.275 49.4735 93.1182 49.4775 92.9614 49.4775Z" fill="#F9F8FC"/>
<path d="M605.243 253.2C602.109 253.2 599.493 250.692 599.332 247.46C599.164 244.121 601.679 241.275 604.951 241.101C605.055 241.096 605.159 241.093 605.263 241.093C608.395 241.093 611.012 243.6 611.173 246.832C611.34 250.171 608.825 253.019 605.555 253.192C605.449 253.197 605.345 253.2 605.243 253.2" fill="#F9F8FC"/>
<path d="M544.316 579.947C529.875 579.947 517.816 568.387 517.071 553.491C516.301 538.1 527.897 524.976 542.971 524.179C543.453 524.152 543.933 524.14 544.412 524.14C558.853 524.14 570.912 535.7 571.657 550.596C572.427 565.985 560.832 579.109 545.757 579.908C545.275 579.935 544.795 579.947 544.316 579.947" fill="#F9F8FC"/>
<path d="M28.7734 125.231C19.2218 125.231 9.48692 116.85 4.16922 107.487C-4.38442 92.4269 0.644744 73.1256 15.403 64.3789C22.0895 60.4162 31.7311 58.0522 41.0729 58.0522C52.3494 58.0522 63.189 61.4962 67.8677 69.7335C76.4213 84.7948 53.7598 99.3108 44.9707 114.244C40.3327 122.126 34.5863 125.231 28.7734 125.231" fill="#F9FBFD"/>
<path d="M80.386 584.116C73.0421 584.116 65.8078 580.638 61.1869 574.094C53.5484 563.273 50.6437 540.655 61.2478 532.845C63.2114 531.399 65.2417 530.787 67.3213 530.787C76.4713 530.787 86.5781 542.621 96.2021 547.268C112.674 555.22 104.822 571.735 94.2183 579.544C90.0287 582.631 85.1833 584.116 80.386 584.116Z" fill="#F5F3FA"/>
<path d="M555.713 63.9775C544.716 63.9775 530.907 53.1042 518.932 49.7669C496.761 43.5909 502.959 21.3228 514.449 9.24817C520.305 3.09217 528.087 0.000191976 535.872 0.000191976C543.36 0.000191976 550.853 2.8602 556.645 8.60553C568.461 20.3255 576.937 47.7576 565.448 59.8322C562.615 62.8109 559.313 63.9775 555.713 63.9775Z" fill="#F5F3FA"/>
<path d="M573.448 445.308C593.281 410.877 599.188 368.036 589.941 329.025C587.411 318.351 583.872 308.053 579.44 298.236C584.187 275.085 581.021 250.308 571.764 230.005C562.512 209.715 547.577 192.44 529.325 179.828V179.625C529.325 175.256 525.771 171.701 521.4 171.701H515.881C512.005 169.669 508.027 167.836 503.955 166.208C503.729 165.671 503.493 165.136 503.249 164.608C502.309 162.581 502.721 160.176 504.275 158.623L512.555 150.344C515.643 147.253 515.643 142.227 512.555 139.137L505.195 131.777C503.651 130.232 501.621 129.46 499.592 129.46C497.563 129.46 495.532 130.233 493.988 131.777L485.709 140.057C484.712 141.055 483.363 141.581 481.987 141.581C481.221 141.581 480.447 141.417 479.723 141.081C478.528 140.529 477.303 140.023 476.084 139.575C474.017 138.817 472.629 136.833 472.629 134.639V122.931C472.629 118.561 469.075 115.007 464.705 115.007H454.297C449.929 115.007 446.375 118.561 446.375 122.931V134.639C446.375 136.833 444.987 138.817 442.921 139.575C441.701 140.023 440.476 140.529 439.281 141.083C438.556 141.419 437.781 141.581 437.016 141.581C435.641 141.581 434.292 141.055 433.295 140.057L425.016 131.777C423.472 130.232 421.443 129.46 419.412 129.46C419.141 129.46 418.869 129.475 418.599 129.501C410.948 125.003 402.033 122.421 392.516 122.421H383.989C379.652 106.265 371.763 92.2548 361.343 80.4948C370.371 79.3841 379.515 78.8668 388.701 78.8668C419.827 78.8668 451.448 84.8068 480.689 93.7388C515.685 104.428 549.349 122.596 572.999 151.089C581.769 161.656 589.163 173.793 591.743 187.281C594.547 201.937 591.509 216.983 589.472 231.764C585.335 261.813 596.777 286.259 605.347 314.461C619.265 360.261 607.051 411.817 573.448 445.308M32.4697 266.841C29.4239 259.44 26.7254 251.951 25.0473 244.233C20.0245 221.135 22.1417 196.721 29.8983 174.376C32.5338 166.785 35.8202 159.433 39.6989 152.452C62.4937 111.423 106.798 71.5135 155.897 68.9175C143.563 79.0921 132.849 91.3281 124.426 104.995C108.639 130.608 111.116 159.319 98.6515 185.072C97.9259 186.571 97.1401 188.027 96.301 189.445H80.6682C78.6745 189.445 77.053 191.067 77.053 193.06V212.089C73.2135 215.777 69.301 219.4 65.5619 223.129C52.625 236.035 41.465 250.811 32.4697 266.841M79.7197 209.501V193.06C79.7197 192.537 80.1453 192.112 80.6682 192.112H94.6338C90.4458 198.471 85.2218 204.095 79.7197 209.501ZM526.341 177.828C524.496 176.627 522.62 175.473 520.715 174.368H521.4C523.669 174.368 525.605 175.812 526.341 177.828ZM500.495 164.884C497.593 163.821 494.651 162.864 491.673 162.016C490.156 161.584 488.628 161.18 487.092 160.804C480.376 153.103 470.499 148.229 459.503 148.229C452.332 148.229 445.637 150.301 439.985 153.879C438.463 150.281 436.541 146.891 434.28 143.765C435.157 144.084 436.087 144.247 437.023 144.247C438.167 144.247 439.321 144.004 440.401 143.503C441.531 142.98 442.687 142.501 443.84 142.079C446.951 140.937 449.041 137.947 449.041 134.639V122.931C449.041 120.032 451.399 117.673 454.297 117.673H464.705C467.605 117.673 469.963 120.032 469.963 122.931V134.639C469.963 137.947 472.055 140.937 475.167 142.079C476.317 142.501 477.473 142.98 478.601 143.501C479.683 144.003 480.837 144.247 481.983 144.245C484.052 144.245 486.088 143.449 487.595 141.943L495.873 133.663C496.899 132.639 498.245 132.127 499.593 132.127C500.939 132.127 502.285 132.639 503.309 133.663L510.669 141.023C512.717 143.072 512.717 146.408 510.669 148.459L502.389 156.737C500.261 158.865 499.551 162.043 500.495 164.884M482.323 159.737C474.259 158.096 465.979 157.236 457.653 157.236C452.315 157.236 446.955 157.589 441.625 158.319C441.423 157.677 441.205 157.04 440.977 156.411C446.307 152.925 452.673 150.896 459.503 150.896C468.281 150.896 476.292 154.247 482.323 159.737" fill="#F9F8FC"/>
<path d="M177.423 498.499C153.736 498.499 129.971 494.067 108.56 483.243C92.6683 475.21 77.9088 463.298 67.0145 448.606H140.581C156.993 464.295 175.171 478.368 194.897 490.895L193.172 492.62C191.873 493.918 191.159 495.643 191.159 497.478C191.159 497.657 191.165 497.836 191.18 498.014C186.608 498.332 182.017 498.499 177.423 498.499ZM193.839 497.809C193.831 497.7 193.825 497.59 193.825 497.478C193.825 496.355 194.263 495.299 195.057 494.506L197.211 492.352C199.561 493.821 201.935 495.269 204.328 496.696C201.195 497.099 198.053 497.442 194.907 497.719C194.551 497.75 194.195 497.78 193.839 497.809M487.585 483.303C490.496 474.846 492.657 466.171 494.012 457.42C495.087 450.484 495.976 443.106 497.033 435.607H537.404C539.397 435.607 541.02 433.984 541.02 431.991V356.604C546.023 352.703 550.955 348.72 555.388 344.267C568.172 331.424 575.948 315.27 579.44 298.236C583.872 308.054 587.411 318.351 589.941 329.026C599.188 368.036 593.281 410.878 573.448 445.308C568.473 450.268 563.027 454.832 557.129 458.922C536.843 472.99 512.692 480.666 487.585 483.303M537.404 432.94H497.417C499.481 418.848 502.281 404.472 508.133 391.936H525.117C525.853 391.936 526.451 391.34 526.451 390.603C526.451 389.866 525.853 389.27 525.117 389.27H509.439C510.285 387.622 511.191 386.012 512.159 384.442C513.552 382.182 515.101 380.056 516.772 378.036H525.117C525.853 378.036 526.451 377.44 526.451 376.703C526.451 375.966 525.853 375.37 525.117 375.37H519.1C524.779 369.187 531.557 363.944 538.353 358.676V431.991C538.353 432.514 537.928 432.94 537.404 432.94ZM507.735 404.012C506.999 404.012 506.401 404.61 506.401 405.347C506.401 406.083 506.999 406.68 507.735 406.68H525.117C525.853 406.68 526.451 406.083 526.451 405.347C526.451 404.61 525.853 404.012 525.117 404.012H507.735ZM57.2807 432.554C51.5355 420.607 48.314 407.394 48.6588 393.334C49.138 373.806 48.7145 355.587 51.0937 335.712C54.074 310.822 41.6803 289.22 32.4697 266.842C41.4651 250.811 52.6251 236.035 65.562 223.13C69.3011 219.4 73.2136 215.778 77.0531 212.09V229.463C74.0781 232.46 71.2427 235.567 68.7109 238.907C66.3557 242.015 64.262 245.326 62.562 248.943C56.6672 261.48 55.7271 283.728 57.7615 303.114C57.4516 304.051 57.2807 305.074 57.2807 306.144V316.355V333.206V432.554M79.7197 226.834V209.502C85.2219 204.095 90.4459 198.471 94.6339 192.112H108.566C108.039 193.355 107.473 194.586 106.864 195.804C103.444 202.651 98.6307 208.404 93.3469 213.782H92.9636C92.2276 213.782 91.6303 214.379 91.6303 215.115C91.6303 215.234 91.6459 215.348 91.6751 215.458C87.7693 219.316 83.6672 223.015 79.7197 226.834ZM109.636 189.446H96.3011C97.1401 188.027 97.926 186.571 98.6516 185.072C111.116 159.319 108.639 130.608 124.426 104.995C132.849 91.3283 143.563 79.0923 155.897 68.9176C157.58 68.8296 159.272 68.7829 160.965 68.7829C164.428 68.7829 167.915 68.9736 171.413 69.3642C150.98 84.5722 134.681 105.327 124.485 128.675C116.06 147.966 117.013 169.951 109.636 189.446ZM383.989 122.422H378.879C377.141 106.36 370.155 91.8709 359.671 80.7069C360.229 80.6336 360.783 80.5629 361.343 80.4949C371.763 92.2549 379.652 106.266 383.989 122.422" fill="#F1EFF9"/>
<path d="M381.949 568.375C368.467 568.375 354.895 565.688 342.06 560.127L323.781 552.209C370.343 548.739 416.48 540.03 460.815 525.163C462.935 524.452 465.055 523.724 467.171 522.979C465.613 525.164 463.999 527.311 462.328 529.414C462.139 529.651 461.951 529.888 461.76 530.123C441.805 554.93 412.105 568.375 381.949 568.375Z" fill="#EEECF8"/>
<path d="M323.781 552.209L253.664 521.832C251.803 521.025 249.959 520.212 248.116 519.385C248.757 518.34 249.128 517.112 249.128 515.797V505.963C249.128 504.208 250.239 502.623 251.889 502.016C252.919 501.639 253.952 501.212 254.963 500.743C255.544 500.475 256.163 500.344 256.775 500.344C257.875 500.344 258.955 500.765 259.752 501.563L266.707 508.516C268.004 509.814 269.729 510.529 271.564 510.529C273.4 510.529 275.124 509.814 276.421 508.516L282.604 502.335C283.901 501.037 284.616 499.312 284.616 497.477C284.616 495.643 283.901 493.918 282.604 492.62L275.648 485.665C275.517 485.533 275.396 485.395 275.285 485.249C276.112 485.514 276.981 485.654 277.865 485.654C278.853 485.654 279.859 485.478 280.839 485.112L318.328 471.065H321.019C324.088 471.065 326.825 472.984 327.883 475.865C328.371 477.199 328.913 478.508 329.507 479.789C330.807 482.595 330.26 485.907 328.073 488.095L318.892 497.276C316.037 500.131 316.037 504.759 318.892 507.613L327.053 515.775C328.48 517.201 330.351 517.915 332.221 517.915C334.092 517.915 335.963 517.201 337.391 515.775L346.572 506.592C347.973 505.192 349.837 504.464 351.733 504.464C352.797 504.464 353.871 504.692 354.879 505.16C356.159 505.752 357.467 506.295 358.801 506.785C361.681 507.841 363.601 510.578 363.601 513.648V526.631C363.601 530.669 366.873 533.941 370.911 533.941H382.453C386.489 533.941 389.761 530.669 389.761 526.631V513.648C389.761 510.578 391.68 507.841 394.563 506.785C395.896 506.295 397.204 505.752 398.485 505.16C399.493 504.692 400.567 504.464 401.631 504.464C403.527 504.464 405.389 505.19 406.791 506.592L415.972 515.775C417.4 517.201 419.271 517.915 421.141 517.915C423.012 517.915 424.883 517.201 426.309 515.775L434.471 507.613C437.325 504.759 437.325 500.131 434.471 497.276L425.289 488.095C423.167 485.971 422.589 482.788 423.747 480.036C437.839 482.837 452.425 484.365 466.957 484.365C473.865 484.365 480.76 484.02 487.585 483.302C482.755 497.339 475.863 510.776 467.171 522.978C465.055 523.724 462.935 524.452 460.815 525.163C416.48 540.029 370.343 548.739 323.781 552.209ZM252.289 82.6134C231.441 79.4027 208.312 74.5614 174.159 69.7134C173.244 69.5827 172.327 69.4667 171.413 69.364C178.677 63.9574 186.464 59.2521 194.685 55.3801C208.06 49.0814 222.589 44.9681 236.968 44.9681C238.832 44.9681 240.692 45.0361 242.548 45.1788C258.024 46.3654 272.181 52.536 284.716 61.284C272.027 65.3494 260.86 72.8174 252.289 82.6134" fill="#EBE7F6"/>
<path d="M579.44 298.236C570.133 277.615 556.901 259.132 540.852 243.823V230.275V216.156V207.599V200.664V194.763C540.852 190.751 537.844 187.499 534.132 187.499H529.325V179.828C547.577 192.44 562.512 209.715 571.764 230.005C581.021 250.308 584.187 275.085 579.44 298.236" fill="#EBE8F6"/>
<path d="M194.897 490.895C175.171 478.368 156.993 464.295 140.581 448.606H199.144L199.599 449.983C198.947 451.532 197.413 452.56 195.725 452.56H185.891C182.103 452.56 179.02 455.642 179.02 459.43V468.172C179.02 471.959 182.103 475.042 185.891 475.042H195.725C197.48 475.042 199.067 476.152 199.672 477.804C200.053 478.843 200.481 479.875 200.945 480.878C201.697 482.5 201.368 484.423 200.127 485.666L194.897 490.895M466.957 484.366C452.425 484.366 437.839 482.838 423.747 480.036C423.781 479.954 423.819 479.871 423.856 479.79C424.449 478.508 424.992 477.199 425.481 475.866C426.537 472.984 429.276 471.066 432.344 471.066H445.328C449.365 471.066 452.637 467.794 452.637 463.756V452.215C452.637 448.178 449.365 444.904 445.328 444.904H432.344C429.781 444.904 427.448 443.566 426.133 441.446H462.357C466.117 441.446 469.305 438.998 470.415 435.607H497.033C495.976 443.106 495.087 450.484 494.012 457.42C492.657 466.171 490.496 474.846 487.585 483.303C480.76 484.02 473.865 484.366 466.957 484.366ZM497.417 432.94H470.833V419.95H472.403C473.14 419.95 473.736 419.352 473.736 418.616C473.736 417.879 473.14 417.283 472.403 417.283H470.833V406.68H486.944C487.68 406.68 488.277 406.083 488.277 405.347C488.277 404.61 487.68 404.012 486.944 404.012H470.833V391.936H508.133C502.281 404.472 499.481 418.848 497.417 432.94M509.439 389.27H470.833V378.036H486.944C487.68 378.036 488.277 377.44 488.277 376.703C488.277 375.966 487.68 375.37 486.944 375.37H470.833V364.135H525.117C525.853 364.135 526.451 363.539 526.451 362.802C526.451 362.066 525.853 361.468 525.117 361.468H470.833V342.684H537.404C537.928 342.684 538.353 343.111 538.353 343.632V358.676C531.557 363.944 524.779 369.187 519.1 375.37H507.735C506.999 375.37 506.401 375.966 506.401 376.703C506.401 377.44 506.999 378.036 507.735 378.036H516.772C515.101 380.056 513.552 382.182 512.159 384.442C511.191 386.012 510.285 387.622 509.439 389.27ZM541.02 356.604V343.632C541.02 341.639 539.397 340.018 537.404 340.018H470.833V321.407H534.517C538.016 321.407 540.852 318.342 540.852 314.56V243.823C556.901 259.132 570.133 277.615 579.44 298.236C575.948 315.27 568.172 331.424 555.388 344.267C550.955 348.72 546.023 352.703 541.02 356.604M155.449 316.355H138.328C135.631 316.355 133.23 314.154 132.344 310.87L130.346 303.46C129.46 300.175 127.059 297.974 124.363 297.974H117.145H74.6271H64.0453C61.1959 297.974 58.7584 300.102 57.7615 303.114C55.7271 283.728 56.6672 261.48 62.562 248.943C64.262 245.326 66.3557 242.015 68.7109 238.907C71.2426 235.567 74.0781 232.46 77.0531 229.463V293.92C77.0531 295.914 78.6745 297.536 80.6683 297.536H149.231L155.449 316.355M148.349 294.87H80.6683C80.1453 294.87 79.7197 294.443 79.7197 293.92V226.834C83.6672 223.015 87.7693 219.316 91.6751 215.458C91.826 216.028 92.3459 216.448 92.9636 216.448H177.488C183.272 225.674 191.896 232.936 202.135 237.011V246.016L147.139 264.187C142.695 265.656 140.281 270.45 141.751 274.895L148.349 294.87M92.9636 277.106C92.2276 277.106 91.6303 277.703 91.6303 278.439C91.6303 279.175 92.2276 279.772 92.9636 279.772H127.132C127.869 279.772 128.466 279.175 128.466 278.439C128.466 277.703 127.869 277.106 127.132 277.106H92.9636M92.9636 262.051C92.2276 262.051 91.6303 262.648 91.6303 263.384C91.6303 264.122 92.2276 264.718 92.9636 264.718H143.629C144.365 264.718 144.963 264.122 144.963 263.384C144.963 262.648 144.365 262.051 143.629 262.051H92.9636ZM92.9636 245.324C92.2276 245.324 91.6303 245.922 91.6303 246.658C91.6303 247.394 92.2276 247.991 92.9636 247.991H186.939C187.675 247.991 188.272 247.394 188.272 246.658C188.272 245.922 187.675 245.324 186.939 245.324H92.9636ZM167.217 229.554C166.481 229.554 165.884 230.151 165.884 230.887C165.884 231.623 166.481 232.22 167.217 232.22H186.939C187.675 232.22 188.272 231.623 188.272 230.887C188.272 230.151 187.675 229.554 186.939 229.554H167.217ZM92.9636 229.554C92.2276 229.554 91.6303 230.151 91.6303 230.887C91.6303 231.623 92.2276 232.22 92.9636 232.22H143.629C144.365 232.22 144.963 231.623 144.963 230.887C144.963 230.151 144.365 229.554 143.629 229.554H92.9636M368.236 262.446L361.033 240.642H368.236V262.446ZM204.801 245.135V237.987C209.167 239.448 213.795 240.342 218.593 240.579L204.801 245.135ZM175.927 213.782H93.3469C98.6307 208.404 103.444 202.651 106.864 195.804C107.473 194.586 108.039 193.355 108.566 192.112H169.737C170.184 199.93 172.375 207.28 175.927 213.782ZM169.653 189.446H109.636C117.013 169.951 116.06 147.966 124.485 128.675C134.681 105.327 150.98 84.5723 171.413 69.3643C172.327 69.4669 173.244 69.5829 174.159 69.7136C208.312 74.5616 231.441 79.4029 252.289 82.6136C242.768 93.4989 236.451 107.26 234.811 122.422H221.173C192.719 122.422 169.652 145.488 169.652 173.942V173.943C169.652 176.522 169.841 179.055 170.207 181.532C169.841 184.01 169.652 186.543 169.652 189.122C169.652 189.23 169.652 189.338 169.653 189.446" fill="#E9E6F5"/>
<path d="M226.647 509.06C222.663 507.011 218.721 504.902 214.84 502.745L216.024 501.563C216.821 500.766 217.901 500.344 219.001 500.344C219.613 500.344 220.232 500.475 220.812 500.743C221.819 501.211 222.853 501.639 223.884 502.016C225.536 502.623 226.647 504.208 226.647 505.963V509.06" fill="#EBE7F6"/>
<path d="M526.658 187.499H496.006C496.069 186.617 496.102 185.728 496.102 184.829C496.102 175.644 492.7 167.237 487.092 160.804C488.628 161.18 490.156 161.584 491.673 162.016C494.65 162.864 497.593 163.821 500.494 164.884C500.589 165.169 500.701 165.452 500.83 165.729C501.349 166.855 501.829 168.012 502.253 169.167C503.394 172.277 506.385 174.368 509.693 174.368H520.714C522.62 175.473 524.496 176.627 526.341 177.828C526.546 178.389 526.658 178.995 526.658 179.625V187.499M515.881 171.701H509.693C507.498 171.701 505.513 170.313 504.756 168.248C504.506 167.567 504.238 166.885 503.954 166.208C508.026 167.836 512.005 169.669 515.881 171.701" fill="#EBE8F6"/>
<path d="M464.512 202.001C457.525 200.368 450.401 199.212 443.173 198.569C443.74 195.507 444.037 192.348 444.037 189.121C444.037 186.543 443.848 184.009 443.483 181.532C443.848 179.055 444.037 176.521 444.037 173.943V173.941C444.037 168.496 443.192 163.245 441.625 158.319C446.955 157.589 452.315 157.236 457.653 157.236C465.979 157.236 474.259 158.096 482.323 159.737C489.147 165.948 493.436 174.897 493.436 184.829C493.436 185.728 493.401 186.617 493.332 187.499H481.372H474.201C471.523 187.499 469.136 189.456 468.256 192.376L466.272 198.963C465.911 200.161 465.296 201.196 464.512 202.001" fill="#EBE8F6"/>
<path d="M460.326 203.84H441.904C442.416 202.119 442.841 200.361 443.173 198.569C450.401 199.212 457.525 200.368 464.512 202.001C463.385 203.16 461.906 203.84 460.326 203.84" fill="#E9E6F5"/>
<path d="M245.655 518.272C240.12 515.749 234.672 513.132 229.313 510.421V505.963C229.313 503.095 227.5 500.502 224.803 499.512C223.84 499.16 222.873 498.76 221.933 498.324C220.996 497.89 219.996 497.678 219.005 497.678C217.209 497.678 215.445 498.369 214.139 499.677L212.424 501.392C209.696 499.852 207.004 498.289 204.328 496.696C211.92 495.72 219.473 494.388 226.975 492.773C230.371 494.057 234.048 494.759 237.888 494.759C247.553 494.759 256.199 490.307 261.88 483.344C263.656 482.778 265.427 482.202 267.195 481.618C268.405 482.257 269.765 482.604 271.16 482.604C271.224 482.604 271.287 482.602 271.351 482.601C271.487 482.766 271.629 482.924 271.776 483.076C271.869 484.733 272.551 486.339 273.763 487.551L280.719 494.506C281.512 495.299 281.949 496.355 281.949 497.477C281.949 498.6 281.512 499.655 280.719 500.449L274.536 506.631C273.741 507.425 272.653 507.823 271.564 507.823C270.475 507.823 269.387 507.425 268.592 506.631L261.637 499.677C260.331 498.371 258.565 497.68 256.771 497.68C255.78 497.68 254.779 497.89 253.843 498.324C252.899 498.761 251.933 499.161 250.972 499.513C248.275 500.502 246.461 503.095 246.461 505.963V515.797C246.461 516.723 246.163 517.577 245.655 518.272" fill="#EBE7F6"/>
<path d="M204.328 496.696C201.935 495.269 199.561 493.821 197.211 492.352L202.012 487.551C204.041 485.521 204.585 482.389 203.364 479.756C202.931 478.82 202.531 477.853 202.176 476.885C201.185 474.187 198.593 472.375 195.725 472.375H185.891C183.572 472.375 181.687 470.489 181.687 468.172V459.429C181.687 457.112 183.572 455.227 185.891 455.227H195.725C197.609 455.227 199.373 454.444 200.644 453.144L201.805 456.66C202.655 459.232 204.617 461.124 206.983 461.977C206.947 462.581 206.929 463.188 206.929 463.8C206.929 477.032 215.273 488.351 226.975 492.773C219.473 494.388 211.92 495.72 204.328 496.696M261.88 483.344C262.873 482.127 263.777 480.832 264.579 479.471C265.305 480.366 266.199 481.091 267.195 481.618C265.427 482.203 263.656 482.779 261.88 483.344Z" fill="#E9E6F5"/>
<path d="M376.681 497.096C357.023 497.096 340.749 482.592 337.984 463.7L342.308 462.08C342.603 462.077 342.897 462.076 343.193 462.076C344.113 462.076 345.036 462.089 345.963 462.117C367.624 462.757 387.711 470.808 408.269 476.4C409.117 476.629 409.971 476.857 410.824 477.079C404.129 489.024 391.349 497.096 376.681 497.096" fill="#EBE7F6"/>
<path d="M410.824 477.079C409.971 476.858 409.117 476.63 408.269 476.4C387.711 470.808 367.624 462.758 345.963 462.118C345.036 462.09 344.113 462.076 343.193 462.076C342.897 462.076 342.603 462.078 342.308 462.08L361.056 455.056C365.44 453.414 367.661 448.528 366.019 444.144L365.008 441.446H412.133C414.481 446.47 415.792 452.074 415.792 457.986C415.792 464.919 413.988 471.432 410.824 477.079Z" fill="#E9E6F5"/>
<path d="M237.888 492.092C236.008 492.092 234.171 491.908 232.393 491.556C240.536 489.654 248.616 487.433 256.617 484.988C251.624 489.407 245.064 492.092 237.888 492.092Z" fill="#EBE7F6"/>
<path d="M232.393 491.556C219.413 488.992 209.596 477.521 209.596 463.8C209.596 463.357 209.607 462.915 209.627 462.476C209.701 462.479 209.776 462.48 209.851 462.48C210.732 462.48 211.629 462.341 212.512 462.049L214.505 461.391L215.164 463.384C216.341 466.947 219.653 469.204 223.211 469.204C224.092 469.204 224.989 469.065 225.872 468.773L256.332 458.709L263.069 476.689C261.448 479.844 259.249 482.657 256.617 484.988C248.616 487.433 240.536 489.654 232.393 491.556Z" fill="#E9E6F5"/>
<path d="M481.961 559.967C478.648 559.967 475.961 557.281 475.961 553.967C475.961 550.654 478.648 547.967 481.961 547.967C485.276 547.967 487.961 550.654 487.961 553.967C487.961 557.281 485.276 559.967 481.961 559.967Z" fill="#8F8ECB"/>
<path d="M330.123 29.9562C328.465 29.9562 327.121 28.6122 327.121 26.9562C327.121 25.2988 328.465 23.9562 330.123 23.9562C331.779 23.9562 333.121 25.2988 333.121 26.9562C333.121 28.6122 331.779 29.9562 330.123 29.9562Z" fill="#8F8ECB"/>
<path d="M144.963 574.376C141.649 574.376 138.963 571.688 138.963 568.376C138.963 565.063 141.649 562.376 144.963 562.376C148.276 562.376 150.963 565.063 150.963 568.376C150.963 571.688 148.276 574.376 144.963 574.376Z" fill="#8F8ECB"/>
<path d="M506.401 600.099C503.825 600.099 501.735 598.009 501.735 595.432C501.735 592.855 503.825 590.766 506.401 590.766C508.979 590.766 511.068 592.855 511.068 595.432C511.068 598.009 508.979 600.099 506.401 600.099" fill="#F7B4C6"/>
<path d="M47.2859 33.1855C46.1816 33.1855 45.2859 32.2909 45.2859 31.1855C45.2859 30.0815 46.1816 29.1855 47.2859 29.1855C48.3906 29.1855 49.2859 30.0815 49.2859 31.1855C49.2859 32.2909 48.3906 33.1855 47.2859 33.1855Z" fill="#8F8ECB"/>
<path d="M588.841 91.6415C588.343 91.6415 587.837 91.5895 587.329 91.4802C583.439 90.6495 580.956 86.8215 581.788 82.9295C582.511 79.5455 585.5 77.2282 588.827 77.2282C589.325 77.2282 589.832 77.2802 590.34 77.3882C594.231 78.2202 596.712 82.0481 595.88 85.9401C595.157 89.3228 592.168 91.6415 588.841 91.6415" fill="#F7B4C6"/>
<path d="M67.3098 14.7815C67.1144 14.7815 66.916 14.7615 66.7171 14.7189C65.1906 14.3935 64.2176 12.8909 64.5436 11.3655C64.827 10.0375 65.9994 9.12954 67.304 9.12954C67.4994 9.12954 67.6978 9.1495 67.8968 9.19217C69.4234 9.51884 70.3963 11.0189 70.0696 12.5456C69.7868 13.8722 68.6144 14.7815 67.3098 14.7815Z" fill="#F7B4C6"/>
<path d="M353.479 5.65222C353.283 5.65222 353.084 5.63219 352.885 5.58953C351.359 5.26286 350.385 3.76287 350.712 2.23621C350.995 0.90954 352.167 0.000203787 353.472 0.000203787C353.667 0.000203787 353.865 0.0202324 354.064 0.0628991C355.591 0.389566 356.565 1.89089 356.237 3.41622C355.955 4.74289 354.783 5.65222 353.479 5.65222Z" fill="#F7B4C6"/>
<path d="M552.387 94.0442C552.22 94.0442 552.052 94.0269 551.883 93.9895C550.585 93.7135 549.759 92.4375 550.036 91.1402C550.276 90.0109 551.273 89.2389 552.381 89.2389C552.548 89.2389 552.717 89.2562 552.887 89.2922C554.183 89.5695 555.009 90.8455 554.732 92.1429C554.492 93.2709 553.496 94.0442 552.387 94.0442" fill="#8F8ECB"/>
<path d="M22.3306 507.919C22.1645 507.919 21.9958 507.901 21.8265 507.866C20.5286 507.588 19.7021 506.312 19.9797 505.016C20.2197 503.888 21.2161 503.116 22.325 503.116C22.4912 503.116 22.6604 503.133 22.8297 503.169C24.1265 503.445 24.953 504.721 24.6765 506.019C24.4354 507.147 23.439 507.919 22.3306 507.919Z" fill="#8F8ECB"/>
<path d="M529.325 179.828C528.341 179.148 527.345 178.48 526.341 177.828C525.605 175.812 523.669 174.368 521.4 174.368H520.715C519.124 173.445 517.512 172.556 515.881 171.701H521.4C525.771 171.701 529.325 175.256 529.325 179.625V179.828ZM503.955 166.208C502.808 165.751 501.655 165.308 500.495 164.884C499.551 162.043 500.261 158.865 502.389 156.737L510.669 148.459C512.717 146.408 512.717 143.072 510.669 141.023L503.309 133.663C502.285 132.639 500.939 132.127 499.593 132.127C498.245 132.127 496.899 132.639 495.873 133.663L487.595 141.943C486.088 143.449 484.052 144.245 481.983 144.245C480.837 144.247 479.683 144.003 478.601 143.501C477.473 142.98 476.317 142.501 475.167 142.079C472.055 140.937 469.963 137.947 469.963 134.639V122.931C469.963 120.032 467.605 117.673 464.705 117.673H454.297C451.399 117.673 449.041 120.032 449.041 122.931V134.639C449.041 137.947 446.951 140.937 443.84 142.079C442.687 142.501 441.531 142.98 440.401 143.503C439.321 144.004 438.167 144.247 437.023 144.247C436.087 144.247 435.157 144.084 434.28 143.765C430.104 137.996 424.763 133.127 418.599 129.501C418.869 129.475 419.141 129.46 419.412 129.46C421.443 129.46 423.472 130.232 425.016 131.777L433.295 140.057C434.292 141.055 435.641 141.581 437.016 141.581C437.781 141.581 438.556 141.419 439.281 141.083C440.476 140.529 441.701 140.023 442.921 139.575C444.987 138.817 446.375 136.833 446.375 134.639V122.931C446.375 118.561 449.929 115.007 454.297 115.007H464.705C469.075 115.007 472.629 118.561 472.629 122.931V134.639C472.629 136.833 474.017 138.817 476.084 139.575C477.303 140.023 478.528 140.529 479.723 141.081C480.447 141.417 481.221 141.581 481.987 141.581C483.363 141.581 484.712 141.055 485.709 140.057L493.988 131.777C495.532 130.233 497.563 129.46 499.592 129.46C501.621 129.46 503.651 130.232 505.195 131.777L512.555 139.137C515.643 142.227 515.643 147.253 512.555 150.344L504.275 158.623C502.721 160.176 502.309 162.581 503.249 164.608C503.493 165.136 503.729 165.671 503.955 166.208" fill="#FDFEFF"/>
<path d="M529.325 187.499H526.659V179.625C526.659 178.995 526.547 178.389 526.341 177.828C527.345 178.48 528.341 179.148 529.325 179.828V187.499Z" fill="#F9F9FD"/>
<path d="M520.715 174.368H509.693C506.385 174.368 503.395 172.277 502.253 169.167C501.829 168.012 501.349 166.855 500.831 165.73C500.701 165.452 500.589 165.17 500.495 164.884C501.655 165.308 502.808 165.751 503.955 166.208C504.239 166.886 504.507 167.567 504.756 168.248C505.513 170.314 507.499 171.701 509.693 171.701H515.881C517.512 172.556 519.124 173.445 520.715 174.368" fill="#F9F9FD"/>
<path d="M487.092 160.804C485.511 160.419 483.921 160.063 482.323 159.737C476.292 154.247 468.281 150.896 459.503 150.896C452.673 150.896 446.307 152.925 440.977 156.411C440.668 155.555 440.337 154.712 439.985 153.879C445.637 150.301 452.332 148.229 459.503 148.229C470.499 148.229 480.376 153.103 487.092 160.804" fill="#FDFEFF"/>
<path d="M496.007 187.499H493.332C493.401 186.617 493.436 185.728 493.436 184.829C493.436 174.897 489.147 165.948 482.323 159.737C483.921 160.063 485.511 160.419 487.092 160.804C492.7 167.237 496.103 175.644 496.103 184.829C496.103 185.728 496.069 186.617 496.007 187.499" fill="#F9F9FD"/>
<path d="M382.453 533.942H370.911C366.873 533.942 363.601 530.669 363.601 526.631V513.648C363.601 510.579 361.681 507.842 358.801 506.785C357.467 506.295 356.159 505.752 354.879 505.16C353.871 504.692 352.797 504.464 351.733 504.464C349.837 504.464 347.973 505.192 346.572 506.592L337.391 515.775C335.963 517.202 334.092 517.915 332.221 517.915C330.351 517.915 328.48 517.202 327.053 515.775L318.892 507.614C316.037 504.759 316.037 500.131 318.892 497.276L328.073 488.095C330.26 485.907 330.807 482.595 329.507 479.79C328.913 478.508 328.371 477.199 327.883 475.866C326.825 472.984 324.088 471.066 321.019 471.066H318.328L337.984 463.7C340.749 482.592 357.023 497.096 376.681 497.096C391.349 497.096 404.129 489.024 410.824 477.079C415.073 478.182 419.387 479.169 423.747 480.036C422.589 482.788 423.167 485.971 425.289 488.095L434.471 497.276C437.325 500.131 437.325 504.759 434.471 507.614L426.309 515.775C424.883 517.202 423.012 517.915 421.141 517.915C419.271 517.915 417.4 517.202 415.972 515.775L406.791 506.592C405.389 505.191 403.527 504.464 401.631 504.464C400.567 504.464 399.493 504.692 398.485 505.16C397.204 505.752 395.896 506.295 394.563 506.785C391.68 507.842 389.761 510.579 389.761 513.648V526.631C389.761 530.669 386.489 533.942 382.453 533.942" fill="#F7F6FC"/>
<path d="M423.747 480.036C419.387 479.169 415.073 478.181 410.824 477.079C413.988 471.432 415.792 464.919 415.792 457.985C415.792 452.073 414.481 446.469 412.133 441.445H426.133C427.448 443.565 429.781 444.904 432.344 444.904H445.328C449.365 444.904 452.637 448.177 452.637 452.215V463.756C452.637 467.793 449.365 471.065 445.328 471.065H432.344C429.276 471.065 426.537 472.984 425.481 475.865C424.992 477.199 424.449 478.508 423.856 479.789C423.819 479.871 423.781 479.954 423.747 480.036" fill="#F7F6FB"/>
<path d="M242.259 522.668H233.516C229.728 522.668 226.647 519.585 226.647 515.797V509.06C227.535 509.518 228.42 509.969 229.313 510.421V515.797C229.313 518.116 231.199 520.002 233.516 520.002H242.259C243.652 520.002 244.889 519.32 245.655 518.272C246.469 518.643 247.297 519.018 248.116 519.385C246.905 521.354 244.733 522.668 242.259 522.668M204.211 510.53C202.376 510.53 200.651 509.815 199.353 508.516L193.172 502.335C192.001 501.164 191.304 499.645 191.18 498.014C192.067 497.951 192.953 497.883 193.839 497.809C193.916 498.807 194.343 499.733 195.057 500.45L201.239 506.631C202.033 507.426 203.123 507.823 204.212 507.823C205.3 507.823 206.389 507.426 207.183 506.631L212.424 501.392C213.228 501.847 214.031 502.295 214.84 502.745L209.068 508.516C207.771 509.815 206.045 510.53 204.211 510.53" fill="#FCFDFE"/>
<path d="M191.18 498.013C191.165 497.836 191.159 497.657 191.159 497.477C191.159 495.643 191.873 493.918 193.172 492.62L194.897 490.895C195.663 491.38 196.44 491.871 197.211 492.352L195.057 494.506C194.263 495.299 193.825 496.355 193.825 497.477C193.825 497.589 193.831 497.7 193.839 497.809C192.953 497.883 192.067 497.951 191.18 498.013" fill="#FBFAFD"/>
<path d="M248.116 519.385C247.297 519.018 246.469 518.643 245.655 518.272C246.163 517.577 246.461 516.723 246.461 515.797V505.963C246.461 503.095 248.275 500.502 250.972 499.513C251.933 499.161 252.899 498.761 253.843 498.324C254.779 497.89 255.78 497.68 256.771 497.68C258.565 497.68 260.331 498.371 261.637 499.677L268.592 506.631C269.387 507.425 270.475 507.823 271.564 507.823C272.653 507.823 273.741 507.425 274.536 506.631L280.719 500.449C281.512 499.655 281.949 498.6 281.949 497.477C281.949 496.355 281.512 495.299 280.719 494.506L273.763 487.551C272.551 486.339 271.869 484.733 271.776 483.076C272.755 484.084 273.965 484.827 275.285 485.249C275.396 485.395 275.517 485.533 275.648 485.666L282.604 492.62C283.901 493.918 284.616 495.643 284.616 497.477C284.616 499.312 283.901 501.037 282.604 502.335L276.421 508.516C275.124 509.814 273.4 510.53 271.564 510.53C269.729 510.53 268.004 509.814 266.707 508.516L259.752 501.563C258.955 500.766 257.875 500.344 256.775 500.344C256.163 500.344 255.544 500.475 254.963 500.743C253.952 501.212 252.919 501.639 251.889 502.016C250.239 502.623 249.128 504.208 249.128 505.963V515.797C249.128 517.112 248.757 518.34 248.116 519.385" fill="#F9F9FD"/>
<path d="M197.211 492.352C196.44 491.871 195.663 491.38 194.897 490.895L200.127 485.666C201.368 484.423 201.697 482.5 200.945 480.878C200.481 479.875 200.053 478.843 199.672 477.804C199.067 476.152 197.48 475.042 195.725 475.042H185.891C182.103 475.042 179.02 471.959 179.02 468.172V459.43C179.02 455.642 182.103 452.56 185.891 452.56H195.725C197.413 452.56 198.947 451.532 199.599 449.983L200.644 453.144C199.373 454.444 197.609 455.227 195.725 455.227H185.891C183.572 455.227 181.687 457.112 181.687 459.43V468.172C181.687 470.49 183.572 472.375 185.891 472.375H195.725C198.593 472.375 201.185 474.187 202.176 476.886C202.531 477.854 202.931 478.82 203.364 479.756C204.585 482.39 204.041 485.521 202.012 487.551L197.211 492.352" fill="#F9F8FC"/>
<path d="M229.313 510.421C228.42 509.969 227.535 509.518 226.647 509.06V505.963C226.647 504.208 225.536 502.623 223.884 502.016C222.853 501.639 221.819 501.211 220.812 500.743C220.232 500.475 219.613 500.344 219.001 500.344C217.901 500.344 216.821 500.766 216.024 501.563L214.84 502.745C214.031 502.295 213.228 501.847 212.424 501.392L214.139 499.678C215.445 498.369 217.209 497.679 219.005 497.679C219.996 497.679 220.996 497.891 221.933 498.324C222.873 498.76 223.84 499.16 224.803 499.512C227.5 500.503 229.313 503.095 229.313 505.963V510.421M237.888 494.759C234.048 494.759 230.371 494.057 226.975 492.773C228.784 492.384 230.589 491.979 232.393 491.556C234.171 491.908 236.008 492.092 237.888 492.092C245.064 492.092 251.624 489.407 256.617 484.988C258.375 484.451 260.131 483.903 261.88 483.344C256.199 490.307 247.553 494.759 237.888 494.759" fill="#F9F9FD"/>
<path d="M226.975 492.773C215.273 488.351 206.929 477.032 206.929 463.8C206.929 463.188 206.947 462.582 206.983 461.978C207.824 462.28 208.716 462.452 209.627 462.476C209.607 462.915 209.596 463.358 209.596 463.8C209.596 477.522 219.413 488.992 232.393 491.556C230.589 491.979 228.784 492.384 226.975 492.773M256.617 484.988C259.249 482.657 261.448 479.844 263.069 476.69L263.223 477.099C263.553 477.982 264.016 478.778 264.579 479.471C263.777 480.832 262.873 482.127 261.88 483.344C260.131 483.903 258.375 484.451 256.617 484.988" fill="#F9F8FC"/>
<path d="M525.117 378.036H516.772C517.524 377.127 518.3 376.24 519.1 375.369H525.117C525.853 375.369 526.451 375.965 526.451 376.703C526.451 377.44 525.853 378.036 525.117 378.036Z" fill="#FDFDFE"/>
<path d="M516.772 378.036H507.735C506.999 378.036 506.401 377.44 506.401 376.703C506.401 375.965 506.999 375.369 507.735 375.369H519.1C518.3 376.24 517.524 377.127 516.772 378.036" fill="#FCFCFE"/>
<path d="M525.117 406.68H507.735C506.999 406.68 506.401 406.083 506.401 405.347C506.401 404.61 506.999 404.012 507.735 404.012H525.117C525.853 404.012 526.451 404.61 526.451 405.347C526.451 406.083 525.853 406.68 525.117 406.68Z" fill="#FDFDFE"/>
<path d="M537.404 435.607H497.033C497.159 434.719 497.287 433.829 497.417 432.94H537.404C537.928 432.94 538.353 432.513 538.353 431.991V358.676C539.243 357.987 540.133 357.296 541.02 356.604V431.991C541.02 433.984 539.397 435.607 537.404 435.607" fill="#FDFDFE"/>
<path d="M497.033 435.607H470.415C470.687 434.776 470.833 433.889 470.833 432.968V432.94H497.417C497.287 433.829 497.159 434.719 497.033 435.607ZM538.353 358.676V343.632C538.353 343.111 537.928 342.684 537.404 342.684H470.833V340.017H537.404C539.397 340.017 541.02 341.639 541.02 343.632V356.604C540.133 357.296 539.243 357.987 538.353 358.676" fill="#FCFCFE"/>
<path d="M525.117 364.135H470.833V361.468H525.117C525.853 361.468 526.451 362.065 526.451 362.801C526.451 363.539 525.853 364.135 525.117 364.135Z" fill="#FCFCFE"/>
<path d="M525.117 391.936H508.133C508.552 391.037 508.988 390.148 509.439 389.269H525.117C525.853 389.269 526.451 389.865 526.451 390.603C526.451 391.34 525.853 391.936 525.117 391.936Z" fill="#FDFDFE"/>
<path d="M508.133 391.936H470.833V389.269H509.439C508.988 390.148 508.552 391.037 508.133 391.936Z" fill="#FCFCFE"/>
<path d="M486.944 378.036H470.833V375.369H486.944C487.68 375.369 488.277 375.965 488.277 376.703C488.277 377.44 487.68 378.036 486.944 378.036Z" fill="#FCFCFE"/>
<path d="M486.944 406.68H470.833V404.012H486.944C487.68 404.012 488.277 404.61 488.277 405.347C488.277 406.083 487.68 406.68 486.944 406.68Z" fill="#FCFCFE"/>
<path d="M472.403 419.949H470.833V417.283H472.403C473.14 417.283 473.736 417.879 473.736 418.616C473.736 419.352 473.14 419.949 472.403 419.949Z" fill="#FCFCFE"/>
<path d="M186.939 232.22H167.217C166.481 232.22 165.884 231.623 165.884 230.887C165.884 230.151 166.481 229.553 167.217 229.553H186.939C187.675 229.553 188.272 230.151 188.272 230.887C188.272 231.623 187.675 232.22 186.939 232.22Z" fill="#FCFCFE"/>
<path d="M77.053 212.089V193.06C77.053 191.067 78.6744 189.445 80.6682 189.445H96.301C95.766 190.349 95.2098 191.237 94.6338 192.112H80.6682C80.1452 192.112 79.7196 192.537 79.7196 193.06V209.501C78.8368 210.369 77.9468 211.232 77.053 212.089" fill="white"/>
<path d="M77.053 229.463V212.089C77.9468 211.232 78.8368 210.369 79.7196 209.501V226.833C78.8207 227.703 77.9311 228.579 77.053 229.463M108.566 192.112H94.6338C95.2098 191.237 95.766 190.349 96.301 189.445H109.636C109.297 190.34 108.942 191.228 108.566 192.112" fill="#FDFDFE"/>
<path d="M149.231 297.536H80.6682C78.6744 297.536 77.053 295.913 77.053 293.92V229.463C77.9311 228.579 78.8207 227.703 79.7196 226.833V293.92C79.7196 294.443 80.1452 294.869 80.6682 294.869H148.349L149.231 297.536M202.135 246.016V237.011C203.012 237.359 203.901 237.684 204.801 237.987V245.135L202.135 246.016M169.737 192.112H108.566C108.942 191.228 109.297 190.34 109.636 189.445H169.653C169.659 190.34 169.687 191.228 169.737 192.112" fill="#FCFCFE"/>
<path d="M91.675 215.458C91.6458 215.348 91.6302 215.234 91.6302 215.115C91.6302 214.379 92.2276 213.782 92.9636 213.782H93.3469C92.7942 214.344 92.2364 214.903 91.675 215.458Z" fill="#FDFDFE"/>
<path d="M177.488 216.448H92.9636C92.3458 216.448 91.826 216.028 91.675 215.457C92.2364 214.903 92.7942 214.344 93.3469 213.781H175.927C176.421 214.687 176.941 215.576 177.488 216.448" fill="#FCFCFE"/>
<path d="M186.939 247.991H92.9636C92.2276 247.991 91.6302 247.393 91.6302 246.657C91.6302 245.921 92.2276 245.324 92.9636 245.324H186.939C187.675 245.324 188.272 245.921 188.272 246.657C188.272 247.393 187.675 247.991 186.939 247.991Z" fill="#FCFCFE"/>
<path d="M143.629 232.22H92.9636C92.2276 232.22 91.6302 231.623 91.6302 230.887C91.6302 230.151 92.2276 229.553 92.9636 229.553H143.629C144.365 229.553 144.963 230.151 144.963 230.887C144.963 231.623 144.365 232.22 143.629 232.22Z" fill="#FCFCFE"/>
<path d="M143.629 264.718H92.9636C92.2276 264.718 91.6302 264.122 91.6302 263.384C91.6302 262.648 92.2276 262.051 92.9636 262.051H143.629C144.365 262.051 144.963 262.648 144.963 263.384C144.963 264.122 144.365 264.718 143.629 264.718Z" fill="#FCFCFE"/>
<path d="M127.132 279.772H92.9636C92.2276 279.772 91.6302 279.175 91.6302 278.439C91.6302 277.703 92.2276 277.105 92.9636 277.105H127.132C127.869 277.105 128.466 277.703 128.466 278.439C128.466 279.175 127.869 279.772 127.132 279.772Z" fill="#FCFCFE"/>
<path d="M534.132 187.499H474.201C471.523 187.499 469.136 189.456 468.256 192.376L466.272 198.963C465.392 201.883 463.007 203.84 460.327 203.84H374.532C371.056 203.84 368.236 207.092 368.236 211.103V211.104V308.24C368.236 312.252 371.056 315.504 374.532 315.504H374.957H523.619H534.132C537.844 315.504 540.852 312.252 540.852 308.24V218.819V203.84V194.763C540.852 190.751 537.844 187.499 534.132 187.499" fill="#3C419F"/>
<path d="M472.904 204.865L475.024 198.279C475.964 195.357 478.511 193.401 481.372 193.401H534.132C537.844 193.401 540.852 196.652 540.852 200.664V209.741V224.721V314.143C540.852 318.153 537.844 321.407 534.132 321.407H374.957C371.245 321.407 368.236 318.153 368.236 314.143V217.005C368.236 212.993 371.245 209.741 374.957 209.741H466.559C469.417 209.741 471.965 207.785 472.904 204.865" fill="#6660B6"/>
<path d="M534.517 321.407H470.833H534.132C537.844 321.407 540.852 318.153 540.852 314.143V243.823V314.56C540.852 318.341 538.016 321.407 534.517 321.407" fill="#ECE9F6"/>
<path d="M534.132 321.407H470.833V291.068C470.833 286.523 467.255 282.812 462.763 282.601C462.551 278.108 458.84 274.529 454.295 274.529H378.152V240.641H392.516C411.056 240.641 427.308 230.849 436.383 216.156H470.825C473.521 216.156 475.921 214.311 476.808 211.559L478.805 205.349C479.691 202.597 482.092 200.753 484.788 200.753H534.517C538.016 200.753 540.852 203.819 540.852 207.599V209.741V224.721V243.823V314.143C540.852 318.153 537.844 321.407 534.132 321.407" fill="#7D73C1"/>
<path d="M522.668 313.218H483.295C482.559 313.218 481.961 312.622 481.961 311.884C481.961 311.148 482.559 310.551 483.295 310.551H522.668C525.208 310.551 527.275 308.484 527.275 305.943V274.708C527.275 273.972 527.871 273.375 528.608 273.375C529.344 273.375 529.941 273.972 529.941 274.708V305.943C529.941 309.954 526.677 313.218 522.668 313.218Z" fill="white"/>
<path d="M64.0453 297.974H124.363C127.059 297.974 129.46 300.175 130.346 303.46L132.344 310.87C133.23 314.154 135.631 316.355 138.328 316.355H224.676C228.175 316.355 231.011 320.015 231.011 324.526V433.795C231.011 438.307 228.175 441.966 224.676 441.966H224.247H74.627H64.0453C60.3093 441.966 57.2806 438.307 57.2806 433.795V333.206V316.355V306.144C57.2806 301.632 60.3093 297.974 64.0453 297.974Z" fill="#F26690"/>
<path d="M57.2811 433.907V312.784C57.2811 308.271 60.3093 304.612 64.0453 304.612H117.145C120.024 304.612 122.588 306.815 123.534 310.099L125.668 317.508C126.614 320.793 129.176 322.995 132.056 322.995H157.643L160.027 330.209H127.761C125.048 330.209 122.631 328.133 121.74 325.037L119.729 318.055C118.837 314.959 116.421 312.883 113.707 312.883H63.6562C60.1359 312.883 57.2811 316.331 57.2811 320.584V330.209V346.091V433.907" fill="#F5799E"/>
<path d="M67.0145 448.605H63.6562C60.1359 448.605 57.2811 445.156 57.2811 440.903V440.433C57.2811 444.947 60.3093 448.605 64.0453 448.605H67.0145Z" fill="#F8F7FC"/>
<path d="M67.0145 448.605H64.0453C60.3093 448.605 57.2811 444.947 57.2811 440.433V433.907C57.3229 437.645 59.4437 440.779 62.3109 441.695C63.7827 444.061 65.353 446.365 67.0145 448.605Z" fill="#F9F8FC"/>
<path d="M140.581 448.605H67.0145C65.353 446.365 63.7828 444.061 62.3109 441.695C62.864 441.872 63.4458 441.965 64.0453 441.965H74.627H133.837C136.053 444.212 138.297 446.421 140.581 448.605Z" fill="#F5F3FA"/>
<path d="M199.144 448.605H140.581C138.297 446.421 136.053 444.212 133.837 441.965H196.951L199.144 448.605Z" fill="#EEECF7"/>
<path d="M196.951 441.966H64.0453C63.4458 441.966 62.8639 441.872 62.3109 441.695C59.4437 440.779 57.3229 437.646 57.2811 433.907V346.091V330.21V320.584C57.2811 316.331 60.1359 312.883 63.6562 312.883H113.707C116.421 312.883 118.837 314.959 119.729 318.055L121.74 325.038C122.631 328.134 125.048 330.21 127.761 330.21H160.027L196.951 441.966" fill="#F68AAB"/>
<path d="M69.6051 344.879C68.9469 344.879 68.4125 344.283 68.4125 343.546V325.038C68.4125 322.531 70.2363 320.492 72.4791 320.492H97.3385C97.9969 320.492 98.5311 321.088 98.5311 321.826C98.5311 322.563 97.9969 323.159 97.3385 323.159H72.4791C71.5521 323.159 70.7983 324.002 70.7983 325.038V343.546C70.7983 344.283 70.2639 344.879 69.6051 344.879" fill="white"/>
<path d="M392.516 240.641H221.173C192.719 240.641 169.652 217.575 169.652 189.121C169.652 160.667 192.719 137.6 221.173 137.6H392.516C420.971 137.6 444.037 160.667 444.037 189.121C444.037 217.575 420.971 240.641 392.516 240.641Z" fill="#CCDAF2"/>
<path d="M379.301 145.48C379.301 185.496 346.861 217.936 306.844 217.936C266.828 217.936 234.388 185.496 234.388 145.48C234.388 105.463 266.828 73.0214 306.844 73.0214C346.861 73.0214 379.301 105.463 379.301 145.48Z" fill="#6C92D3"/>
<path d="M392.516 225.463H221.173C192.719 225.463 169.652 202.396 169.652 173.943V173.941C169.652 145.488 192.719 122.421 221.173 122.421H392.516C420.971 122.421 444.037 145.488 444.037 173.941V173.943C444.037 202.396 420.971 225.463 392.516 225.463Z" fill="#6C92D3"/>
<path d="M379.301 130.3C379.301 170.317 346.861 202.757 306.844 202.757C266.828 202.757 234.388 170.317 234.388 130.3C234.388 90.2828 266.828 57.8428 306.844 57.8428C346.861 57.8428 379.301 90.2828 379.301 130.3Z" fill="#6C92D3"/>
<path d="M392.516 225.463H356.017L352.972 216.245C351.795 212.683 348.483 210.425 344.925 210.425C344.044 210.425 343.148 210.564 342.265 210.856L340.272 211.515L339.613 209.521C338.436 205.959 335.123 203.701 331.565 203.701C330.684 203.701 329.787 203.84 328.904 204.132L264.344 225.463H221.173C192.719 225.463 169.652 202.396 169.652 173.943V173.941C169.652 145.488 192.719 122.421 221.173 122.421H234.811C234.531 125.009 234.388 127.639 234.388 130.3C234.388 170.317 266.828 202.757 306.844 202.757C346.861 202.757 379.301 170.317 379.301 130.3C379.301 127.639 379.159 125.009 378.879 122.421H392.516C420.971 122.421 444.037 145.488 444.037 173.941V173.943C444.037 202.396 420.971 225.463 392.516 225.463Z" fill="#97B7E5"/>
<path d="M306.844 202.757C266.828 202.757 234.388 170.317 234.388 130.3C234.388 90.2828 266.828 57.8428 306.844 57.8428C346.861 57.8428 379.301 90.2828 379.301 130.3C379.301 170.317 346.861 202.757 306.844 202.757Z" fill="#97B7E5"/>
<path d="M289.9 141.085C289.037 141.085 288.176 140.752 287.524 140.088C286.232 138.776 286.251 136.665 287.564 135.375L307.009 116.259L326.145 135.395C327.448 136.696 327.448 138.807 326.145 140.108C324.843 141.411 322.733 141.411 321.432 140.108L306.969 125.647L292.237 140.128C291.588 140.767 290.744 141.085 289.9 141.085" fill="white"/>
<path d="M306.844 167.597C305.004 167.597 303.511 166.104 303.511 164.264V120.953C303.511 119.112 305.004 117.62 306.844 117.62C308.685 117.62 310.177 119.112 310.177 120.953V164.264C310.177 166.104 308.685 167.597 306.844 167.597Z" fill="white"/>
<path d="M338.352 188.163H274.84C270.287 188.163 266.583 184.459 266.583 179.905V156.832C266.583 154.991 268.075 153.499 269.916 153.499C271.757 153.499 273.249 154.991 273.249 156.832V179.905C273.249 180.783 273.963 181.496 274.84 181.496H338.352C339.504 181.496 340.441 180.56 340.441 179.408V156.832C340.441 154.991 341.933 153.499 343.775 153.499C345.616 153.499 347.108 154.991 347.108 156.832V179.408C347.108 184.236 343.18 188.163 338.352 188.163Z" fill="white"/>
<path d="M223.211 469.204C219.653 469.204 216.341 466.947 215.164 463.384L214.505 461.391L252.619 448.799L256.332 458.709L225.872 468.773C224.989 469.065 224.092 469.204 223.211 469.204" fill="#B3B4E1"/>
<path d="M368.236 274.53H361.092L349.895 240.642H361.033L368.236 262.446V274.53" fill="#B3B4E1"/>
<path d="M372.229 274.53H368.236V262.446L372.229 274.53Z" fill="#5F5EB5"/>
<path d="M361.033 240.641H349.895L344.88 225.463H356.017L361.033 240.641Z" fill="#9FACDE"/>
<path d="M356.017 225.463H344.88L340.272 211.515L342.265 210.856C343.148 210.564 344.044 210.425 344.925 210.425C348.483 210.425 351.795 212.683 352.972 216.245L356.017 225.463" fill="#7C96D4"/>
<path d="M394.279 401.995L212.512 462.049C208.067 463.517 203.273 461.105 201.805 456.66L141.751 274.895C140.281 270.45 142.695 265.656 147.139 264.187L328.904 204.132C333.349 202.663 338.144 205.076 339.613 209.522L399.668 391.288C401.136 395.734 398.724 400.525 394.279 401.995" fill="white"/>
<path d="M379.795 388.089L215.633 442.328L161.396 278.167L325.557 223.928L379.795 388.089Z" fill="#CCDAF2"/>
<path d="M214.239 443.719L201.959 406.552L202.991 404.064L215.633 442.328L246.387 432.167L246.697 432.995L214.239 443.719Z" fill="white"/>
<path d="M215.633 442.328L202.991 404.064L219.92 363.259C221.907 358.471 226.485 355.549 231.408 355.549C232.647 355.549 233.907 355.735 235.152 356.121L268.4 366.448C268.84 366.585 269.288 366.651 269.729 366.651C271.259 366.651 272.715 365.857 273.537 364.489L301.219 318.419C302.008 317.104 302.915 315.895 303.917 314.796V321.692L276.965 366.549C275.405 369.148 272.64 370.653 269.736 370.653C268.897 370.653 268.049 370.528 267.213 370.268L233.967 359.941C233.119 359.677 232.263 359.552 231.42 359.552C228.076 359.552 224.965 361.537 223.615 364.792L206.224 406.711L216.781 438.667L245.293 429.247L246.387 432.167L215.633 442.328" fill="#E5EDF9"/>
<path d="M269.047 315.708C260.116 315.708 251.78 310.036 248.829 301.104C245.148 289.964 251.217 277.907 262.356 274.227C264.563 273.499 266.807 273.152 269.012 273.152C277.944 273.152 286.283 278.821 289.233 287.755C292.915 298.895 286.845 310.952 275.707 314.631C273.499 315.361 271.255 315.708 269.047 315.708M269.019 277.152C267.225 277.152 265.404 277.432 263.612 278.025C254.565 281.013 249.639 290.804 252.627 299.849C255.023 307.103 261.795 311.707 269.045 311.708C270.837 311.708 272.659 311.427 274.452 310.833C283.497 307.845 288.424 298.055 285.436 289.009C283.04 281.757 276.269 277.152 269.019 277.152" fill="#E5EDF9"/>
<path d="M462.357 441.446H426.133C425.875 441.027 425.655 440.58 425.481 440.106C424.992 438.771 424.449 437.462 423.856 436.182C423.44 435.283 423.212 434.332 423.168 433.383H428.383C428.929 434.687 430.219 435.607 431.72 435.607H470.415C469.305 438.998 466.117 441.446 462.357 441.446" fill="#B3B4E1"/>
<path d="M412.133 441.446H365.008L361.987 433.383H407.087C409.079 435.842 410.779 438.547 412.133 441.446Z" fill="#B3B4E1"/>
<path d="M426.133 441.446H412.133C410.779 438.547 409.079 435.842 407.087 433.383H423.168C423.212 434.332 423.44 435.283 423.856 436.182C424.449 437.462 424.992 438.771 425.481 440.106C425.655 440.58 425.875 441.027 426.133 441.446Z" fill="#BBBEE5"/>
<path d="M470.833 432.94H457.005C460.357 431.81 462.772 428.64 462.772 424.907V419.95H470.833V432.94ZM470.833 417.283H462.772V406.68H470.833V417.283ZM470.833 404.012H462.772V391.936H470.833V404.012ZM470.833 389.27H462.772V378.036H470.833V389.27ZM470.833 375.37H462.772V364.135H470.833V375.37ZM470.833 361.468H462.772V342.684H470.833V361.468M470.833 340.018H462.772V321.407H470.833V340.018Z" fill="#B3B4E1"/>
<path d="M470.415 435.607H431.72C430.219 435.607 428.929 434.687 428.383 433.383H454.295C455.243 433.383 456.155 433.227 457.005 432.94H470.833V432.968C470.833 433.889 470.687 434.776 470.415 435.607ZM470.833 342.684H462.772V340.017H470.833V342.684Z" fill="#C0C3E7"/>
<path d="M462.772 364.135H470.833V361.468H462.772V364.135Z" fill="#C0C3E7"/>
<path d="M462.772 391.936H470.833V389.269H462.772V391.936Z" fill="#C0C3E7"/>
<path d="M462.772 378.036H470.833V375.369H462.772V378.036Z" fill="#C0C3E7"/>
<path d="M462.772 406.68H470.833V404.012H462.772V406.68Z" fill="#C0C3E7"/>
<path d="M462.772 419.949H470.833V417.283H462.772V419.949Z" fill="#C0C3E7"/>
<path d="M470.833 321.407H462.772V283.005C462.772 282.869 462.768 282.735 462.763 282.601C467.255 282.812 470.833 286.523 470.833 291.068V321.407" fill="#6B6ABC"/>
<path d="M454.295 433.383H312.395C307.712 433.383 303.917 429.588 303.917 424.907V283.005C303.917 278.324 307.712 274.53 312.395 274.53H454.295C458.976 274.53 462.772 278.324 462.772 283.005V424.907C462.772 429.588 458.976 433.383 454.295 433.383Z" fill="white"/>
<path d="M447.335 417.003H355.849L338.328 370.24L342.033 365.951C343.217 364.58 344.88 363.868 346.563 363.868C347.772 363.868 348.992 364.236 350.052 364.992L371.648 380.418C372.859 381.283 374.265 381.711 375.668 381.711C377.28 381.711 378.887 381.146 380.181 380.031L411.236 353.304C413.841 351.063 417.088 349.944 420.333 349.944C423.649 349.944 426.964 351.111 429.591 353.44L447.335 369.174V417.003M375.669 377.708C375.076 377.708 374.483 377.527 373.972 377.163L352.377 361.736C350.609 360.475 348.577 359.862 346.56 359.862C343.756 359.862 340.983 361.05 339.007 363.336L336.729 365.972L335.963 363.927C334.687 360.523 331.456 358.423 328.024 358.423C327.961 358.423 327.899 358.423 327.836 358.424C326.227 356.494 323.828 355.372 321.32 355.372C320.332 355.372 319.327 355.547 318.347 355.914L317.355 356.286V288.058H449.152V365.439L432.244 350.448C428.865 347.45 424.601 345.948 420.335 345.948C416.157 345.948 411.979 347.388 408.627 350.274L377.572 377C377.025 377.47 376.348 377.708 375.669 377.708M391.376 308.876C382.171 308.876 374.681 316.366 374.681 325.571C374.681 334.778 382.171 342.266 391.376 342.266C400.581 342.266 408.071 334.778 408.071 325.571C408.071 316.366 400.581 308.876 391.376 308.876ZM391.376 338.266C384.376 338.266 378.681 332.571 378.681 325.571C378.681 318.571 384.376 312.876 391.376 312.876C398.376 312.876 404.071 318.571 404.071 325.571C404.071 332.571 398.376 338.266 391.376 338.266Z" fill="#FCD9E5"/>
<path d="M451.335 421.003H357.348L356.919 419.855H449.152V365.439L451.335 367.374V421.003Z" fill="white"/>
<path d="M449.152 419.855H356.919L355.849 417.003H447.335V369.173L429.591 353.44C426.964 351.111 423.649 349.944 420.333 349.944C417.088 349.944 413.841 351.063 411.236 353.304L380.181 380.031C378.887 381.145 377.28 381.711 375.668 381.711C374.265 381.711 372.859 381.283 371.648 380.417L350.052 364.992C348.992 364.236 347.772 363.868 346.563 363.868C344.88 363.868 343.217 364.58 342.033 365.951L338.328 370.24L336.729 365.972L339.007 363.336C340.983 361.049 343.756 359.861 346.56 359.861C348.577 359.861 350.609 360.475 352.377 361.736L373.972 377.163C374.483 377.527 375.076 377.708 375.669 377.708C376.348 377.708 377.025 377.469 377.572 377L408.627 350.273C411.979 347.388 416.157 345.948 420.335 345.948C424.601 345.948 428.865 347.449 432.244 350.448L449.152 365.439V419.855" fill="#FEEDF3"/>
<path d="M391.376 342.265C382.171 342.265 374.681 334.777 374.681 325.571C374.681 316.365 382.171 308.876 391.376 308.876C400.581 308.876 408.071 316.365 408.071 325.571C408.071 334.777 400.581 342.265 391.376 342.265M391.376 312.876C384.376 312.876 378.681 318.571 378.681 325.571C378.681 332.571 384.376 338.265 391.376 338.265C398.376 338.265 404.071 332.571 404.071 325.571C404.071 318.571 398.376 312.876 391.376 312.876Z" fill="#FEEDF3"/>
<path d="M277.865 485.654C276.981 485.654 276.112 485.514 275.285 485.249C274.568 484.308 274.288 483.095 274.499 481.925L305.109 470.456C306.005 470.848 306.995 471.065 308.035 471.065H318.328L280.839 485.112C279.859 485.478 278.853 485.654 277.865 485.654Z" fill="#B4B6E2"/>
<path d="M271.776 483.076C271.629 482.924 271.487 482.766 271.351 482.601C271.488 482.599 271.627 482.592 271.767 482.582C271.764 482.747 271.767 482.912 271.776 483.076" fill="#B4B6E2"/>
<path d="M337.984 463.7C337.913 463.212 337.851 462.72 337.797 462.227C339.293 462.144 340.795 462.095 342.308 462.08L337.984 463.7" fill="#B4B6E2"/>
<path d="M337.797 462.227C337.657 460.933 337.581 459.621 337.571 458.293L354.351 452.007C358.619 450.407 360.839 445.736 359.437 441.445H365.008L366.019 444.144C367.661 448.528 365.44 453.413 361.056 455.056L342.308 462.08C340.795 462.095 339.293 462.144 337.797 462.227" fill="#B3B4E1"/>
<path d="M318.328 471.065H308.035C306.995 471.065 306.005 470.848 305.109 470.456L321.156 464.444C326.617 463.327 332.152 462.54 337.797 462.227C337.851 462.72 337.913 463.212 337.984 463.7L318.328 471.065Z" fill="#BCBEE5"/>
<path d="M321.156 464.444L337.571 458.293C337.581 459.621 337.657 460.933 337.797 462.227C332.152 462.54 326.617 463.327 321.156 464.444Z" fill="#BBBEE5"/>
<path d="M275.285 485.25C273.965 484.827 272.755 484.084 271.776 483.076C271.767 482.912 271.764 482.747 271.767 482.582C272.557 482.524 273.353 482.355 274.133 482.063L274.499 481.926C274.288 483.095 274.568 484.308 275.285 485.25Z" fill="#BEC0E6"/>
<path d="M365.008 441.446H359.437C359.399 441.328 359.359 441.211 359.315 441.095L356.425 433.383H361.987L365.008 441.446" fill="#8D94D2"/>
<path d="M361.987 433.383H356.425L351.787 421.003H357.348L361.987 433.383Z" fill="#C2C6E9"/>
<path d="M355.849 417.003H350.288L334.449 374.732L338.328 370.24L355.849 417.003ZM332.851 370.464L329.259 360.878C328.915 359.96 328.429 359.138 327.836 358.424C327.899 358.423 327.961 358.423 328.024 358.423C331.456 358.423 334.687 360.523 335.963 363.927L336.729 365.972L332.851 370.464" fill="#BFACD9"/>
<path d="M357.348 421.003H351.787L351.356 419.855H356.919L357.348 421.003" fill="#C2C6E9"/>
<path d="M356.919 419.855H351.356L350.288 417.003H355.849L356.919 419.855ZM334.449 374.732L332.851 370.464L336.729 365.972L338.328 370.24L334.449 374.732Z" fill="#C0B9E1"/>
<path d="M354.351 452.007L274.133 482.063C269.751 483.706 264.865 481.483 263.223 477.099L233.167 396.881C231.524 392.499 233.745 387.613 238.129 385.969L318.347 355.913C322.732 354.271 327.616 356.493 329.259 360.877L359.315 441.095C360.957 445.479 358.735 450.363 354.351 452.007Z" fill="white"/>
<path d="M350.984 443.936L271.259 473.807L241.387 394.082L321.112 364.211L350.984 443.936Z" fill="#6C92D3"/>
<path d="M270.005 475.825L262.753 456.471L263.751 453.769L271.259 473.807L350.984 443.936L338.317 410.131L340.96 411.147L353.475 444.549L270.005 475.825" fill="white"/>
<path d="M271.259 473.807L263.751 453.77L270.883 434.466C271.948 431.583 274.645 429.782 277.577 429.782C278.197 429.782 278.827 429.862 279.455 430.03L296.015 434.466C296.116 434.494 296.219 434.507 296.32 434.507C296.741 434.507 297.14 434.28 297.351 433.896L310.077 410.688C312.285 406.662 316.512 404.31 320.901 404.31C322.365 404.31 323.848 404.572 325.28 405.122L338.317 410.131L350.984 443.936L271.259 473.807M277.583 433.782C276.292 433.782 275.104 434.582 274.635 435.851L267.021 456.462L272.347 470.678L348.327 442.208L337.845 414.236L323.844 408.855C322.877 408.484 321.875 408.307 320.887 408.307C317.925 408.307 315.075 409.895 313.585 412.614L300.857 435.819C299.932 437.51 298.181 438.51 296.328 438.51C295.881 438.51 295.428 438.451 294.98 438.331L278.419 433.895C278.14 433.819 277.859 433.782 277.583 433.782" fill="#AFCAEC"/>
<path d="M294.679 411.49C290.023 411.49 285.631 408.639 283.903 404.03C281.68 398.095 284.7 391.459 290.633 389.236C291.956 388.739 293.316 388.503 294.653 388.503C299.308 388.503 303.699 391.355 305.428 395.964C307.651 401.899 304.632 408.535 298.699 410.759C297.375 411.255 296.016 411.49 294.679 411.49ZM294.657 392.504C293.785 392.504 292.9 392.658 292.036 392.98C288.168 394.431 286.2 398.758 287.649 402.626C288.776 405.632 291.639 407.49 294.675 407.49C295.547 407.49 296.432 407.338 297.295 407.014C301.163 405.564 303.132 401.238 301.681 397.368C300.556 394.363 297.692 392.504 294.657 392.504" fill="#AFCAEC"/>
</svg>
