<svg width="180" height="150" viewBox="0 0 180 150" fill="none" xmlns="http://www.w3.org/2000/svg">
<path d="M153.64 73.7794C188.787 91.2157 188.787 119.486 153.639 136.922C118.492 154.359 61.5076 154.359 26.3603 136.923C-8.78652 119.486 -8.78652 91.216 26.3607 73.7797C61.5079 56.3431 118.493 56.3431 153.64 73.7794Z" fill="#EDEDEB"/>
<path d="M132.203 98.8488C125.812 102.019 125.812 107.159 132.203 110.329C138.592 113.499 148.953 113.499 155.343 110.329C161.733 107.159 161.733 102.019 155.343 98.8491C148.953 95.6787 138.592 95.6787 132.203 98.8488" fill="#DADBD8"/>
<path d="M39.3237 110.342L112.515 146.654L146.061 130.012L72.8543 93.6928L39.3237 110.342Z" fill="#DADBD8"/>
<path d="M26.313 117.504L11.1655 109.989C10.7166 109.767 10.7166 109.406 11.1655 109.183L64.4335 82.7569C64.8824 82.534 65.6099 82.534 66.0589 82.7569L81.2059 90.2717C81.6548 90.4943 81.6548 90.8552 81.2059 91.0781L27.9384 117.504C27.4896 117.727 26.7617 117.727 26.313 117.504Z" fill="#DADBD8"/>
<path d="M73.4779 82.7926C73.4779 83.5586 72.8522 84.047 72.0766 84.4302L31.1971 104.709C30.4255 105.093 29.7956 104.783 29.7956 104.013V35.7662C29.7956 34.9966 30.4255 34.0647 31.1971 33.678L72.0766 13.4019C72.8522 13.0155 73.4779 13.3284 73.4779 14.0945V82.7926M74.1983 2.88668L29.2384 25.188C28.3382 25.6377 27.6052 26.7279 27.6052 27.6227V114.746C27.6052 115.641 28.3382 116.006 29.2384 115.556L74.1983 93.2549C75.0984 92.8056 75.8312 91.7154 75.8312 90.8203V3.69694C75.8312 2.80185 75.0984 2.43737 74.1983 2.88668" fill="#273E47"/>
<path d="M29.0351 115.644C28.1283 116.003 26.8086 115.971 25.9668 115.557L24.0966 114.629C23.19 114.18 22.4573 113.095 22.4573 112.194V25.0763C22.4573 24.7356 22.5627 24.3737 22.7407 24.026C22.7973 23.9112 22.8621 23.7999 22.935 23.6886L22.939 23.6851L28.0839 26.2381H28.0878C27.9786 26.4052 27.8814 26.579 27.8045 26.7529C27.6792 27.0448 27.6062 27.3441 27.6062 27.6225V114.747C27.6062 115.571 28.2295 115.947 29.0351 115.644" fill="#17282F"/>
<path d="M52.1072 96.7491C53.5329 96.042 54.6884 96.6152 54.6884 98.0296C54.6884 99.444 53.5329 101.164 52.1072 101.871C50.6815 102.578 49.5261 102.005 49.5261 100.591C49.5261 99.1763 50.6815 97.4564 52.1072 96.7491Z" fill="#70D294"/>
<path d="M51.7183 15.9158C52.3238 15.6155 52.8144 15.859 52.8144 16.4596C52.8144 17.0602 52.3238 17.7908 51.7183 18.0911C51.1132 18.3914 50.6226 18.1479 50.6226 17.5473C50.6226 16.9467 51.1132 16.2164 51.7183 15.9158Z" fill="#040606"/>
<path d="M47.4874 21.6447L55.9496 17.4466C56.4549 17.196 56.8641 17.3741 56.8641 17.844C56.8641 18.314 56.4549 18.8978 55.95 19.1484L47.4871 23.3468C46.9822 23.5971 46.5726 23.4194 46.573 22.9494C46.573 22.4794 46.9825 21.8953 47.4874 21.6447" fill="#040606"/>
<path d="M73.4785 82.721C73.4785 83.4871 72.8527 83.9754 72.0772 84.3583L31.1977 104.638C30.4261 105.021 29.7961 104.711 29.7961 103.942V35.6946C29.7961 34.9247 30.4261 33.9928 31.1977 33.6064L72.0772 13.3304C72.8527 12.9436 73.4785 13.2568 73.4785 14.0229V82.721" fill="#70D294"/>
<path d="M73.4779 82.7208H73.2902C73.2891 83.0653 73.154 83.3372 72.9231 83.581C72.6919 83.8236 72.3604 84.0323 71.9831 84.2184H71.9828L31.1034 104.498C30.9009 104.599 30.7194 104.641 30.5722 104.641C30.392 104.639 30.2619 104.585 30.1581 104.476C30.0553 104.366 29.9831 104.188 29.9833 103.942V35.6944C29.9824 35.3473 30.1286 34.9442 30.3695 34.5871C30.6093 34.2297 30.9429 33.9194 31.2917 33.7452L31.291 33.7459L72.1705 13.4698H72.1708C72.3747 13.3679 72.5571 13.3253 72.7046 13.3256C72.8841 13.3273 73.0132 13.3814 73.1168 13.4905C73.2189 13.5998 73.2906 13.7772 73.2902 14.0227V82.7208H73.4779H73.6656V14.0227C73.6656 13.725 73.58 13.473 73.4103 13.2895C73.2418 13.105 72.9839 13.0015 72.7046 13.0031C72.4741 13.0031 72.2301 13.0673 71.9824 13.1908L31.1034 33.4662L31.1027 33.4669C30.6798 33.6794 30.3127 34.0281 30.0444 34.4258C29.7774 34.8238 29.6087 35.2715 29.6079 35.6944V103.942C29.6079 104.241 29.6943 104.493 29.865 104.677C30.0345 104.862 30.2925 104.965 30.5722 104.963C30.8017 104.963 31.0448 104.9 31.291 104.777L72.1705 84.4977L72.1701 84.4981C72.5687 84.301 72.9377 84.0739 73.2133 83.7852C73.4892 83.4978 73.6667 83.1424 73.6656 82.7208H73.4779" fill="white"/>
<path d="M75.8158 3.47366C75.6983 2.7434 75.0181 2.47922 74.2009 2.88596L29.2375 25.188C28.788 25.4109 28.3794 25.7969 28.0839 26.2385L22.939 23.6855C23.2386 23.2436 23.6434 22.8646 24.0966 22.6421L69.0518 0.336826C69.9505 -0.112168 71.416 -0.112168 72.3225 0.336826L74.2009 1.26159C75.0264 1.67574 75.7107 2.62534 75.8158 3.47366Z" fill="#33535F"/>
<path d="M43.3148 47.9633C43.2739 46.9511 42.8125 46.6637 41.93 47.1014L40.8925 47.6165V52.7338L41.9814 52.1936C42.8362 51.7694 43.281 51.033 43.3148 49.9837C43.3212 49.7915 43.3249 49.6128 43.3249 49.4464C43.3249 49.2806 43.3249 49.1186 43.3249 48.9619C43.3249 48.8045 43.3249 48.6451 43.3249 48.4839C43.3249 48.3219 43.3212 48.1484 43.3148 47.9633V47.9633ZM41.9814 44.9213C42.4495 44.689 42.8775 44.569 43.2641 44.5606C43.6504 44.5532 43.9848 44.6458 44.2668 44.838C44.5483 45.0306 44.769 45.3186 44.9286 45.7018C45.0877 46.085 45.1778 46.5453 45.1977 47.0827C45.2052 47.2678 45.2086 47.4391 45.2086 47.5962C45.2086 47.7533 45.2086 47.9039 45.2086 48.0474C45.2086 48.191 45.2086 48.339 45.2086 48.4919C45.2086 48.6448 45.2052 48.8125 45.1977 48.9951C45.1778 49.5622 45.0892 50.1128 44.9334 50.6482C44.7773 51.1836 44.5618 51.6859 44.2874 52.1539C44.0122 52.6229 43.6845 53.0435 43.3043 53.416C42.9248 53.7886 42.5006 54.0908 42.0321 54.3231L39.2836 55.6871C39.2089 55.7239 39.1443 55.7197 39.0902 55.6749C39.0358 55.6304 39.0088 55.5584 39.0088 55.4594V46.7595C39.0088 46.6608 39.0358 46.5621 39.0902 46.4634C39.1443 46.3644 39.2089 46.2966 39.2836 46.2599L41.9814 44.9213" fill="white"/>
<path d="M48.3027 47.6704L49.9518 46.8524L49.1274 44.0291L48.3027 47.6704ZM49.9518 40.9671C50.0877 40.9 50.1909 40.8981 50.2626 40.961C50.3335 41.0245 50.3827 41.099 50.4101 41.1842L52.629 48.5675C52.6564 48.6442 52.6699 48.7049 52.6699 48.7497C52.6699 48.8303 52.6478 48.911 52.6038 48.991C52.5599 49.0716 52.507 49.1268 52.4462 49.1568L51.1635 49.7932C51.0276 49.8606 50.9308 49.8702 50.8733 49.8228C50.8155 49.7751 50.7799 49.719 50.7664 49.6535L50.4814 48.6771L47.7738 50.0206L47.4885 51.2795C47.475 51.3585 47.4393 51.4504 47.3815 51.5549C47.3234 51.6601 47.2273 51.7459 47.091 51.8133L45.8087 52.4494C45.7475 52.4797 45.6953 52.4771 45.6507 52.4404C45.6067 52.4042 45.585 52.3452 45.585 52.2642C45.585 52.2197 45.5985 52.1455 45.6255 52.0423L47.8448 42.457C47.8714 42.3451 47.921 42.2215 47.9923 42.0873C48.0636 41.9532 48.1672 41.8525 48.3027 41.7851L49.9518 40.9671Z" fill="white"/>
<path d="M58.0147 36.9675C58.089 36.9307 58.1535 36.9346 58.2083 36.9794C58.262 37.0243 58.2894 37.0962 58.2894 37.1946V38.6222C58.2894 38.7212 58.262 38.8202 58.2083 38.9186C58.1535 39.0176 58.089 39.0854 58.0147 39.1225L56.223 40.0114V46.9199C56.223 47.0189 56.1956 47.1176 56.1415 47.2163C56.0871 47.315 56.0225 47.3827 55.9482 47.4202L54.6144 48.0814C54.5397 48.1188 54.4752 48.1146 54.4211 48.0695C54.3667 48.025 54.34 47.953 54.34 47.854V40.9455L52.548 41.8345C52.4733 41.8716 52.4087 41.8674 52.3546 41.8226C52.2998 41.7777 52.2732 41.7061 52.2732 41.6071V40.1795C52.2732 40.0808 52.2998 39.9821 52.3546 39.8831C52.4087 39.7847 52.4733 39.7166 52.548 39.6795L58.0147 36.9675" fill="white"/>
<path d="M60.6108 41.5643L62.2603 40.7463L61.4355 37.923L60.6108 41.5643ZM62.2603 34.861C62.3958 34.7939 62.499 34.792 62.5707 34.8552C62.6416 34.9187 62.6908 34.9929 62.7182 35.0781L64.9371 42.4617C64.9645 42.5381 64.978 42.5987 64.978 42.6436C64.978 42.7242 64.9562 42.8048 64.9119 42.8848C64.868 42.9655 64.8151 43.0206 64.7543 43.051L63.4716 43.687C63.3357 43.7545 63.2389 43.7644 63.1814 43.7167C63.1236 43.6693 63.0883 43.6128 63.0745 43.5477L62.7895 42.571L60.0819 43.9144L59.7966 45.1737C59.7831 45.2524 59.7475 45.3443 59.6896 45.4488C59.6318 45.554 59.5354 45.6398 59.3995 45.7072L58.1168 46.3436C58.0556 46.3736 58.0034 46.3713 57.9591 46.3342C57.9148 46.2981 57.8931 46.2391 57.8931 46.1584C57.8931 46.1136 57.9066 46.0394 57.9336 45.9362L60.1529 36.3509C60.1799 36.2393 60.2291 36.1157 60.3004 35.9816C60.3717 35.8474 60.4753 35.7464 60.6108 35.679L62.2603 34.861" fill="white"/>
<path d="M141.575 36.0411C139.191 36.1372 138.374 36.5278 137.126 37.7909C135.908 39.0241 130.027 48.3881 130.027 48.3881C130.027 48.3881 131.13 51.046 133.545 50.8198L138.06 44.5642L141.575 36.0411" fill="#F6879F"/>
<path d="M141.891 36.0457C141.891 36.0457 140.179 35.8537 138.958 36.2334C137.736 36.613 137.126 37.3727 136.285 38.4764C135.633 39.3302 133.354 42.8761 133.354 42.8761C133.354 42.8761 134.465 45.53 137.623 45.53L141.891 36.0457" fill="#DADBD8"/>
<path d="M150.06 102.634V102.19C149.856 102.711 148.91 104.953 147.477 106.076C146.338 106.969 144.783 108.001 144.388 108.997C143.976 110.032 146.551 110.38 147.616 110.219C148.853 110.03 150.453 109.427 151.325 108.507C151.937 107.86 152.327 107.094 152.765 106.586C153.202 106.077 154.21 105.509 154.447 104.921C154.576 104.597 154.422 103.889 154.24 103.291C154.072 102.742 153.891 102.139 153.673 102.19C153.672 102.257 153.673 102.529 153.673 102.529C153.411 102.778 152.685 103.026 151.867 103.053C151.338 103.07 150.055 102.98 150.06 102.634" fill="#17282F"/>
<path d="M146.446 106.862C146.8 106.591 147.155 106.326 147.478 106.073C148.479 105.288 149.243 103.957 149.681 103.049C149.932 102.53 150.061 101.976 150.061 101.415V99.6454H153.674V102.525V102.526V102.603L153.655 102.611C153.481 103.256 151.823 104.972 150.882 106.091C150.25 106.841 149.05 107.795 147.616 107.96C146.258 108.116 145.563 107.747 146.446 106.862" fill="#F6879F"/>
<path d="M137.306 99.5738V99.13C137.103 99.6506 136.158 101.892 134.724 103.016C133.584 103.909 132.03 104.941 131.635 105.937C131.223 106.972 133.798 107.32 134.863 107.158C136.1 106.97 137.7 106.367 138.572 105.447C139.184 104.8 139.574 104.034 140.011 103.525C140.449 103.017 141.457 102.449 141.694 101.86C141.824 101.537 141.669 100.829 141.487 100.231C141.32 99.6819 141.137 99.0784 140.919 99.13C140.919 99.1968 140.919 99.468 140.919 99.468C140.657 99.718 139.932 99.9661 139.113 99.9928C138.585 100.011 137.302 99.9203 137.306 99.5738Z" fill="#17282F"/>
<path d="M133.693 103.802C134.046 103.531 134.402 103.266 134.725 103.013C135.726 102.228 136.489 100.897 136.928 99.9886C137.179 99.4699 137.307 98.9164 137.307 98.3548V96.5853H140.92V99.4654V99.466V99.5425L140.902 99.5505C140.728 100.196 139.07 101.912 138.128 103.031C137.497 103.781 136.297 104.735 134.863 104.899C133.504 105.056 132.81 104.687 133.693 103.802Z" fill="#F6879F"/>
<path d="M152.954 54.3868C155.755 59.6435 152.853 78.1609 152.853 78.1609C152.937 79.0141 154.072 80.6927 154.495 84.4469C154.994 88.8833 153.711 100.022 153.711 100.022C153.711 100.022 152.038 100.962 150.06 100.147C150.06 100.147 146.616 83.3705 145.969 78.9599C145.404 75.1106 144.319 66.6468 144.319 66.6468L142.576 78.9389C142.576 78.9389 143.368 81.0955 143.553 82.7383C143.845 85.3329 140.92 97.4119 140.92 97.4119C140.92 97.4119 139.673 97.8051 137.307 97.5055C137.307 97.5055 136.272 81.4758 135.999 78.3503C135.541 73.1017 135.824 56.7244 136.945 53.6175L152.954 54.3868" fill="#33535F"/>
<path d="M144.319 66.6467L143.41 61.7642C143.41 61.7642 139.563 61.0794 137.818 59.6702C137.818 59.6702 139.648 61.6268 142.367 62.2674L143.389 66.0265L142.693 78.1196L144.319 66.6467" fill="#273E47"/>
<path d="M148.013 36.124H148.013C149.078 36.1869 149.434 36.1647 150.207 36.2327C151.751 36.3689 152.123 38.3097 152.755 39.456C153.439 40.6969 153.447 42.1355 152.924 43.4331L150.422 49.6535C150.422 49.6535 151.594 52.0869 152.954 54.3864C146.674 57.3981 138.833 55.815 136.944 53.6171C136.865 53.151 137.35 49.5065 137.649 47.126C136.542 44.7417 136.251 43.2305 136.717 41.6549C137.584 38.7296 140.687 36.0382 141.575 36.0408L148.013 36.124Z" fill="#EDEDEB"/>
<path d="M153.381 24.3166L152.082 24.2195C152.238 24.1427 152.374 24.0324 152.468 23.8856C152.75 23.4463 152.563 22.8786 152.051 22.6174L151.213 23.9247C149.828 21.8832 147.199 20.5611 144.264 20.6953L143.593 20.7259C139.413 20.9172 136.205 23.9837 136.428 27.5757C136.657 31.2863 136.912 35.4373 136.912 35.4373L144.71 35.0805C149.134 34.8779 152.529 31.6327 152.293 27.8318L152.235 26.8525C152.196 26.2261 152.05 25.6271 151.822 25.0626C151.937 25.1133 152.063 25.1475 152.2 25.1575C152.782 25.201 153.31 24.8246 153.381 24.3166" fill="#33535F"/>
<path d="M137.827 28.0113C137.773 28.7538 137.804 29.1602 137.891 30.1453C138.188 33.4844 139.501 34.2524 140.149 34.4614C140.796 34.6707 142.009 34.4701 143.186 34.2456L143.186 36.2199C143.186 36.2199 141.771 37.9646 141.931 38.88C142.091 39.7954 144.371 39.909 145.85 38.94C147.33 37.9711 147.93 36.3228 147.93 36.3228L147.93 31.7081C147.93 31.7081 148.788 32.5912 150.053 31.7829C151.318 30.9749 151.252 29.1212 150.449 28.4912C149.646 27.861 147.986 28.1284 147.736 29.0609C147.736 29.0609 144.999 28.8635 144.65 24.9889C142.107 27.8394 137.989 25.7834 137.827 28.0113" fill="#F6879F"/>
<path d="M147.721 28.8025L147.823 30.4569C147.1 30.4901 146.482 30.0127 146.443 29.3908L146.329 27.5445L147.721 28.8025Z" fill="#33535F"/>
<path d="M142.696 29.0038C142.697 29.2454 142.917 29.4399 143.187 29.439C143.458 29.4373 143.676 29.2406 143.676 28.999C143.674 28.7574 143.454 28.5626 143.184 28.5639C142.914 28.5652 142.695 28.7622 142.696 29.0038" fill="#17282F"/>
<path d="M142.663 31.9667L141.353 32.3927C141.484 32.7156 141.884 32.8817 142.246 32.7643C142.607 32.6463 142.794 32.2892 142.663 31.9667Z" fill="#F47089"/>
<path d="M143.232 27.1165L144.379 27.4348C144.494 27.1635 144.331 26.8723 144.014 26.7845C143.697 26.6968 143.347 26.8455 143.232 27.1165Z" fill="#33535F"/>
<path d="M138.49 29.1865C138.491 29.4278 138.711 29.6226 138.982 29.6213C139.252 29.6197 139.471 29.423 139.47 29.1814C139.469 28.9398 139.249 28.7453 138.979 28.7462C138.708 28.7475 138.489 28.9446 138.49 29.1865" fill="#17282F"/>
<path d="M141.348 28.829L141.427 31.3633L139.852 31.0217L141.348 28.829Z" fill="#F47089"/>
<path d="M143.186 34.2457C144.428 34.0474 146.963 33.2942 147.31 32.4017C147.31 32.4017 147.211 32.9571 146.477 33.5587C145.743 34.1603 143.186 34.915 143.186 34.915V34.2457Z" fill="#F47089"/>
<path d="M146.407 54.9703C148.47 54.5506 148.862 53.8829 148.317 52.1228C148.297 52.056 148.275 51.9986 148.253 51.9531C147.849 51.1186 146.238 51.6147 146.238 51.6147C146.238 51.6147 146.897 50.9083 147.637 50.0084C148.378 49.1082 148.709 47.6189 148.808 46.5745C148.907 45.5298 149.105 43.4374 149.105 43.4374C149.105 43.4374 150.709 42.6123 150.084 41.1027L152.561 39.7948C152.561 39.7948 152.743 39.9028 153.027 40.0731C153.421 41.1595 153.362 42.3455 152.925 43.4335L150.422 49.6539C150.422 49.6539 151.9 51.8908 152.954 54.3868C148.326 56.6062 142.852 56.3292 139.536 55.1506C142.156 55.4996 144.583 55.3415 146.407 54.9703" fill="#E2E2E0"/>
<path d="M143.865 30.0923L143.621 30.1036C142.896 30.1368 142.275 29.6572 142.236 29.0343C142.198 28.4111 142.756 27.8776 143.481 27.8444L143.725 27.8334C144.45 27.7999 145.071 28.2799 145.11 28.9027C145.148 29.5256 144.59 30.0594 143.865 30.0923ZM139.044 30.3129L138.799 30.3242C138.074 30.3574 137.453 29.8775 137.415 29.2546C137.377 28.6318 137.935 28.0983 138.66 28.065L138.904 28.0541C139.628 28.0205 140.25 28.5005 140.288 29.1233C140.327 29.7462 139.768 30.2797 139.044 30.3129V30.3129ZM148.162 28.4831L145.325 28.6131C145.136 28.0041 144.471 27.5693 143.711 27.6041L143.467 27.6154C142.808 27.6454 142.265 28.0196 142.058 28.5234C141.83 28.3357 141.49 28.2199 141.114 28.2205C140.786 28.2212 140.506 28.3111 140.311 28.4669C140.015 28.0608 139.484 27.7976 138.889 27.8247L138.645 27.8357C137.774 27.8757 137.102 28.5176 137.148 29.2669C137.195 30.0162 137.942 30.5932 138.813 30.5532L139.057 30.5422C139.93 30.5022 140.601 29.8604 140.555 29.1111C140.545 28.9595 140.501 28.8179 140.439 28.6843C140.581 28.5389 140.827 28.4502 141.115 28.4498C141.477 28.4492 141.814 28.5779 141.973 28.7772L141.985 28.7698C141.969 28.8598 141.964 28.9521 141.97 29.0462C142.016 29.7955 142.763 30.3726 143.635 30.3326L143.879 30.3216C144.751 30.2816 145.423 29.6397 145.376 28.8905L145.368 28.8408L147.905 28.725C148.007 28.5995 148.106 28.5208 148.162 28.4831" fill="#17282F"/>
<path d="M124.827 46.409L137.51 49.2794L141 61.6094L128.943 58.6003L124.827 46.409Z" fill="#70D294"/>
<path d="M141 61.6094L128.943 58.6003L124.827 46.409L137.51 49.2794L139.824 57.452L133.373 56.593C133.454 57.2601 133.998 58.0323 135.582 58.6825C136.33 58.9896 137.414 59.0706 138.349 59.0706C139.393 59.0709 140.253 58.9696 140.253 58.9696L140.065 58.3051L141 61.6094ZM130.558 55.1406L128.094 56.0856L128.222 56.4659C129.872 56.3521 130.44 55.417 130.558 55.1406ZM134.05 49.5714L133.946 49.1556C133.888 48.9263 133.05 48.5637 132.074 48.3463L130.205 47.9299C129.735 47.8251 129.318 47.7731 129.019 47.7731C128.698 47.7731 128.513 47.8331 128.543 47.9518C128.601 48.1815 128.648 48.3676 128.648 48.3676L134.05 49.5714" fill="#70D294"/>
<path d="M140.065 58.3054L139.823 57.4523L140.065 58.3054Z" fill="#263F48"/>
<path d="M138.349 59.0708C137.414 59.0708 136.33 58.9898 135.582 58.6828C133.998 58.0325 133.454 57.2603 133.373 56.5933L139.824 57.4522L140.065 58.3054L140.253 58.9698C140.253 58.9698 139.394 59.0711 138.349 59.0708" fill="#08917D"/>
<path d="M128.222 56.4663L128.094 56.086L130.558 55.1409C130.44 55.4174 129.872 56.3524 128.222 56.4663Z" fill="#08917D"/>
<path d="M134.05 49.5713L128.648 48.3675C128.648 48.3675 128.601 48.1814 128.543 47.9517C128.513 47.833 128.698 47.7731 129.019 47.7731C129.318 47.7731 129.735 47.825 130.205 47.9298L132.074 48.3462C133.05 48.5636 133.888 48.9262 133.945 49.1555L134.05 49.5713" fill="#05A58D"/>
<path d="M127.674 46.8054C127.637 46.6621 127.939 46.6244 128.347 46.7215L129.088 46.897C129.088 46.897 128.867 45.998 130.509 46.3125C132.151 46.6263 132.51 47.6472 132.51 47.6472C132.51 47.6472 132.864 47.7333 133.3 47.8398C133.736 47.9462 134.131 48.1485 134.183 48.2914L134.276 48.55L127.743 47.0721C127.743 47.0721 127.711 46.9489 127.674 46.8054Z" fill="#273E47"/>
<path d="M128.573 47.249C129.172 47.3728 129.421 47.4412 129.51 47.795C129.612 48.1992 129.654 48.496 129.654 48.496L132.545 49.1523C132.545 49.1523 132.405 48.6408 132.361 48.4411C132.316 48.2418 132.414 48.1215 132.875 48.2263L132.914 48.0679L128.383 47.0767L128.573 47.249Z" fill="#273E47"/>
<path d="M128.474 48.407C128.474 48.407 128.427 48.2212 128.369 47.9915C128.311 47.7619 129.055 47.7519 130.031 47.9693L131.9 48.3857C132.876 48.6034 133.714 48.9657 133.771 49.1953L133.876 49.6111L128.474 48.407" fill="#273E47"/>
<path d="M126.164 50.3676C126.164 50.3676 126.638 51.7616 126.746 52.0939C126.855 52.4261 128.276 53.0235 129.208 53.2435C130.141 53.4638 131.16 53.7247 130.719 54.8446C130.312 55.8774 128.778 56.1129 127.997 56.0839C127.216 56.0548 126.147 55.4133 125.725 54.3792C125.188 53.0603 125.478 51.6517 125.264 50.8814C125.051 50.1108 125.697 49.9083 126.164 50.3676" fill="#F6879F"/>
<path d="M149.919 36.2106C151.564 36.2999 153.264 37.0654 153.522 38.7626C153.78 40.4599 155.379 49.394 154.752 50.3997C153.3 52.7253 143.727 57.1485 142.776 57.5269C141.825 57.9052 140.244 58.5268 138.36 58.5445C136.867 58.559 134.88 58.5168 133.876 57.3572C132.985 56.3279 132.481 54.4287 134.495 54.7555C136.508 55.0822 139.109 54.9297 139.109 54.9297L138.875 54.1014C138.875 54.1014 139.407 54.0604 140.411 54.3168C141.416 54.5733 142.329 53.832 144.102 52.8902C146.39 51.6758 149.871 49.1082 149.871 49.1082L148.452 41.6485C148.452 41.6485 148.404 38.424 149.919 36.2106" fill="#F6879F"/>
<path d="M149.621 36.2102C149.621 36.2102 150.502 36.0363 151.468 36.3524C152.434 36.6688 153.293 37.0898 153.694 38.7622C154.095 40.4346 154.889 46.5493 154.889 46.5493C154.889 46.5493 152.783 47.8579 149.353 47.2363L148.121 41.6878C148.121 41.6878 147.161 37.8039 149.621 36.2102" fill="#DADBD8"/>
<path d="M32.4225 65.7498L72.5524 45.8414L72.5528 50.6194L32.4224 70.5281L32.4225 65.7498" fill="#33535F"/>
<path d="M34.0283 66.5463V68.1384L70.9478 49.8229V48.2301L34.0283 66.5463Z" fill="#17282F"/>
<path d="M32.4228 65.7498L30.8176 64.9534L70.948 45.0447L72.5527 45.8414L32.4228 65.7498" fill="#273E47"/>
<path d="M30.8176 64.9534L32.4228 65.7498L32.4227 70.5281L30.8179 69.7314L30.8176 64.9534Z" fill="#17282F"/>
<path d="M147.999 127.874L112.681 145.384V144.606L147.995 127.096L147.999 127.874Z" fill="#273E47"/>
<path d="M78.9731 80.0114L71.1941 83.8707L66.4129 86.2409C66.2586 86.3089 66.1084 86.3834 65.962 86.465C64.1797 87.4088 62.9233 89.0897 62.9233 91.1508L62.9192 110.359C62.9192 112.227 61.8839 113.789 60.3546 114.767C59.2521 115.476 57.8928 115.884 56.4859 115.884C55.4191 115.884 54.3244 115.649 53.2891 115.137C47.33 112.179 43.6587 106.716 43.6587 100.804V80.8794C43.6587 77.9216 42.7417 75.076 41.078 72.6043C39.4147 70.1287 37.0079 68.0234 34.0283 66.5464L69.3423 49.0266C72.3259 50.5071 74.7328 52.6192 76.3965 55.0912C78.0602 57.5665 78.9769 60.4085 78.9769 63.3663V72.0453C78.9769 74.5277 78.9731 80.0114 78.9731 80.0114" fill="#F3F2F1"/>
<path d="M91.8164 134.252C85.8569 131.298 82.186 125.835 82.186 119.923L82.1838 100.703C82.1838 98.455 81.6545 96.2784 80.6702 94.275C80.3583 93.6403 80.0024 93.0255 79.6034 92.4278C77.9397 89.956 75.5331 87.8507 72.5537 86.3734H72.5533C68.2729 84.252 62.9244 86.9082 62.9271 91.1547L62.9282 93.1122L62.9233 91.1511L62.9192 110.36L62.9203 106.363V110.352C62.9203 114.599 57.5726 117.256 53.2891 115.137C47.33 112.179 43.6587 106.716 43.6587 100.804V80.8797C43.6587 77.9219 42.7417 75.0763 41.078 72.6046C39.4147 70.129 37.0079 68.0237 34.0283 66.5467V67.3412C39.4935 70.2142 42.8682 75.3582 42.8682 80.8797V100.804C42.8682 106.94 46.7095 112.655 52.8939 115.724C55.1503 116.845 57.8451 116.845 60.1057 115.724C60.2438 115.656 60.3782 115.585 60.5126 115.507L60.5246 115.5C62.528 114.349 63.7097 112.454 63.7097 110.36L63.7139 91.1511C63.7139 89.4022 64.7646 87.8336 66.5273 86.9611C68.2898 86.0851 70.396 86.0851 72.1584 86.9611C75.7189 88.7268 78.4378 91.4466 79.975 94.6179C80.8958 96.5197 81.3936 98.584 81.3936 100.703L81.3939 105.163L81.3955 119.923C81.3955 126.055 85.2363 131.774 91.4211 134.843L112.681 145.384V144.607L91.8164 134.252" fill="#33535F"/>
<path d="M147.995 127.096L112.681 144.606L91.8166 134.252C85.8571 131.298 82.1862 125.834 82.1862 119.923L82.1844 100.702C82.1844 98.4546 81.6547 96.278 80.6705 94.2746C80.3585 93.6398 80.003 93.0251 79.6036 92.4274C77.9403 89.9556 75.5334 87.8503 72.554 86.373C70.5186 85.3615 68.2427 85.4325 66.4131 86.2408L71.1943 83.8707L80.8146 79.0978L101.407 68.8838L101.458 68.8568C103.328 67.9297 105.73 67.8007 107.868 68.86C110.848 70.3373 113.254 72.4426 114.918 74.9179C116.582 77.3931 117.498 80.2387 117.498 83.193L117.501 102.409C117.501 108.321 121.171 113.785 127.131 116.742L147.995 127.096" fill="#FAFAF9"/>
<path d="M81.3938 100.702C81.3938 98.5835 80.8961 96.5191 79.9753 94.6173C78.4381 91.446 75.7192 88.7262 72.1587 86.9606C70.3963 86.0845 68.29 86.0845 66.5276 86.9606C64.7648 87.8331 63.7141 89.4016 63.7141 91.1505L63.71 110.359C63.71 112.454 62.5283 114.349 60.5249 115.5L60.5129 115.507C60.3785 115.585 60.2441 115.656 60.106 115.724L81.3942 105.162L81.3938 100.702Z" fill="#DADBD8"/>
<path d="M60.106 115.724L60.1623 115.696C60.1435 115.705 60.1247 115.715 60.106 115.724ZM60.1623 115.696C60.2809 115.636 60.3969 115.574 60.5129 115.507L60.5249 115.5C62.5283 114.349 63.71 112.454 63.71 110.359L63.7141 91.1505C63.7141 89.4016 64.7648 87.8331 66.5276 86.9606C67.4086 86.5225 68.376 86.3035 69.343 86.3035C70.3103 86.3035 71.2777 86.5225 72.1587 86.9606C75.7192 88.7262 78.4381 91.446 79.9753 94.6173C80.8961 96.5191 81.3938 98.5835 81.3938 100.702L81.3942 105.162L60.1623 115.696" fill="#B4B6B4"/>
<path d="M40.3007 66.642C41.0439 67.1881 42.354 67.3052 43.2992 66.8362L68.4986 54.3347C69.4434 53.8657 69.6668 52.9887 68.9273 52.441C68.1878 51.8933 66.7711 51.8839 65.8259 52.3529L40.6141 64.8606C39.6689 65.3296 39.5574 66.0963 40.3007 66.642" fill="#70D294"/>
<path d="M60.6175 61.9133C60.521 61.9133 60.4268 61.8704 60.375 61.793C60.2973 61.6782 60.3431 61.5308 60.4775 61.4647L72.2596 55.619C72.3039 55.5971 72.3519 55.5868 72.3996 55.5868C72.4964 55.5868 72.5907 55.6297 72.6421 55.7071C72.7194 55.8219 72.6736 55.9693 72.5396 56.0354L60.7575 61.8811C60.7136 61.903 60.6652 61.9133 60.6175 61.9133" fill="#858889"/>
<path d="M61.5275 63.2163C61.4306 63.2163 61.3364 63.1731 61.2846 63.096C61.2069 62.9808 61.2531 62.8334 61.3867 62.7673L73.1692 56.922C73.2131 56.9001 73.2611 56.8897 73.3088 56.8897C73.4057 56.8897 73.4999 56.933 73.5517 57.0101C73.629 57.1249 73.5832 57.2723 73.4492 57.3387L61.6671 63.1837C61.6232 63.2057 61.5748 63.2163 61.5275 63.2163" fill="#858889"/>
<path d="M62.2911 64.5745C62.1943 64.5745 62.1 64.5312 62.0482 64.4538C61.9709 64.339 62.0171 64.1916 62.1507 64.1255L73.9328 58.2798C73.9771 58.2579 74.0255 58.2476 74.0732 58.2476C74.1701 58.2476 74.2639 58.2905 74.3153 58.3679C74.393 58.4827 74.3472 58.6298 74.2132 58.6962L62.4311 64.5419C62.3868 64.5635 62.3388 64.5745 62.2911 64.5745" fill="#858889"/>
<path d="M62.9047 65.9861C62.8079 65.9861 62.7137 65.9429 62.6619 65.8658C62.5845 65.7506 62.6303 65.6035 62.7643 65.5371L74.5461 59.6921C74.5903 59.6702 74.6388 59.6598 74.6861 59.6598C74.7829 59.6598 74.8768 59.7027 74.9286 59.7798C75.0063 59.895 74.9601 60.0421 74.8265 60.1085L63.0444 65.9535C63.0004 65.9754 62.952 65.9861 62.9047 65.9861" fill="#858889"/>
<path d="M63.3531 67.3699C63.2559 67.3699 63.1621 67.3267 63.1103 67.2496C63.0326 67.1344 63.0787 66.9873 63.2124 66.9209L74.9941 61.0759C75.0384 61.054 75.0868 61.0436 75.1341 61.0436C75.231 61.0436 75.3252 61.0865 75.3766 61.1636C75.4543 61.2788 75.4085 61.4259 75.2745 61.4923L63.4928 67.3373C63.4489 67.3592 63.4004 67.3699 63.3531 67.3699Z" fill="#858889"/>
<path d="M63.6566 68.8572C63.5594 68.8572 63.4652 68.814 63.4137 68.7369C63.336 68.6217 63.3822 68.4746 63.5158 68.4082L75.2979 62.5625C75.3419 62.5409 75.3903 62.5306 75.4376 62.5306C75.5348 62.5306 75.6286 62.5735 75.6805 62.6506C75.7578 62.7654 75.712 62.9128 75.578 62.979L63.7963 68.8246C63.7523 68.8465 63.7039 68.8572 63.6566 68.8572" fill="#858889"/>
<path d="M63.821 70.4441C63.7242 70.4441 63.63 70.4009 63.5785 70.3238C63.5008 70.2086 63.547 70.0612 63.6806 69.9951L75.4627 64.1501C75.507 64.1282 75.5555 64.1178 75.6028 64.1178C75.6996 64.1178 75.7938 64.1607 75.8453 64.2378C75.923 64.353 75.8772 64.5001 75.7431 64.5665L63.9611 70.4115C63.9171 70.4334 63.8687 70.4441 63.821 70.4441Z" fill="#858889"/>
<path d="M47.0227 81.7612C46.9548 81.7612 46.888 81.7309 46.8516 81.6764C46.7967 81.5951 46.8294 81.4916 46.924 81.4448L75.5119 67.2618C75.5431 67.2463 75.5772 67.2389 75.611 67.2389C75.679 67.2389 75.7454 67.2692 75.7814 67.3237C75.8366 67.405 75.8043 67.5089 75.7097 67.5553L47.1215 81.7383L47.0227 81.7612Z" fill="#858889"/>
<path d="M47.0227 83.2776C46.9548 83.2776 46.888 83.2469 46.8516 83.1924C46.7967 83.1115 46.8294 83.0076 46.924 82.9608L75.5119 68.7775C75.5431 68.7617 75.5772 68.7543 75.611 68.7543C75.679 68.7543 75.7454 68.7849 75.7814 68.8394C75.8366 68.9207 75.8043 69.0246 75.7097 69.0714L47.1215 83.2544L47.0227 83.2776Z" fill="#858889"/>
<path d="M47.0227 84.7937C46.9548 84.7937 46.888 84.7631 46.8516 84.7089C46.7967 84.6276 46.8294 84.5237 46.924 84.477L75.5119 70.2939C75.5431 70.2785 75.5772 70.271 75.6106 70.271C75.679 70.271 75.7454 70.3017 75.7814 70.3562C75.8366 70.4375 75.8043 70.541 75.7097 70.5878L47.1215 84.7708L47.0227 84.7937" fill="#858889"/>
<path d="M47.0227 86.3098C46.9548 86.3098 46.888 86.2792 46.8516 86.225C46.7967 86.1437 46.8294 86.0398 46.924 85.9931L75.5119 71.8104C75.5431 71.7946 75.5772 71.7872 75.6106 71.7872C75.679 71.7872 75.7454 71.8178 75.7814 71.8723C75.8366 71.9536 75.8043 72.0571 75.7097 72.1039L47.1215 86.2869L47.0227 86.3098" fill="#858889"/>
<path d="M47.0227 79.5564C46.9548 79.5564 46.888 79.5257 46.8516 79.4716C46.7967 79.3903 46.8294 79.2864 46.924 79.2396L62.0586 71.7306C62.0898 71.7151 62.1239 71.7077 62.1577 71.7077C62.2257 71.7077 62.2921 71.738 62.3285 71.7925C62.3833 71.8738 62.3511 71.9777 62.2565 72.0244L47.1215 79.5335L47.0227 79.5564Z" fill="#858889"/>
<path d="M46.5952 70.8501C47.1947 71.8784 47.6853 72.9035 47.9965 73.9234C48.3366 74.8582 48.5344 76.0113 48.6523 77.2873C48.6737 77.5212 48.8794 77.6157 49.1155 77.4986L49.9575 77.0809C50.1936 76.9635 50.3734 76.679 50.3527 76.4451C50.248 75.2604 50.019 74.1047 49.6448 72.9835C49.2382 71.8655 48.7964 70.8472 48.29 70.0092C48.1643 69.8012 47.8613 69.7321 47.6252 69.8492L46.7975 70.2598C46.5614 70.3769 46.4728 70.6404 46.5952 70.8501" fill="#70D294"/>
<path d="M49.0919 67.8485C49.8607 68.8752 50.5379 70.1071 51.1171 71.5582C51.5841 72.7239 51.8908 74.0709 52.021 75.6182C52.0406 75.8521 52.2436 75.9472 52.4798 75.8298L53.321 75.4124C53.5571 75.2953 53.7395 75.0099 53.72 74.7764C53.6051 73.3971 53.2913 72.0472 52.8 70.7235C52.2733 69.3607 51.598 68.1366 50.7879 67.038C50.6419 66.8402 50.3251 66.7754 50.0863 66.8893L49.2492 67.2892C49.0109 67.4031 48.944 67.6511 49.0919 67.8485" fill="#70D294"/>
<path d="M55.7356 69.2671L54.9086 69.6774C54.6722 69.7945 54.5535 70.0689 54.6335 70.2931C55.0149 71.3634 55.269 72.5778 55.3846 73.9499C55.4041 74.1838 55.6069 74.2783 55.8433 74.1612L56.6846 73.7438C56.9207 73.6267 57.1028 73.3413 57.0832 73.1074C56.9808 71.8691 56.7169 70.6544 56.3084 69.4609C56.2311 69.2361 55.9717 69.15 55.7356 69.2671" fill="#70D294"/>
<path d="M59.0999 66.3824C58.9989 66.1644 58.7188 66.0837 58.482 66.1998L57.6486 66.6072C57.4114 66.723 57.3063 66.9917 57.4076 67.2094C57.5585 67.5339 57.7038 67.871 57.8435 68.221C58.3101 69.3867 58.6171 70.7333 58.7474 72.281C58.7669 72.5148 58.9696 72.6096 59.2061 72.4925L60.0473 72.0752C60.2834 71.9578 60.4655 71.6726 60.446 71.4388C60.3315 70.0598 60.0177 68.71 59.5259 67.3862C59.3934 67.043 59.2511 66.7082 59.0999 66.3824" fill="#70D294"/>
<path d="M47.1583 78.8147C47.084 78.8147 47.0221 78.765 47.0187 78.7008C46.9868 78.1789 46.9297 77.6641 46.8479 77.1568L46.3066 77.4255L46.2364 77.4416C46.1883 77.4416 46.1414 77.42 46.1155 77.3813C46.0768 77.3239 46.0994 77.2503 46.1666 77.2171L46.8006 76.9026C46.7259 76.4842 46.638 76.0694 46.5296 75.6621L46.0123 75.9185L45.9425 75.9346C45.8944 75.9346 45.8471 75.9133 45.8212 75.8743C45.7825 75.8172 45.8054 75.7433 45.8726 75.7104L46.4582 75.4198C46.3415 75.0095 46.2112 74.6038 46.0599 74.206L45.5141 74.4767L45.4443 74.4931C45.3959 74.4931 45.349 74.4715 45.3231 74.4325C45.2844 74.3751 45.3073 74.3015 45.3745 74.2683L45.9654 73.9754C45.8069 73.5787 45.635 73.1874 45.4421 72.8046L45.4394 72.8L44.8873 73.0739L44.8174 73.0903C44.7694 73.0903 44.7221 73.0687 44.6966 73.03C44.6575 72.9726 44.6804 72.8991 44.7476 72.8658L45.3253 72.5794C45.1301 72.2011 44.9143 71.8246 44.677 71.4511L44.123 71.7263L44.0532 71.7424C44.0047 71.7424 43.9578 71.7208 43.9319 71.6821C43.8932 71.6247 43.9161 71.5511 43.9833 71.5179L44.5415 71.2408C44.3043 70.8805 44.0464 70.5235 43.7705 70.1693L43.2727 70.4164L43.2029 70.4325C43.1549 70.4325 43.1076 70.4109 43.0817 70.3722C43.043 70.3148 43.0659 70.2412 43.1331 70.208L43.6136 69.9696C43.3242 69.609 43.0171 69.2516 42.689 68.8991C42.6406 68.8471 42.6504 68.7713 42.7104 68.7301C42.7363 68.7123 42.7675 68.7036 42.7983 68.7036C42.8396 68.7036 42.8801 68.7191 42.9071 68.7488C43.2446 69.1107 43.5599 69.4781 43.8565 69.8493L44.3779 69.5906C44.3996 69.5797 44.424 69.5742 44.4477 69.5742C44.4961 69.5742 44.5434 69.5958 44.5693 69.6348C44.6076 69.6919 44.5851 69.7655 44.5179 69.7987L44.0137 70.0487C44.2893 70.4028 44.5468 70.7602 44.784 71.1205L45.2281 70.9002C45.2499 70.8892 45.2739 70.8837 45.2975 70.8837C45.346 70.8837 45.3929 70.9054 45.4192 70.9441C45.4578 71.0015 45.4349 71.0753 45.3677 71.1082L44.9195 71.3308C45.1572 71.7043 45.3734 72.0801 45.5693 72.4585L45.9931 72.2481C46.0149 72.2369 46.0393 72.2317 46.0633 72.2317C46.1114 72.2317 46.1583 72.2533 46.1838 72.2923C46.2225 72.3494 46.2 72.423 46.1328 72.4562L45.6834 72.6791L45.6992 72.7097C45.888 73.0839 46.0558 73.4661 46.212 73.8529L46.6196 73.6506C46.6418 73.6396 46.6658 73.6345 46.6898 73.6345C46.7379 73.6345 46.7848 73.6558 46.8107 73.6948C46.8494 73.7522 46.8265 73.8258 46.7597 73.859L46.3066 74.0835C46.4594 74.4809 46.5915 74.8853 46.7105 75.2947L47.1181 75.0924C47.1395 75.0815 47.1636 75.076 47.1876 75.076C47.2356 75.076 47.2833 75.0979 47.3088 75.1366C47.3475 75.194 47.3246 75.2676 47.2578 75.3008L46.7818 75.5369C46.8925 75.9433 46.983 76.3565 47.06 76.7739L47.4121 76.5994C47.4338 76.5881 47.4582 76.583 47.4819 76.583C47.5303 76.583 47.5772 76.6046 47.6031 76.6433C47.6418 76.7007 47.6189 76.7742 47.5517 76.8074L47.1076 77.0281C47.1989 77.5735 47.2638 78.1267 47.298 78.6879C47.3021 78.7544 47.2428 78.8111 47.1654 78.8144L47.1583 78.8147" fill="#858889"/>
<path d="M56.3119 93.4851C55.2777 93.4851 54.9338 92.1055 54.59 90.7257C54.5697 90.6441 54.5495 90.5624 54.5288 90.4815C54.5292 90.4812 54.5296 90.4812 54.5296 90.4812C54.6043 90.4667 54.6756 90.4592 54.7413 90.4592C55.4286 90.4592 55.7792 91.3937 56.1182 92.2975C56.2668 92.6939 56.4207 93.1039 56.6095 93.4503C56.5044 93.4738 56.4053 93.4851 56.3119 93.4851Z" fill="#C3EAE0"/>
<path d="M64.9968 87.0894C64.6248 86.4662 64.2018 85.8662 63.388 85.8662C63.1657 85.8662 62.9146 85.9111 62.6274 86.012C62.6364 85.9736 62.6417 85.9359 62.6417 85.8995C62.6417 85.824 62.6203 85.7637 62.5828 85.7201C62.9702 84.9566 63.4428 84.4512 64.0374 84.1551C64.2697 84.0399 64.4717 83.9816 64.6372 83.9816C65.3478 83.9816 65.6763 85.2963 65.9646 86.463C65.8842 86.5055 65.8054 86.5497 65.727 86.5952C65.4706 86.7445 65.2266 86.9097 64.9968 87.0894" fill="#C3EAE0"/>
<path d="M65.7268 86.5955C65.8053 86.55 65.8841 86.5058 65.9644 86.4632V86.4635C65.964 86.4639 65.9633 86.4642 65.9625 86.4648C65.883 86.5068 65.8045 86.5506 65.7268 86.5955Z" fill="#2A6D71"/>
<path d="M48.8748 100.493L49.2619 100.301H49.2622L48.8748 100.493ZM48.7224 98.9274C48.6977 98.4429 48.6939 97.953 48.7119 97.4572C48.7119 97.4572 48.7123 97.4556 48.7134 97.4524V97.4572C48.6965 97.9578 48.6992 98.4462 48.7224 98.9274ZM56.6088 93.4501C56.42 93.1037 56.2661 92.6937 56.1174 92.2973C55.7785 91.3935 55.4279 90.4591 54.7405 90.4591C54.6749 90.4591 54.6035 90.4665 54.5288 90.481C54.5288 90.481 54.5285 90.481 54.5281 90.4813C54.4999 90.3701 54.4718 90.2591 54.4429 90.1498C54.5476 90.1294 54.6467 90.1194 54.7405 90.1194C56.0994 90.1194 56.3284 92.1548 56.9782 93.3269C56.8472 93.3837 56.7244 93.4243 56.6088 93.4501Z" fill="#C7C9C7"/>
<path d="M65.964 86.4634C65.6757 85.2967 65.3472 83.982 64.6366 83.982C64.4711 83.982 64.2691 84.0404 64.0367 84.1555C63.4421 84.4516 62.9695 84.9571 62.5821 85.7205C62.5378 85.6693 62.471 85.6418 62.3899 85.6418C62.3224 85.6418 62.2451 85.6609 62.1628 85.7005C62.5499 84.8984 63.0735 84.2426 63.8397 83.8613C64.1441 83.7104 64.4072 83.6423 64.6366 83.6423C65.6389 83.6423 65.9906 84.9416 66.3228 86.2815C66.2095 86.3337 66.0983 86.3898 65.9895 86.4498C65.9808 86.4543 65.9726 86.4589 65.964 86.4634" fill="#C7C9C7"/>
<path d="M65.9641 86.4634V86.4631C65.9724 86.4588 65.9802 86.4545 65.9885 86.4502C65.9802 86.4545 65.9724 86.4591 65.9641 86.4634Z" fill="#29444E"/>
<path d="M48.8742 100.493C48.7981 99.9757 48.7477 99.4561 48.7227 98.9274C48.7492 99.4558 48.8003 99.9776 48.8742 100.493Z" fill="#81D4C7"/>
<path d="M49.2622 100.301C49.2506 100.246 49.2389 100.194 49.2273 100.123L62.9231 93.3283V93.5241L49.2622 100.301" fill="#81D4C7"/>
<path d="M48.7141 97.4521V95.9197C48.7047 94.0947 48.704 90.264 51.5869 88.4548C51.6113 88.5768 51.704 88.6445 51.8317 88.6445C51.8617 88.6445 51.894 88.6406 51.9274 88.6329C51.9274 88.6339 51.9274 88.6345 51.9274 88.6355L51.927 88.8761C51.927 88.9425 51.9901 88.9964 52.067 88.9964C52.1444 88.9964 52.2071 88.9425 52.2071 88.8761L52.2074 88.6355C52.2074 88.5942 52.183 88.5577 52.1462 88.5358C52.3392 88.4103 52.4935 88.2007 52.5363 88.0084C52.6545 87.9794 52.7645 87.9658 52.8681 87.9658C53.7574 87.9658 54.1361 88.9861 54.4436 90.1495C54.4432 90.1495 54.4432 90.1495 54.4428 90.1495C54.2412 90.1869 54.016 90.265 53.7671 90.3905C50.4803 92.0329 48.7712 97.2754 48.7141 97.4521M58.0709 94.1315C57.5709 94.1315 57.2409 93.8002 56.9797 93.328C56.9793 93.3273 56.9793 93.327 56.9789 93.3267C57.0224 93.3077 57.0671 93.287 57.1125 93.2644C60.307 91.6797 58.95 88.249 61.6881 86.4789C61.7072 86.5389 61.7451 86.5831 61.7965 86.6095C60.8776 89.3051 60.8727 92.9274 58.8333 93.9253C58.5409 94.0679 58.2897 94.1315 58.0709 94.1315" fill="#81D4C7"/>
<path d="M69.136 84.8911C69.6454 83.0893 70.1435 81.0666 71.7659 79.9712C71.7809 80.1109 71.8778 80.1892 72.0148 80.1892C72.0839 80.1892 72.1631 80.1693 72.2475 80.1273C72.5024 80.0009 72.7111 79.7199 72.7303 79.4848C73.0478 79.3729 73.3301 79.3232 73.5816 79.3232C74.9289 79.3232 75.382 80.7557 75.534 81.7178L75.5197 81.7249C75.3478 81.6578 75.1605 81.6201 74.9563 81.6201C74.6567 81.6201 74.3219 81.7011 73.9488 81.8885C73.323 82.2013 72.8962 82.6552 72.5685 83.189L71.195 83.8706L69.136 84.8911" fill="#81D4C7"/>
<path d="M49.2271 100.124C49.2188 100.074 49.2102 100.016 49.2012 99.9399C49.1103 99.1332 49.0781 98.3181 49.1058 97.5095C49.2643 97.0337 50.9403 92.1964 53.9667 90.6839C54.1705 90.581 54.3586 90.513 54.5282 90.4817C54.5489 90.5626 54.5691 90.6443 54.5894 90.7259C54.9333 92.1057 55.2771 93.4853 56.3113 93.4853C56.4048 93.4853 56.5039 93.474 56.609 93.4505C56.6135 93.4585 56.6176 93.4663 56.6221 93.474C56.7587 93.7208 57.1735 94.4717 58.0703 94.4717C58.3695 94.4717 58.6826 94.3897 59.0283 94.221C60.6158 93.444 61.0572 91.4071 61.525 89.2505C61.6909 88.4844 61.8617 87.6977 62.0869 86.9755C62.1076 86.9859 62.1316 86.9917 62.1571 86.9917C62.2341 86.9917 62.2971 86.9375 62.2971 86.871V86.6304C62.2971 86.5894 62.2731 86.553 62.2363 86.5314C62.4274 86.4082 62.5805 86.203 62.6267 86.0127C62.9139 85.9117 63.165 85.8669 63.3872 85.8669C64.2011 85.8669 64.6241 86.4669 64.9961 87.09C63.7423 88.0706 62.9233 89.4869 62.9233 91.151L62.9229 93.3289L49.2271 100.124" fill="#6DCEC1"/>
<path d="M73.3101 82.8208C73.5402 82.566 73.8131 82.3486 74.1475 82.1815C74.4407 82.0341 74.7125 81.9596 74.9557 81.9596C74.9843 81.9596 75.0124 81.9605 75.0402 81.9625L73.3101 82.8208Z" fill="#6DCEC1"/>
<path d="M48.8747 100.493C48.8004 99.9776 48.7489 99.4558 48.7223 98.9274C48.699 98.4462 48.6964 97.9578 48.7133 97.4572V97.4524C48.7703 97.2756 50.4794 92.0331 53.7663 90.3907C54.0152 90.2652 54.2404 90.1872 54.442 90.1498C54.4423 90.1498 54.4423 90.1498 54.4427 90.1498C54.4716 90.2591 54.4998 90.3701 54.5279 90.4813C54.3583 90.5126 54.1702 90.5807 53.9664 90.6836C50.94 92.196 49.264 97.0334 49.1055 97.5091C49.0778 98.3178 49.11 99.1329 49.2009 99.9396C49.2099 100.015 49.2185 100.074 49.2268 100.123C49.2384 100.194 49.2501 100.246 49.2617 100.301L48.8747 100.493M58.07 94.4713C57.1732 94.4713 56.7584 93.7204 56.6218 93.4737C56.6173 93.4659 56.6132 93.4582 56.6087 93.4501C56.7243 93.4243 56.847 93.3837 56.978 93.3269C56.9784 93.3272 56.9784 93.3276 56.9788 93.3282C57.2401 93.8004 57.57 94.1317 58.07 94.1317C58.2889 94.1317 58.54 94.0681 58.8324 93.9256C60.8719 92.9276 60.8768 89.3053 61.7957 86.6097C61.8321 86.6284 61.8753 86.6381 61.9237 86.6381C61.953 86.6381 61.9841 86.6346 62.0168 86.6271C62.0168 86.6281 62.0168 86.6291 62.0168 86.6301V86.8707C62.0168 86.9152 62.0449 86.9542 62.0866 86.9752C61.8614 87.6974 61.6906 88.4841 61.5247 89.2502C61.0569 91.4067 60.6155 93.4437 59.028 94.2207C58.6823 94.3894 58.3692 94.4713 58.07 94.4713Z" fill="#6BCCBA"/>
<path d="M72.5679 83.189C72.8956 82.6551 73.3224 82.2013 73.9481 81.8884C74.3213 81.701 74.6561 81.6201 74.9557 81.6201C75.1599 81.6201 75.3472 81.6578 75.5191 81.7249L75.0401 81.9626C75.0124 81.9607 74.9842 81.9597 74.9557 81.9597C74.7124 81.9597 74.4406 82.0342 74.1475 82.1816C73.813 82.3487 73.5401 82.5661 73.31 82.8209L73.2852 82.8332L72.5679 83.189Z" fill="#6BCCBA"/>
<path d="M47.4817 102.84C47.4329 102.84 47.386 102.818 47.3601 102.779C47.3221 102.722 47.345 102.648 47.4122 102.615L62.9226 94.984V95.2614L47.5511 102.824L47.4817 102.84" fill="#858889"/>
<path d="M52.0668 88.9968C51.9898 88.9968 51.9268 88.943 51.9268 88.8765L51.9271 88.6359C51.9271 88.5694 51.9902 88.5153 52.0672 88.5153C52.1445 88.5153 52.2072 88.5694 52.2072 88.6359L52.2068 88.8765C52.2068 88.943 52.1441 88.9968 52.0668 88.9968Z" fill="white"/>
<path d="M52.0658 89.9226C51.9889 89.9226 51.9258 89.8684 51.9258 89.8023L51.9266 89.3407C51.9269 89.2746 51.9896 89.2198 52.0666 89.2198H52.067C52.1443 89.2201 52.2066 89.273 52.2066 89.3394L52.2059 89.8023C52.2059 89.8684 52.1432 89.9226 52.0658 89.9226ZM52.0651 90.8477H52.0647C51.9874 90.8474 51.9251 90.7935 51.9251 90.7271L51.9254 90.2645C51.9254 90.1981 51.9881 90.1439 52.0655 90.1439C52.1428 90.1439 52.2055 90.1981 52.2055 90.2645L52.2051 90.7277C52.2047 90.7938 52.142 90.8477 52.0651 90.8477ZM52.0643 91.7728H52.064C51.9866 91.7725 51.9243 91.7189 51.9243 91.6521L51.9247 91.1899C51.9247 91.1235 51.9874 91.0696 52.0647 91.0696C52.1417 91.0696 52.2047 91.1235 52.2047 91.1899L52.2043 91.6528C52.204 91.7192 52.1413 91.7728 52.0643 91.7728ZM52.0643 92.6982C51.987 92.6982 51.9243 92.6443 51.9243 92.5779V92.1153C51.9243 92.0489 51.987 91.995 52.0643 91.995C52.1413 91.995 52.2043 92.0489 52.2043 92.1153V92.5779C52.2043 92.6443 52.1413 92.6982 52.0643 92.6982ZM52.0643 93.6236C51.987 93.6236 51.9243 93.5694 51.9243 93.503V93.0404C51.9243 92.9743 51.987 92.9201 52.0643 92.9201C52.1413 92.9201 52.2043 92.9743 52.2043 93.0404V93.503C52.2043 93.5694 52.1413 93.6236 52.0643 93.6236ZM52.0655 94.549C51.9881 94.549 51.9254 94.4948 51.9254 94.4287L51.9251 93.9661C51.9251 93.8997 51.9878 93.8455 52.0651 93.8455C52.142 93.8455 52.2051 93.8997 52.2051 93.9661L52.2055 94.4287C52.2055 94.4948 52.1428 94.549 52.0655 94.549ZM52.0677 95.4744C51.9908 95.4744 51.9281 95.4209 51.9277 95.3544L51.9266 94.8919C51.9266 94.8251 51.9893 94.7716 52.0662 94.7712H52.0666C52.1439 94.7712 52.2062 94.8248 52.2066 94.8912L52.2077 95.3538C52.2077 95.4205 52.1454 95.4741 52.0681 95.4744H52.0677ZM52.073 96.3998C51.996 96.3998 51.9337 96.3466 51.9326 96.2801L51.9299 95.817C51.9299 95.7508 51.9923 95.6966 52.07 95.6963H52.0703C52.1473 95.6963 52.21 95.7502 52.2104 95.8163L52.213 96.2789C52.2134 96.3453 52.151 96.3992 52.0737 96.3998H52.073ZM52.082 97.3252C52.0058 97.3252 51.9431 97.2723 51.942 97.2065C51.9397 97.0733 51.9378 96.9178 51.9363 96.7427C51.936 96.6762 51.9979 96.6221 52.0752 96.6214C52.1593 96.6085 52.2156 96.6746 52.2164 96.7408C52.2179 96.9153 52.2197 97.0698 52.222 97.203C52.2235 97.2694 52.1616 97.3239 52.0842 97.3252H52.082ZM52.1477 98.248C52.076 98.248 52.0152 98.201 52.0084 98.1384C51.9919 97.9852 51.978 97.8297 51.9667 97.6742C51.9615 97.6081 52.0204 97.5507 52.0974 97.5465C52.189 97.5384 52.2415 97.5929 52.246 97.6591C52.2573 97.8126 52.2712 97.9652 52.2869 98.1168C52.2944 98.1832 52.2378 98.2413 52.1604 98.2474L52.1477 98.248" fill="white"/>
<path d="M52.2387 98.9453C52.1696 98.9453 52.1092 98.9011 52.0998 98.8408C52.087 98.7608 52.0754 98.6808 52.0645 98.6005C52.0551 98.5344 52.1103 98.4747 52.1873 98.467C52.2646 98.4602 52.334 98.5066 52.3423 98.5724C52.3532 98.6515 52.3652 98.7302 52.3776 98.8089C52.3877 98.8747 52.334 98.9353 52.2571 98.944L52.2387 98.9453" fill="white"/>
<path d="M72.2506 80.0525C72.1737 80.0525 72.1106 79.9983 72.1106 79.9319L72.111 79.6906C72.1113 79.6245 72.174 79.5709 72.251 79.5709H72.2514C72.3291 79.5712 72.3914 79.6254 72.391 79.6916L72.3906 79.9319C72.3906 79.9983 72.3279 80.0525 72.2506 80.0525" fill="white"/>
<path d="M72.2489 80.978H72.2486C72.1712 80.9777 72.1089 80.9238 72.1089 80.8574L72.1093 80.3949C72.1093 80.3284 72.172 80.2745 72.2493 80.2745C72.3263 80.2745 72.3893 80.3284 72.3893 80.3949L72.389 80.858C72.3886 80.9242 72.3259 80.978 72.2489 80.978ZM72.2478 81.9031H72.2474C72.1701 81.9028 72.1078 81.8493 72.1078 81.7825L72.1082 81.3199C72.1082 81.2535 72.1709 81.1996 72.2482 81.1996C72.3251 81.1996 72.3882 81.2535 72.3882 81.3199L72.3878 81.7831C72.3875 81.8496 72.3251 81.9031 72.2478 81.9031ZM72.2474 82.8285H72.2471C72.1697 82.8282 72.1074 82.7743 72.1074 82.7079L72.1078 82.2453C72.1078 82.1792 72.1705 82.125 72.2478 82.125C72.3251 82.125 72.3878 82.1792 72.3878 82.2453L72.3875 82.7082C72.3871 82.7747 72.3248 82.8285 72.2474 82.8285ZM72.2474 83.7543C72.1701 83.7543 72.1074 83.7001 72.1074 83.6339V83.1714C72.1074 83.105 72.1701 83.0508 72.2474 83.0508C72.3248 83.0508 72.3875 83.105 72.3875 83.1714V83.6339C72.3875 83.7001 72.3248 83.7543 72.2474 83.7543ZM72.2474 84.679C72.1701 84.679 72.1074 84.6248 72.1074 84.5587V84.0962C72.1074 84.0297 72.1701 83.9758 72.2474 83.9758C72.3248 83.9758 72.3875 84.0297 72.3875 84.0962V84.5587C72.3875 84.6248 72.3248 84.679 72.2474 84.679ZM72.2486 85.6044C72.1712 85.6044 72.1085 85.5506 72.1085 85.4841L72.1082 85.0216C72.1082 84.9551 72.1709 84.9013 72.2482 84.9013C72.3251 84.9013 72.3882 84.9551 72.3882 85.0216L72.3886 85.4841C72.3886 85.5506 72.3255 85.6044 72.2486 85.6044ZM72.2508 86.5298C72.1739 86.5298 72.1112 86.476 72.1108 86.4098L72.1097 85.947C72.1097 85.8805 72.172 85.8267 72.2493 85.8263H72.2497C72.327 85.8263 72.3893 85.8799 72.3897 85.9463L72.3908 86.4092C72.3908 86.4756 72.3285 86.5295 72.2512 86.5298H72.2508ZM72.2553 87.4552C72.1787 87.4552 72.1161 87.4017 72.1153 87.3356L72.1127 86.8724C72.1123 86.8059 72.175 86.7521 72.2523 86.7514H72.2527C72.33 86.7514 72.3927 86.8053 72.3931 86.8717L72.3957 87.3343C72.3961 87.4004 72.3338 87.4546 72.2561 87.4552H72.2553ZM72.2651 88.381C72.1889 88.381 72.1262 88.3284 72.1251 88.2623C72.1228 88.129 72.1209 87.9739 72.1194 87.7988C72.1191 87.732 72.181 87.6781 72.2583 87.6775H72.2594C72.336 87.6775 72.3987 87.7307 72.3995 87.7968C72.401 87.971 72.4028 88.1258 72.4051 88.259C72.4062 88.3255 72.3447 88.38 72.267 88.381H72.2651ZM72.3308 89.3035C72.2591 89.3035 72.1979 89.2564 72.1915 89.1941C72.175 89.0406 72.1607 88.8854 72.1498 88.73C72.145 88.6635 72.2035 88.6061 72.2805 88.6022C72.3676 88.5984 72.4242 88.649 72.4291 88.7148C72.4404 88.8683 72.4543 89.0206 72.47 89.1722C72.4775 89.2386 72.4205 89.297 72.3435 89.3028L72.3308 89.3035" fill="white"/>
<path d="M72.4222 90.0005C72.3531 90.0005 72.2927 89.9566 72.2833 89.896C72.2705 89.8166 72.2589 89.7363 72.2476 89.6563C72.2382 89.5902 72.293 89.5302 72.3696 89.5225C72.4518 89.5128 72.516 89.5615 72.5254 89.6273C72.5367 89.7063 72.5487 89.7853 72.5611 89.8644C72.5708 89.9298 72.5175 89.9905 72.4406 89.9995L72.4222 90.0005" fill="white"/>
<path d="M62.1576 86.9912C62.0803 86.9912 62.0176 86.937 62.0176 86.8706V86.6299C62.0176 86.5638 62.0803 86.5096 62.1576 86.5096C62.2345 86.5096 62.2976 86.5638 62.2976 86.6299V86.8706C62.2976 86.937 62.2345 86.9912 62.1576 86.9912Z" fill="white"/>
<path d="M62.1565 87.8935H62.1561C62.0788 87.8931 62.0165 87.8396 62.0165 87.7728L62.0169 87.3219C62.0169 87.2555 62.0796 87.2016 62.1569 87.2016C62.2338 87.2016 62.2969 87.2555 62.2969 87.3219L62.2965 87.7735C62.2962 87.8399 62.2335 87.8935 62.1565 87.8935ZM62.1558 88.7963H62.155C62.0781 88.7957 62.0154 88.7421 62.0154 88.6753L62.0158 88.2244C62.0158 88.158 62.0788 88.1041 62.1561 88.1041C62.2331 88.1041 62.2962 88.158 62.2962 88.2244L62.2958 88.676C62.2954 88.7424 62.2327 88.7963 62.1558 88.7963ZM62.1558 89.6988C62.0784 89.6988 62.0154 89.6446 62.0154 89.5782V89.1266C62.0154 89.0605 62.0784 89.0063 62.1558 89.0063C62.2327 89.0063 62.2958 89.0605 62.2958 89.1266V89.5782C62.2958 89.6446 62.2327 89.6988 62.1558 89.6988ZM62.1573 90.601C62.0799 90.601 62.0176 90.5471 62.0173 90.481L62.0158 90.0297C62.0158 89.963 62.0784 89.9094 62.1558 89.9091H62.1561C62.2331 89.9091 62.2958 89.9626 62.2962 90.0291L62.2973 90.4803C62.2973 90.5468 62.2346 90.6007 62.1576 90.601H62.1573ZM62.1614 91.5041C62.0844 91.5041 62.0221 91.4506 62.0214 91.3841L62.0184 90.9326C62.018 90.8658 62.0807 90.8119 62.158 90.8116H62.1584C62.2357 90.8116 62.2984 90.8655 62.2988 90.9313L62.3014 91.3829C62.3018 91.4493 62.2395 91.5035 62.1622 91.5041H62.1614ZM62.1719 92.4053C62.0953 92.4053 62.033 92.3524 62.0319 92.2866L62.0255 91.8351C62.0248 91.7686 62.0871 91.7141 62.164 91.7135H62.1655C62.2425 91.7135 62.3048 91.7664 62.3059 91.8325L62.3119 92.2837C62.3127 92.3502 62.2511 92.4047 62.1734 92.4053H62.1719ZM62.238 93.3069C62.1663 93.3069 62.1055 93.2601 62.0987 93.1979C62.0822 93.0472 62.0687 92.8963 62.0574 92.744C62.0525 92.6779 62.1111 92.6208 62.1884 92.6163C62.2781 92.6111 62.3322 92.6627 62.3371 92.7289C62.348 92.8785 62.3619 93.0272 62.3776 93.1753C62.3848 93.2414 62.3281 93.3001 62.2515 93.3062L62.238 93.3069" fill="white"/>
<path d="M62.3284 93.9937C62.2593 93.9937 62.1992 93.9495 62.1895 93.8891C62.1771 93.8095 62.1651 93.7292 62.1538 93.6488C62.1448 93.5827 62.1996 93.523 62.2762 93.515C62.3516 93.5053 62.4226 93.5543 62.432 93.6205C62.4428 93.6995 62.4549 93.7785 62.4672 93.8572C62.4774 93.923 62.4237 93.9837 62.3467 93.9927L62.3284 93.9937" fill="white"/>
<path d="M51.5866 88.4553C51.5821 88.434 51.5798 88.4111 51.5798 88.3869C51.5798 88.1457 51.7968 87.8428 52.0641 87.7102C52.1485 87.6683 52.2277 87.6486 52.2968 87.6486C52.4466 87.6486 52.5479 87.7418 52.5479 87.9067C52.5479 87.9399 52.5438 87.9741 52.5359 88.0089C52.3914 88.0444 52.2356 88.1028 52.0671 88.1863C51.8985 88.2702 51.7386 88.3598 51.5866 88.4553" fill="#858889"/>
<path d="M51.8317 88.6448C51.704 88.6448 51.6113 88.577 51.5869 88.4551C51.7389 88.3596 51.8989 88.27 52.0674 88.1861C52.236 88.1026 52.3917 88.0442 52.5363 88.0087C52.4935 88.2009 52.3392 88.4106 52.1462 88.5361C52.1237 88.5229 52.0967 88.5151 52.0674 88.5151C51.9912 88.5151 51.9293 88.568 51.9274 88.6332C51.894 88.6409 51.8617 88.6448 51.8317 88.6448" fill="#499184"/>
<path d="M51.9272 88.6328C51.9291 88.5677 51.9911 88.5148 52.0673 88.5148C52.0965 88.5148 52.1236 88.5225 52.1461 88.5357C52.1194 88.5531 52.092 88.5686 52.0643 88.5825C52.0166 88.606 51.9708 88.6228 51.9272 88.6328" fill="#8C8F8F"/>
<path d="M61.6882 86.479C61.6785 86.4497 61.6736 86.4164 61.6736 86.38C61.6736 86.139 61.8902 85.8362 62.1575 85.7036C62.1593 85.7026 62.1616 85.7013 62.1635 85.7004C62.0625 85.9103 61.9705 86.1303 61.8861 86.358C61.8177 86.3974 61.7517 86.4377 61.6882 86.479" fill="#858889"/>
<path d="M62.407 86.0979C62.4637 85.9657 62.5222 85.8399 62.5827 85.7205C62.6202 85.7641 62.6416 85.8244 62.6416 85.8999C62.6416 85.9363 62.6363 85.974 62.6273 86.0124C62.556 86.0373 62.4828 86.066 62.407 86.0979Z" fill="#6C8B86"/>
<path d="M61.8857 86.3582C61.9702 86.1304 62.0622 85.9104 62.1631 85.7005C62.2454 85.6608 62.3227 85.6418 62.3903 85.6418C62.4713 85.6418 62.5382 85.6692 62.5825 85.7205C62.522 85.8398 62.4635 85.9656 62.4068 86.0979C62.3264 86.132 62.2431 86.1704 62.1571 86.213C62.0629 86.2598 61.9725 86.3082 61.8857 86.3582" fill="#6D7173"/>
<path d="M61.7965 86.6101C61.745 86.5837 61.7071 86.5395 61.688 86.4795C61.7514 86.4382 61.8175 86.3979 61.8858 86.3585C61.8851 86.3605 61.8843 86.3624 61.8839 86.3643C61.8535 86.4453 61.8246 86.5272 61.7965 86.6101Z" fill="#499184"/>
<path d="M62.2366 86.5308C62.2441 86.5092 62.252 86.4875 62.2602 86.4663C62.3075 86.3382 62.3563 86.2153 62.4066 86.0976C62.4824 86.0656 62.5556 86.0369 62.627 86.0121C62.5808 86.2024 62.4276 86.4075 62.2366 86.5308" fill="#3B9283"/>
<path d="M61.9241 86.6384C61.8757 86.6384 61.8326 86.6288 61.7961 86.61C61.8243 86.5271 61.8532 86.4452 61.8836 86.3643C61.884 86.3623 61.8847 86.3604 61.8855 86.3585C61.9722 86.3085 62.0627 86.2601 62.1569 86.2133C62.2428 86.1707 62.3262 86.1323 62.4065 86.0982C62.3562 86.2159 62.3074 86.3388 62.2601 86.4668C62.2519 86.4881 62.244 86.5097 62.2365 86.5313C62.2139 86.5178 62.1865 86.5101 62.1573 86.5101C62.0811 86.5101 62.0187 86.5626 62.0172 86.6275C61.9846 86.6349 61.9534 86.6384 61.9241 86.6384" fill="#3B8278"/>
<path d="M62.0176 86.6272C62.0191 86.5624 62.0814 86.5098 62.1576 86.5098C62.1869 86.5098 62.2143 86.5175 62.2368 86.5311C62.2109 86.5478 62.1842 86.563 62.1572 86.5766C62.1088 86.6004 62.0619 86.6172 62.0176 86.6272Z" fill="#8C8F8F"/>
<path d="M71.7652 79.9714C71.7637 79.9585 71.7629 79.945 71.7629 79.9311C71.7629 79.6902 71.9795 79.3873 72.2468 79.2547C72.3313 79.2128 72.4108 79.1928 72.4799 79.1928C72.6297 79.1928 72.731 79.286 72.731 79.4508C72.731 79.4621 72.7303 79.4737 72.7295 79.485C72.6151 79.5257 72.4957 79.5741 72.3722 79.6311C72.3482 79.5953 72.3027 79.5711 72.2509 79.5708H72.2506C72.1736 79.5708 72.1109 79.6244 72.1105 79.6905L72.1102 79.7621C71.99 79.8273 71.8748 79.8972 71.7652 79.9714" fill="#858889"/>
<path d="M72.0145 80.1897C71.8775 80.1897 71.7806 80.1113 71.7656 79.9717C71.8752 79.8975 71.9905 79.8275 72.1106 79.7623V79.932C72.1106 79.9984 72.1737 80.0526 72.2506 80.0526C72.3279 80.0526 72.3906 79.9984 72.3906 79.932L72.391 79.6917C72.3914 79.6697 72.3846 79.6491 72.3726 79.6314C72.4961 79.5743 72.6155 79.5259 72.73 79.4852C72.7108 79.7204 72.5021 80.0013 72.2472 80.1278C72.1628 80.1697 72.0836 80.1897 72.0145 80.1897" fill="#499184"/>
<path d="M72.2506 80.0525C72.1737 80.0525 72.1106 79.9983 72.1106 79.9319V79.7622L72.111 79.6906C72.1113 79.6245 72.174 79.5709 72.251 79.5709H72.2514C72.3032 79.5712 72.3486 79.5954 72.3726 79.6312C72.3846 79.649 72.3914 79.6696 72.391 79.6916L72.3906 79.9319C72.3906 79.9983 72.3279 80.0525 72.2506 80.0525" fill="#8C8F8F"/>
<path d="M47.1934 101.448C47.124 101.448 47.0635 101.404 47.0545 101.344C46.9888 100.901 46.9442 100.452 46.9138 100.001L46.5125 100.2L46.4426 100.216C46.3946 100.216 46.3473 100.194 46.3218 100.155C46.2831 100.098 46.306 100.024 46.3728 99.9912L46.8965 99.7315C46.8758 99.3222 46.8713 98.9103 46.88 98.4981L46.5129 98.6803L46.443 98.6965C46.395 98.6965 46.3477 98.6748 46.3222 98.6361C46.2835 98.5787 46.3064 98.5052 46.3732 98.472L46.8826 98.2191V96.9776L46.5132 97.1608L46.4438 97.1769C46.3954 97.1769 46.3484 97.1556 46.3222 97.1166C46.2839 97.0592 46.3068 96.9856 46.3736 96.9524L46.8826 96.6999V95.458L46.514 95.6409L46.4442 95.6574C46.3957 95.6574 46.3484 95.6357 46.3229 95.5967C46.2842 95.5396 46.3071 95.4658 46.374 95.4329L46.8826 95.1806V93.9388L46.5143 94.1217L46.4442 94.1378C46.3961 94.1378 46.3488 94.1162 46.3233 94.0775C46.2846 94.0201 46.3071 93.9465 46.3747 93.9133L46.8826 93.6614V92.4196L46.5147 92.6021L46.4449 92.6186C46.3965 92.6186 46.3496 92.597 46.3237 92.5583C46.285 92.5008 46.3075 92.427 46.3751 92.3941L46.8826 92.1422V90.9L46.5151 91.0826L46.4453 91.0987C46.3969 91.0987 46.3499 91.0771 46.3237 91.0384C46.2854 90.981 46.3079 90.9074 46.3755 90.8742L46.8826 90.6226V89.3808L46.5155 89.563L46.4457 89.5795C46.3972 89.5795 46.3503 89.5579 46.3244 89.5188C46.2857 89.4614 46.3083 89.3879 46.3758 89.3547L46.8826 89.1034V87.6564C46.8826 87.59 46.9457 87.5361 47.0226 87.5361C47.0999 87.5361 47.163 87.59 47.163 87.6564V88.964L47.529 88.7825C47.5508 88.7715 47.5748 88.766 47.5988 88.766C47.6469 88.766 47.6942 88.7876 47.7201 88.8266C47.7587 88.8841 47.7358 88.9576 47.6686 88.9908L47.163 89.2418V90.4836L47.5286 90.3023C47.5508 90.291 47.5748 90.2859 47.5985 90.2859C47.6465 90.2859 47.6938 90.3075 47.7197 90.3465C47.7584 90.4036 47.7358 90.4771 47.6686 90.5104L47.163 90.7613V92.0028L47.5283 91.8216C47.5504 91.8106 47.5748 91.8054 47.5985 91.8054C47.6465 91.8054 47.6934 91.8267 47.7193 91.8657C47.758 91.9232 47.7351 91.9967 47.6683 92.0299L47.163 92.2805V93.5221L47.5279 93.3411C47.5497 93.3301 47.5741 93.3247 47.5977 93.3247C47.6457 93.3247 47.693 93.3463 47.7189 93.3853C47.7576 93.4424 47.7347 93.5159 47.6679 93.5491L47.163 93.7998V95.0416L47.5275 94.8607C47.5497 94.8497 47.5733 94.8445 47.5973 94.8445C47.6454 94.8445 47.6927 94.8661 47.7186 94.9048C47.7572 94.9623 47.7343 95.0358 47.6675 95.069L47.163 95.319V96.5608L47.5271 96.3802C47.5493 96.3692 47.5733 96.3638 47.5969 96.3638C47.645 96.3638 47.6923 96.3854 47.7182 96.4241C47.7569 96.4815 47.734 96.5553 47.6671 96.5882L47.163 96.8385V98.0801L47.5268 97.8994C47.5485 97.8885 47.5726 97.8833 47.5966 97.8833C47.6446 97.8833 47.6919 97.9046 47.7178 97.9436C47.7565 98.001 47.7336 98.0746 47.6668 98.1078L47.1619 98.3581C47.1499 98.7719 47.1548 99.1845 47.1724 99.5948L47.5264 99.4193C47.5482 99.4083 47.5722 99.4032 47.5962 99.4032C47.6442 99.4032 47.6915 99.4245 47.7174 99.4635C47.7561 99.5206 47.7332 99.5941 47.666 99.6277L47.184 99.8664C47.2133 100.354 47.2617 100.837 47.3323 101.313C47.3421 101.379 47.288 101.439 47.2111 101.448L47.1934 101.448" fill="#858889"/>
<path d="M47.9795 104.448C47.9115 104.448 47.8447 104.418 47.8087 104.364C47.7539 104.282 47.7862 104.179 47.8808 104.132L62.9227 96.6695V97.0614L48.0782 104.426L47.9795 104.448Z" fill="#858889"/>
<path d="M48.5985 105.856C48.5305 105.856 48.4641 105.825 48.4273 105.771C48.3729 105.69 48.4052 105.586 48.4998 105.539L62.9223 98.3838V98.7757L48.6972 105.833L48.5985 105.856Z" fill="#858889"/>
<path d="M49.3626 107.204C49.2946 107.204 49.2278 107.174 49.1914 107.12C49.1366 107.038 49.1693 106.934 49.2635 106.888L62.9217 100.112V100.504L49.4613 107.182L49.3626 107.204" fill="#858889"/>
<path d="M50.2646 108.489C50.1967 108.489 50.1302 108.458 50.0938 108.404C50.039 108.322 50.0713 108.219 50.1659 108.172L62.9214 101.844V102.236L50.3637 108.466L50.2646 108.489Z" fill="#858889"/>
<path d="M76.7052 83.6005L101.626 71.2393C102.571 70.7703 104.076 70.492 104.924 70.7861C105.771 71.08 105.609 71.8409 104.664 72.3095L79.4526 84.8146C78.5074 85.2833 77.1631 85.3327 76.4101 84.9833C75.6575 84.6343 75.7603 84.0692 76.7052 83.6005Z" fill="#70D294"/>
<path d="M79.595 86.9993C79.527 86.9993 79.4602 86.9689 79.4242 86.9144C79.3694 86.8332 79.4016 86.7296 79.4962 86.6828L108.22 72.435C108.252 72.4195 108.285 72.4121 108.319 72.4121C108.387 72.4121 108.454 72.4427 108.49 72.4973C108.545 72.5785 108.512 72.6821 108.418 72.7288L79.6937 86.9764L79.595 86.9993" fill="#898B8C"/>
<path d="M80.7846 88.1028C80.717 88.1028 80.6502 88.0721 80.6138 88.0176C80.559 87.9363 80.5916 87.8328 80.6858 87.786L109.455 73.5169C109.486 73.5014 109.52 73.494 109.554 73.494C109.622 73.494 109.688 73.5243 109.725 73.5788C109.779 73.6601 109.747 73.764 109.653 73.8108L80.8833 88.0799L80.7846 88.1028" fill="#898B8C"/>
<path d="M85.5479 100.722H85.5475C85.4702 100.721 85.4078 100.668 85.4078 100.601L85.4131 99.2915C85.4176 98.3051 85.4176 98.3051 85.3846 97.6387L85.3786 97.5284C85.2693 95.9305 84.9251 94.4283 84.3553 93.0652C83.8545 91.7705 83.008 90.4996 81.7659 89.1778C81.7171 89.1259 81.7265 89.0504 81.7865 89.0085C81.8124 88.9907 81.844 88.982 81.8748 88.982C81.9157 88.982 81.9562 88.9972 81.9836 89.0265C83.2479 90.3716 84.1098 91.667 84.6195 92.9868C85.1973 94.3687 85.5475 95.8931 85.6586 97.5161L85.6642 97.6284C85.6976 98.3006 85.6976 98.3006 85.6928 99.2924L85.6879 100.602C85.6875 100.668 85.6248 100.722 85.5479 100.722" fill="#898B8C"/>
<path d="M85.2592 90.4207C85.1316 90.2274 84.9935 90.0381 84.8463 89.8513C84.6935 89.6568 84.7525 89.4098 84.989 89.2927L95.9651 83.848C96.2012 83.7306 96.5218 83.7899 96.6641 83.9902C96.7962 84.176 96.9212 84.3708 97.0436 84.5753C97.1682 84.784 97.0714 85.0508 96.8349 85.1679L85.9195 90.5826C85.6834 90.6997 85.3944 90.6242 85.2592 90.4207" fill="#70D294"/>
<path d="M86.3274 92.5931C86.4096 92.8099 86.4851 93.0244 86.5534 93.2366C86.6262 93.4624 86.8694 93.5524 87.1056 93.435L113.147 80.5186C113.383 80.4015 113.522 80.1219 113.45 79.8958C113.378 79.6716 113.304 79.4568 113.228 79.2504C113.144 79.0268 112.879 78.943 112.642 79.06L86.5965 91.979C86.3601 92.0961 86.2429 92.3705 86.3274 92.5931" fill="#70D294"/>
<path d="M86.8973 93.4866C86.7396 93.4866 86.6045 93.395 86.5534 93.2366C86.4851 93.0244 86.4097 92.8099 86.3275 92.5931C86.3091 92.5444 86.3 92.4934 86.3 92.4418C86.3 92.258 86.4119 92.0706 86.5966 91.979L112.642 79.06C112.715 79.0242 112.79 79.0075 112.861 79.0075C113.024 79.0075 113.17 79.0952 113.228 79.2503C113.304 79.4568 113.378 79.6716 113.45 79.8958C113.463 79.9364 113.469 79.9787 113.469 80.0216C113.469 80.217 113.341 80.4225 113.147 80.5186L87.1056 93.435C87.0354 93.4698 86.9641 93.4866 86.8973 93.4866" fill="#A1DFD6"/>
<path d="M87.0857 95.5706C87.1195 95.8087 87.1476 96.0409 87.169 96.2657C87.1908 96.4993 87.392 96.5944 87.6281 96.477L105.27 87.7271C105.506 87.61 105.686 87.3249 105.664 87.0914C105.642 86.8588 105.614 86.6278 105.581 86.3985C105.547 86.1659 105.322 86.0731 105.086 86.1901L87.4494 94.9378C87.2133 95.0552 87.0523 95.3381 87.0857 95.5706" fill="#70D294"/>
<path d="M87.434 96.5273C87.2899 96.5273 87.184 96.4315 87.1686 96.2658C87.1472 96.0409 87.1191 95.8087 87.0853 95.5707C87.0823 95.5507 87.0808 95.5303 87.0808 95.5097C87.0804 95.2907 87.2332 95.0452 87.4491 94.9378L105.086 86.1901C105.155 86.1556 105.223 86.1395 105.286 86.1395C105.437 86.1395 105.557 86.234 105.58 86.3985C105.614 86.6279 105.642 86.8588 105.664 87.0914C105.665 87.1039 105.665 87.1168 105.665 87.1301C105.666 87.3555 105.493 87.6165 105.269 87.7271L87.6277 96.477C87.559 96.5112 87.4934 96.5273 87.434 96.5273Z" fill="#19B19D"/>
<path d="M87.2295 98.6616V99.3435C87.2295 99.5777 87.4213 99.6728 87.6574 99.5554L95.2101 95.8093C95.4462 95.6922 95.638 95.4074 95.638 95.1729V94.491C95.638 94.2565 95.4462 94.1613 95.2101 94.2787L87.6574 98.0249C87.4209 98.1423 87.2295 98.4274 87.2295 98.6616Z" fill="#70D294"/>
<path d="M87.4664 99.6057C87.326 99.6057 87.2295 99.5096 87.2295 99.3435V98.6616C87.2295 98.4274 87.4209 98.1423 87.6574 98.0249L95.2101 94.2787C95.2788 94.2445 95.3434 94.2284 95.4012 94.2284C95.5416 94.2284 95.638 94.3245 95.638 94.491V95.1729C95.638 95.4074 95.4462 95.6922 95.2101 95.8093L87.6574 99.5554C87.5887 99.5896 87.5238 99.6057 87.4664 99.6057Z" fill="#70CEC3"/>
<path d="M87.094 102.191C87.0455 102.191 86.9986 102.17 86.9727 102.131C86.9344 102.074 86.957 102 87.0242 101.967L88.7712 101.101V100.603C88.7712 100.536 88.8342 100.483 88.9112 100.483C88.9885 100.483 89.0512 100.536 89.0512 100.603V100.962L91.0648 99.9632V99.4574C91.0648 99.3913 91.1274 99.3371 91.2048 99.3371C91.2817 99.3371 91.3448 99.3913 91.3448 99.4574V99.8242L93.3576 98.8259V98.3124C93.3576 98.2463 93.4203 98.1921 93.4976 98.1921C93.5749 98.1921 93.6376 98.2463 93.6376 98.3124V98.6869L95.6508 97.6886V97.1673C95.6508 97.1012 95.7139 97.047 95.7908 97.047C95.8681 97.047 95.9308 97.1012 95.9308 97.1673V97.5495L97.9436 96.5512V96.0219C97.9436 95.9558 98.0067 95.9016 98.084 95.9016C98.161 95.9016 98.224 95.9558 98.224 96.0219V96.4122L100.237 95.4139V94.8769C100.237 94.8107 100.3 94.7565 100.377 94.7565C100.454 94.7565 100.517 94.8107 100.517 94.8769V95.2749L102.53 94.2766V93.7321C102.53 93.6657 102.593 93.6118 102.67 93.6118C102.747 93.6118 102.81 93.6657 102.81 93.7321V94.1376L104.823 93.1393V92.5871C104.823 92.5206 104.886 92.4667 104.963 92.4667C105.04 92.4667 105.103 92.5206 105.103 92.5871V93.0002L107.117 92.0016V91.4417C107.117 91.3755 107.18 91.3214 107.257 91.3214C107.334 91.3214 107.397 91.3755 107.397 91.4417V91.8629L109.41 90.8646V90.2966C109.41 90.2305 109.473 90.1763 109.55 90.1763C109.627 90.1763 109.69 90.2305 109.69 90.2966V90.7256L111.702 89.7273V89.1515C111.702 89.0854 111.766 89.0312 111.843 89.0312C111.92 89.0312 111.983 89.0854 111.983 89.1515V89.5883L113.996 88.59V88.0065C113.996 87.94 114.059 87.8858 114.136 87.8858C114.213 87.8858 114.276 87.94 114.276 88.0065V89.2702C114.276 89.3367 114.213 89.3909 114.136 89.3909C114.059 89.3909 113.996 89.3367 113.996 89.2702V88.8674L111.983 89.8657V90.4159C111.983 90.4821 111.92 90.5363 111.843 90.5363C111.766 90.5363 111.702 90.4821 111.702 90.4159V90.0047L109.69 91.003V91.5607C109.69 91.6271 109.627 91.681 109.55 91.681C109.473 91.681 109.41 91.6271 109.41 91.5607V91.142L107.397 92.1403V92.7057C107.397 92.7722 107.334 92.8261 107.257 92.8261C107.18 92.8261 107.117 92.7722 107.117 92.7057V92.2793L105.103 93.278V93.8508C105.103 93.9169 105.04 93.9711 104.963 93.9711C104.886 93.9711 104.823 93.9169 104.823 93.8508V93.417L102.81 94.415V94.9962C102.81 95.0623 102.747 95.1165 102.67 95.1165C102.593 95.1165 102.53 95.0623 102.53 94.9962V94.5543L100.517 95.5526V96.1413C100.517 96.2074 100.454 96.2616 100.377 96.2616C100.3 96.2616 100.237 96.2074 100.237 96.1413V95.6913L98.224 96.6899V97.286C98.224 97.3525 98.161 97.4066 98.084 97.4066C98.0067 97.4066 97.9436 97.3525 97.9436 97.286V96.8286L95.9308 97.8273V98.4317C95.9308 98.4978 95.8681 98.552 95.7908 98.552C95.7139 98.552 95.6508 98.4978 95.6508 98.4317V97.966L93.6376 98.9643V99.5765C93.6376 99.6429 93.5749 99.6968 93.4976 99.6968C93.4203 99.6968 93.3576 99.6429 93.3576 99.5765V99.1033L91.3448 100.102V100.722C91.3448 100.788 91.2817 100.842 91.2048 100.842C91.1274 100.842 91.0648 100.788 91.0648 100.722V100.241L89.0512 101.239V101.867C89.0512 101.933 88.9885 101.987 88.9112 101.987C88.8342 101.987 88.7712 101.933 88.7712 101.867V101.378L87.1638 102.175L87.094 102.191" fill="#898B8C"/>
<path d="M92.0629 103.752C91.6005 103.837 91.1065 104.004 90.5967 104.262C87.8106 105.667 85.5542 109.185 85.5542 112.119C85.5542 112.197 85.5542 112.272 85.5583 112.347L90.5926 110.367L92.0629 103.752" fill="#70D294"/>
<path d="M92.0634 103.753L90.593 110.367L95.5845 107.879C95.6201 107.61 95.6393 107.342 95.6393 107.077C95.6393 104.663 94.134 103.379 92.0634 103.753" fill="#70D294"/>
<path d="M94.9519 110.109C95.2721 109.373 95.4936 108.615 95.5845 107.879L90.593 110.367L94.9519 110.109Z" fill="#70D294"/>
<path d="M85.5583 112.347C85.6728 115.121 87.8861 116.279 90.5967 114.934C92.4582 114.011 94.0821 112.137 94.9515 110.109L90.5926 110.367L85.5583 112.347" fill="#70D294"/>
<path d="M90.593 110.367L92.0634 103.753C92.3014 103.71 92.5311 103.689 92.7526 103.689C94.4594 103.689 95.6393 104.94 95.6393 107.077C95.6393 107.342 95.6201 107.61 95.5845 107.879L90.593 110.367" fill="#A1DFD6"/>
<path d="M90.593 110.367L95.5845 107.879C95.4936 108.615 95.2721 109.373 94.9519 110.109L90.593 110.367Z" fill="#19B19D"/>
<path d="M88.4522 115.495C86.802 115.495 85.6406 114.337 85.5583 112.347L90.5926 110.367L94.9515 110.109C94.0821 112.136 92.4582 114.011 90.5967 114.934C89.8298 115.315 89.1031 115.495 88.4522 115.495" fill="#70CEC3"/>
<path d="M92.0631 103.753L92.0218 103.587C91.5357 103.676 91.0226 103.85 90.4967 104.116V104.116C89.0623 104.84 87.7849 106.093 86.8581 107.536C85.9324 108.979 85.3577 110.615 85.3569 112.119C85.3569 112.198 85.3569 112.275 85.3611 112.355C85.3641 112.411 85.3997 112.463 85.4557 112.492C85.5116 112.521 85.5814 112.525 85.6407 112.501L90.675 110.522C90.7331 110.499 90.7748 110.453 90.7868 110.399L92.2572 103.785C92.2696 103.729 92.2486 103.671 92.2013 103.631C92.154 103.592 92.0864 103.575 92.0218 103.587L92.0631 103.753L91.8691 103.721L90.4178 110.249L85.4763 112.193L85.5585 112.347L85.756 112.339C85.7522 112.27 85.7522 112.198 85.7522 112.119C85.7515 110.69 86.3048 109.1 87.2038 107.7C88.1017 106.299 89.3454 105.089 90.6967 104.409H90.6971C91.1911 104.159 91.6652 104 92.1044 103.919L92.0631 103.753L91.8691 103.721L92.0631 103.753" fill="white"/>
<path d="M92.0633 103.752L91.8692 103.72L90.3988 110.335C90.3842 110.4 90.4154 110.467 90.4788 110.505C90.5419 110.544 90.6252 110.547 90.692 110.514L95.6835 108.025C95.7379 107.998 95.7735 107.951 95.7807 107.897C95.8171 107.623 95.837 107.349 95.837 107.076C95.8366 105.982 95.5359 105.098 94.9939 104.479C94.4537 103.859 93.6628 103.516 92.7528 103.519C92.5167 103.519 92.2727 103.541 92.0227 103.586C91.9447 103.6 91.8842 103.653 91.8692 103.72L92.0633 103.752L92.1038 103.918C92.329 103.878 92.546 103.858 92.7528 103.858C93.5494 103.86 94.2018 104.143 94.6782 104.683C95.153 105.224 95.4421 106.034 95.4417 107.076C95.4417 107.334 95.4229 107.596 95.388 107.859L95.5844 107.878L95.4852 107.731L90.8681 110.033L92.2573 103.784L92.0633 103.752L92.1038 103.918L92.0633 103.752" fill="white"/>
<path d="M94.9518 110.109L95.1372 110.168C95.4619 109.42 95.6879 108.649 95.7806 107.896C95.7885 107.832 95.7543 107.77 95.6916 107.735C95.6293 107.701 95.5494 107.699 95.4852 107.731L90.4937 110.22C90.4141 110.26 90.377 110.341 90.404 110.417C90.431 110.492 90.5147 110.542 90.6063 110.536L94.9657 110.278C95.0426 110.274 95.1098 110.231 95.1372 110.168L94.9518 110.109L94.9382 109.939L91.4269 110.147L95.6834 108.025L95.5843 107.878L95.388 107.86C95.299 108.58 95.0816 109.324 94.7667 110.049L94.9518 110.109L94.9382 109.939L94.9518 110.109" fill="white"/>
<path d="M85.5584 112.347L85.361 112.353C85.4034 113.375 85.7221 114.198 86.2638 114.774C86.8039 115.35 87.5731 115.666 88.4523 115.665C89.146 115.665 89.9057 115.473 90.6955 115.082C92.6122 114.128 94.2519 112.227 95.137 110.168C95.1603 110.114 95.1498 110.054 95.11 110.008C95.0698 109.962 95.0049 109.936 94.9381 109.94L90.5792 110.198L90.5105 110.213L85.4762 112.193C85.4034 112.222 85.358 112.285 85.361 112.353L85.5584 112.347L85.6406 112.502L90.6422 110.535L94.9655 110.279L94.9516 110.109L94.7665 110.051C93.9125 112.046 92.304 113.894 90.4981 114.787C89.7544 115.156 89.0604 115.325 88.4523 115.325C87.6812 115.324 87.0449 115.061 86.5708 114.56C86.0986 114.059 85.7957 113.31 85.7559 112.341L85.5584 112.347L85.6406 112.502L85.5584 112.347" fill="white"/>
<path d="M106.811 96.7538C105.171 98.4517 104.049 100.822 104.049 102.907C104.049 103.854 104.282 104.632 104.685 105.202L109.091 100.401L106.811 96.7538" fill="#70D294"/>
<path d="M111.367 94.4828C110.683 94.4554 109.909 94.6322 109.091 95.0396C108.269 95.4473 107.494 96.0414 106.811 96.7543L109.091 100.401L111.367 94.4828Z" fill="#70D294"/>
<path d="M113.667 95.8682C113.189 95.0125 112.374 94.5235 111.367 94.4828L109.091 100.401L113.667 95.8682Z" fill="#70D294"/>
<path d="M113.667 95.8684L109.091 100.402L104.685 105.203C105.55 106.412 107.198 106.704 109.091 105.763C111.877 104.381 114.137 100.86 114.137 97.8953C114.137 97.0873 113.968 96.4048 113.667 95.8684" fill="#70D294"/>
<path d="M109.091 100.401L106.811 96.7543C107.494 96.0414 108.269 95.4473 109.091 95.0396C109.855 94.6593 110.58 94.4799 111.229 94.4799C111.275 94.4799 111.322 94.4809 111.367 94.4828L109.091 100.401Z" fill="#A1DFD6"/>
<path d="M109.091 100.401L111.367 94.4828C112.374 94.5235 113.189 95.0125 113.667 95.8682L109.091 100.401Z" fill="#19B19D"/>
<path d="M106.96 106.32C105.999 106.32 105.202 105.925 104.685 105.203L109.091 100.401L113.667 95.8683C113.968 96.4047 114.137 97.0872 114.137 97.8952C114.137 100.86 111.877 104.381 109.091 105.763C108.329 106.141 107.608 106.32 106.96 106.32Z" fill="#70CEC3"/>
<path d="M106.811 96.7538L106.659 96.6454C104.992 98.3743 103.853 100.77 103.851 102.907C103.851 103.878 104.089 104.686 104.516 105.29C104.55 105.338 104.608 105.368 104.673 105.372C104.737 105.375 104.8 105.351 104.84 105.307L109.246 100.506C109.295 100.453 109.302 100.38 109.265 100.32L106.985 96.6735C106.954 96.6241 106.896 96.5906 106.831 96.5851C106.765 96.5793 106.7 96.6022 106.659 96.6454L106.811 96.7538L106.637 96.8341L108.855 100.383L104.53 105.097L104.685 105.202L104.854 105.114C104.474 104.578 104.246 103.831 104.246 102.907C104.244 100.874 105.35 98.5291 106.963 96.8622L106.811 96.7538L106.637 96.8341L106.811 96.7538" fill="white"/>
<path d="M111.366 94.4831L111.375 94.3134C111.327 94.3115 111.278 94.3105 111.229 94.3105C110.537 94.3109 109.778 94.5009 108.991 94.8931H108.991C108.144 95.313 107.354 95.9211 106.658 96.6468C106.607 96.6997 106.598 96.7745 106.636 96.8348L108.916 100.482C108.953 100.541 109.029 100.576 109.107 100.571C109.186 100.565 109.253 100.519 109.278 100.455L111.554 94.5363C111.574 94.4857 111.564 94.4309 111.529 94.387C111.494 94.3428 111.437 94.316 111.375 94.3134L111.366 94.4831L111.179 94.4299L109.047 99.9733L106.984 96.6742L106.81 96.7545L106.962 96.8626C107.634 96.1623 108.393 95.5817 109.189 95.1869H109.189C109.93 94.8179 110.622 94.6499 111.229 94.6502C111.272 94.6502 111.315 94.6508 111.357 94.6528L111.366 94.4831L111.179 94.4299L111.366 94.4831" fill="white"/>
<path d="M113.667 95.8685L113.845 95.795C113.346 94.8934 112.456 94.3541 111.377 94.3135C111.288 94.3099 111.207 94.3573 111.18 94.4299L108.904 100.348C108.874 100.425 108.912 100.509 108.993 100.549C109.076 100.589 109.179 100.574 109.24 100.513L113.816 95.9798C113.868 95.9285 113.879 95.8559 113.845 95.795L113.667 95.8685L113.518 95.7572L109.588 99.6498L111.555 94.5364L111.367 94.4831L111.358 94.6528C112.294 94.6938 113.032 95.1321 113.489 95.9421L113.667 95.8685L113.518 95.7572L113.667 95.8685" fill="white"/>
<path d="M113.667 95.8685L113.517 95.7572L108.941 100.29L108.935 100.297L104.53 105.098C104.478 105.154 104.473 105.231 104.516 105.292C105.061 106.059 105.934 106.493 106.96 106.49C107.65 106.49 108.405 106.3 109.19 105.91C110.625 105.197 111.904 103.95 112.832 102.505C113.758 101.059 114.334 99.4147 114.335 97.8955C114.335 97.0671 114.161 96.3598 113.845 95.795C113.816 95.7431 113.759 95.7079 113.693 95.7002C113.627 95.6927 113.561 95.714 113.517 95.7572L113.667 95.8685L113.489 95.9421C113.774 96.4504 113.94 97.1078 113.939 97.8955C113.94 99.3408 113.386 100.939 112.485 102.341C111.587 103.743 110.343 104.947 108.992 105.616C108.253 105.983 107.565 106.151 106.96 106.151C106.063 106.148 105.342 105.792 104.853 105.114L104.685 105.203L104.84 105.308L109.243 100.51L113.816 95.9798L113.667 95.8685L113.489 95.9421L113.667 95.8685" fill="white"/>
<path d="M97.748 100.679L98.5742 100.269C98.8103 100.152 99.0018 100.247 99.0018 100.481V101.163C99.0018 101.398 98.8107 101.683 98.5742 101.799L97.7484 102.209C97.5119 102.327 97.3204 102.231 97.3204 101.997L97.3201 101.315C97.3201 101.081 97.5119 100.796 97.748 100.679Z" fill="#70D294"/>
<path d="M97.748 103.737L98.5742 103.328C98.8103 103.21 99.0018 103.306 99.0018 103.54V104.222C99.0018 104.456 98.8107 104.741 98.5742 104.858L97.7484 105.268C97.5119 105.385 97.3204 105.29 97.3204 105.056L97.3201 104.374C97.3201 104.139 97.5119 103.855 97.748 103.737Z" fill="#70D294"/>
<path d="M97.5569 105.318C97.4165 105.318 97.3204 105.222 97.3204 105.056L97.3201 104.374C97.3201 104.14 97.5119 103.855 97.748 103.738L98.5742 103.328C98.6429 103.294 98.7075 103.278 98.7653 103.278C98.9053 103.278 99.0018 103.374 99.0018 103.54V104.222C99.0018 104.456 98.8107 104.741 98.5742 104.858L97.7484 105.268C97.6797 105.302 97.6147 105.318 97.5569 105.318" fill="#A1DFD6"/>
<path d="M97.748 106.796L98.5742 106.386C98.8103 106.269 99.0018 106.364 99.0018 106.599V107.281C99.0018 107.515 98.8107 107.8 98.5742 107.917L97.7484 108.327C97.5119 108.444 97.3204 108.349 97.3204 108.114L97.3201 107.433C97.3201 107.198 97.5119 106.913 97.748 106.796Z" fill="#70D294"/>
<path d="M97.5573 108.377C97.4165 108.377 97.3204 108.281 97.3204 108.114L97.3201 107.433C97.3201 107.198 97.5119 106.913 97.748 106.796L98.5742 106.386C98.6425 106.352 98.7075 106.336 98.7649 106.336C98.9053 106.336 99.0018 106.432 99.0018 106.599V107.281C99.0018 107.515 98.8107 107.8 98.5742 107.917L97.7484 108.327C97.6797 108.361 97.6147 108.377 97.5573 108.377Z" fill="#19B19D"/>
<path d="M97.748 109.855L98.5742 109.445C98.8103 109.328 99.0018 109.423 99.0018 109.658V110.339C99.0018 110.574 98.8107 110.859 98.5742 110.976L97.7484 111.385C97.5119 111.503 97.3204 111.408 97.3204 111.173L97.3201 110.492C97.3201 110.257 97.5119 109.972 97.748 109.855Z" fill="#70D294"/>
<path d="M97.5569 111.436C97.4165 111.436 97.3204 111.34 97.3204 111.173L97.3201 110.492C97.3201 110.257 97.5119 109.972 97.748 109.855L98.5742 109.445C98.6429 109.411 98.7075 109.395 98.7653 109.395C98.9053 109.395 99.0018 109.491 99.0018 109.658V110.339C99.0018 110.574 98.8107 110.859 98.5742 110.976L97.7484 111.385C97.6797 111.42 97.6147 111.436 97.5569 111.436" fill="#70CEC3"/>
<path d="M99.8506 100.608C99.7537 100.608 99.6595 100.565 99.6081 100.488C99.5304 100.373 99.5765 100.225 99.7102 100.159L102.224 98.9122C102.268 98.8902 102.316 98.8799 102.364 98.8799C102.461 98.8799 102.555 98.9228 102.607 98.9999C102.684 99.1151 102.638 99.2625 102.504 99.3286L99.9902 100.576C99.9463 100.597 99.8979 100.608 99.8506 100.608Z" fill="#898B8C"/>
<path d="M99.8124 103.698C99.7156 103.698 99.6214 103.655 99.5696 103.578C99.4919 103.463 99.5377 103.315 99.6721 103.249L102.186 102.002C102.23 101.98 102.278 101.97 102.326 101.97C102.422 101.97 102.517 102.013 102.568 102.09C102.646 102.205 102.6 102.352 102.466 102.418L99.9521 103.665C99.9078 103.687 99.8597 103.698 99.8124 103.698" fill="#898B8C"/>
<path d="M99.773 106.787C99.6762 106.787 99.5819 106.744 99.5305 106.667C99.4532 106.552 99.499 106.405 99.6326 106.338L102.147 105.092C102.191 105.07 102.239 105.059 102.287 105.059C102.383 105.059 102.477 105.102 102.529 105.179C102.607 105.295 102.561 105.442 102.427 105.508L99.913 106.755C99.8687 106.777 99.8207 106.787 99.773 106.787" fill="#898B8C"/>
<path d="M99.7348 109.876C99.638 109.876 99.5438 109.834 99.4916 109.756C99.4143 109.641 99.4604 109.494 99.5944 109.427L102.108 108.181C102.152 108.16 102.201 108.149 102.248 108.149C102.345 108.149 102.439 108.192 102.491 108.269C102.568 108.384 102.522 108.531 102.388 108.598L99.8745 109.845C99.8298 109.866 99.7825 109.876 99.7348 109.876Z" fill="#898B8C"/>
<path d="M85.8679 120.746C85.771 120.746 85.6768 120.703 85.625 120.626C85.5477 120.51 85.5935 120.363 85.7275 120.297L97.4991 114.459C97.5434 114.437 97.5918 114.427 97.6391 114.427C97.7359 114.427 97.8294 114.47 97.8816 114.547C97.9589 114.662 97.9127 114.809 97.7791 114.876L86.0075 120.714C85.9632 120.735 85.9152 120.746 85.8679 120.746Z" fill="#898B8C"/>
<path d="M86.2475 122.243C86.151 122.243 86.0568 122.2 86.0046 122.123C85.9273 122.008 85.9731 121.861 86.1071 121.794L97.8783 115.957C97.923 115.935 97.9714 115.924 98.0191 115.924C98.1159 115.924 98.2094 115.967 98.2612 116.044C98.3385 116.16 98.2927 116.307 98.1587 116.373L86.3871 122.211C86.3428 122.233 86.2952 122.243 86.2475 122.243" fill="#898B8C"/>
<path d="M86.7897 123.692C86.6929 123.692 86.5987 123.648 86.5469 123.571C86.4695 123.456 86.5153 123.309 86.6493 123.242L98.4209 117.405C98.4652 117.383 98.5137 117.373 98.5613 117.373C98.6582 117.373 98.7513 117.415 98.8034 117.493C98.8804 117.608 98.8346 117.755 98.701 117.822L86.9294 123.659C86.8851 123.681 86.837 123.692 86.7897 123.692Z" fill="#898B8C"/>
<path d="M104.345 111.583C104.248 111.583 104.154 111.54 104.102 111.463C104.024 111.348 104.07 111.2 104.204 111.134L115.976 105.296C116.02 105.274 116.068 105.264 116.116 105.264C116.213 105.264 116.307 105.307 116.358 105.384C116.436 105.499 116.39 105.646 116.256 105.713L104.484 111.55C104.44 111.572 104.392 111.583 104.345 111.583" fill="#898B8C"/>
<path d="M104.724 113.081C104.627 113.081 104.533 113.038 104.481 112.96C104.404 112.845 104.45 112.698 104.584 112.632L116.355 106.794C116.4 106.772 116.448 106.761 116.496 106.761C116.592 106.761 116.686 106.805 116.738 106.882C116.815 106.997 116.769 107.144 116.635 107.211L104.864 113.049C104.82 113.07 104.772 113.081 104.724 113.081Z" fill="#898B8C"/>
<path d="M105.266 114.528C105.169 114.528 105.075 114.485 105.023 114.408C104.946 114.293 104.991 114.145 105.126 114.079L116.897 108.241C116.942 108.219 116.99 108.209 117.037 108.209C117.134 108.209 117.228 108.252 117.28 108.329C117.357 108.444 117.311 108.592 117.177 108.658L105.406 114.496C105.362 114.518 105.313 114.528 105.266 114.528" fill="#898B8C"/>
<path d="M90.0208 125.333L116.858 112.025C117.802 111.556 118.969 111.763 119.546 112.439C120.122 113.115 119.887 113.999 118.942 114.468L92.0956 127.78C91.1503 128.249 89.8504 128.126 89.2765 127.449C88.7021 126.772 89.0756 125.802 90.0208 125.333Z" fill="#70D294"/>
<path d="M94.449 131.854C94.3522 131.854 94.258 131.811 94.2058 131.734C94.1285 131.619 94.1743 131.472 94.3083 131.405L106.079 125.568C106.123 125.547 106.171 125.536 106.219 125.536C106.316 125.536 106.41 125.579 106.461 125.656C106.539 125.772 106.493 125.919 106.359 125.985L94.5887 131.822C94.544 131.844 94.4963 131.854 94.449 131.854" fill="#898B8C"/>
<path d="M92.9761 130.962C92.8793 130.962 92.7851 130.919 92.7329 130.842C92.6556 130.726 92.7014 130.579 92.8357 130.512L104.606 124.676C104.65 124.655 104.699 124.644 104.746 124.644C104.843 124.644 104.937 124.687 104.989 124.764C105.066 124.879 105.02 125.027 104.886 125.093L93.1158 130.93C93.0715 130.951 93.0234 130.962 92.9761 130.962Z" fill="#898B8C"/>
<path d="M95.9966 132.641C95.8998 132.641 95.8056 132.598 95.7534 132.521C95.6764 132.406 95.7222 132.259 95.8562 132.192L107.627 126.355C107.671 126.334 107.719 126.324 107.767 126.324C107.864 126.324 107.957 126.366 108.01 126.444C108.087 126.558 108.041 126.706 107.907 126.772L96.1367 132.609C96.0916 132.631 96.0443 132.641 95.9966 132.641Z" fill="#898B8C"/>
<path d="M111.254 123.521C111.157 123.521 111.063 123.478 111.011 123.4C110.934 123.285 110.98 123.138 111.114 123.071L122.884 117.235C122.929 117.213 122.977 117.203 123.025 117.203C123.122 117.203 123.215 117.246 123.267 117.323C123.345 117.438 123.298 117.585 123.165 117.652L111.394 123.489C111.35 123.51 111.302 123.521 111.254 123.521" fill="#898B8C"/>
<path d="M109.782 122.628C109.684 122.628 109.59 122.585 109.538 122.508C109.461 122.393 109.507 122.246 109.641 122.179L121.411 116.342C121.456 116.321 121.504 116.311 121.551 116.311C121.648 116.311 121.742 116.353 121.794 116.431C121.871 116.546 121.825 116.693 121.692 116.759L109.921 122.596C109.877 122.618 109.829 122.628 109.782 122.628Z" fill="#898B8C"/>
<path d="M112.802 124.308C112.705 124.308 112.611 124.265 112.559 124.188C112.482 124.072 112.528 123.925 112.662 123.859L124.432 118.022C124.477 118 124.525 117.99 124.572 117.99C124.669 117.99 124.763 118.033 124.815 118.11C124.892 118.225 124.846 118.372 124.712 118.439L112.942 124.276C112.897 124.297 112.85 124.308 112.802 124.308" fill="#898B8C"/>
<path d="M111.239 135.727C109.249 136.713 106.156 136.779 104.331 135.873C102.505 134.967 102.638 133.433 104.629 132.446C106.619 131.459 109.712 131.394 111.537 132.3C113.363 133.206 113.229 134.74 111.239 135.727M112.979 131.585C110.423 130.317 106.092 130.408 103.306 131.79C100.52 133.172 100.334 135.32 102.889 136.588C105.445 137.856 109.776 137.764 112.561 136.383C115.347 135.001 115.534 132.853 112.979 131.585" fill="#70D294"/>
<path d="M105.951 133.102C107.145 132.51 109.001 132.471 110.096 133.014C111.192 133.558 111.112 134.479 109.918 135.071C108.723 135.663 106.868 135.702 105.773 135.159C104.677 134.615 104.758 133.694 105.951 133.102" fill="#70D294"/>
<path d="M107.682 135.542C106.976 135.542 106.289 135.415 105.773 135.159C105.254 134.902 105 134.56 105.001 134.21C105.002 133.818 105.322 133.415 105.951 133.102C106.581 132.79 107.397 132.631 108.187 132.631C108.893 132.631 109.579 132.758 110.096 133.014C110.614 133.271 110.869 133.613 110.868 133.963C110.867 134.355 110.547 134.759 109.917 135.071C109.287 135.383 108.472 135.542 107.682 135.542" fill="#0B7465"/>
<path d="M107.346 137.482C105.698 137.482 104.096 137.186 102.89 136.588C101.684 135.99 101.089 135.196 101.089 134.379C101.088 133.464 101.835 132.52 103.307 131.79C104.778 131.061 106.679 130.691 108.523 130.691C110.171 130.691 111.773 130.986 112.979 131.585C114.184 132.183 114.78 132.977 114.78 133.794C114.78 134.709 114.034 135.653 112.562 136.383C111.091 137.112 109.19 137.482 107.346 137.482M103.045 134.292C103.043 134.877 103.468 135.445 104.331 135.873C105.193 136.301 106.337 136.512 107.514 136.512C108.831 136.512 110.189 136.248 111.24 135.727C112.289 135.206 112.822 134.534 112.824 133.881C112.826 133.296 112.401 132.728 111.538 132.3C111.062 132.064 110.501 131.894 109.896 131.789L110.683 130.872C109.995 130.753 109.267 130.694 108.529 130.694C107.644 130.694 106.745 130.779 105.885 130.949L106.468 131.843C105.804 131.974 105.175 132.176 104.629 132.446C103.58 132.967 103.046 133.639 103.045 134.292Z" fill="#19B19D"/>
<path d="M105.886 130.949L106.47 131.846C107.594 131.624 108.814 131.603 109.895 131.791L110.683 130.872C109.169 130.609 107.461 130.638 105.886 130.949" fill="#70D294"/>
<path d="M106.47 131.846L106.469 131.843L105.886 130.949C106.745 130.779 107.644 130.694 108.53 130.694C109.267 130.694 109.995 130.753 110.683 130.872L109.897 131.789L109.895 131.791C109.404 131.705 108.885 131.663 108.36 131.663C107.727 131.663 107.084 131.724 106.47 131.846" fill="#A1DFD6"/>
<path d="M108.285 130.505L108.268 130.504C108.113 130.496 107.996 130.383 108.005 130.25L108.081 129.145L113.256 126.579C113.3 126.558 113.349 126.547 113.396 126.547C113.493 126.547 113.587 126.59 113.639 126.667C113.716 126.782 113.67 126.929 113.536 126.996L108.622 129.432L108.563 130.278C108.555 130.406 108.432 130.505 108.285 130.505Z" fill="#898B8C"/>
<path d="M126.369 128.228C124.38 129.214 121.286 129.28 119.461 128.374C117.635 127.468 117.769 125.934 119.759 124.947C121.749 123.96 124.842 123.895 126.668 124.801C128.493 125.706 128.359 127.241 126.369 128.228ZM128.109 124.086C125.553 122.818 121.223 122.91 118.437 124.291C115.65 125.673 115.464 127.82 118.02 129.089C120.575 130.357 124.905 130.265 127.692 128.884C130.478 127.502 130.665 125.354 128.109 124.086" fill="#70D294"/>
<path d="M121.081 125.604C122.275 125.011 124.131 124.972 125.227 125.515C126.322 126.059 126.242 126.98 125.047 127.572C123.854 128.164 121.998 128.203 120.902 127.66C119.807 127.116 119.887 126.196 121.081 125.604Z" fill="#70D294"/>
<path d="M122.812 128.043C122.106 128.043 121.419 127.916 120.902 127.66C120.385 127.403 120.129 127.062 120.13 126.711C120.132 126.319 120.451 125.916 121.081 125.604C121.711 125.291 122.527 125.132 123.317 125.132C124.023 125.132 124.709 125.259 125.227 125.515C125.744 125.772 125.999 126.113 125.998 126.464C125.997 126.856 125.677 127.26 125.047 127.572C124.417 127.884 123.602 128.043 122.812 128.043Z" fill="#0B7465"/>
<path d="M122.475 129.983C120.827 129.983 119.226 129.687 118.02 129.089C116.814 128.491 116.219 127.697 116.219 126.88C116.218 125.965 116.965 125.021 118.437 124.291C119.908 123.561 121.809 123.192 123.653 123.192C125.217 123.192 126.74 123.458 127.922 123.997C126.742 123.459 125.224 123.194 123.663 123.194C122.359 123.194 121.025 123.379 119.835 123.746L120.755 124.555C120.403 124.663 120.067 124.794 119.759 124.947C118.71 125.467 118.177 126.14 118.175 126.792C118.173 127.377 118.598 127.946 119.461 128.374C120.323 128.802 121.467 129.013 122.644 129.013C123.961 129.013 125.319 128.749 126.37 128.228C127.419 127.707 127.952 127.035 127.954 126.382C127.955 125.989 127.763 125.602 127.374 125.261L129.091 124.734C128.826 124.501 128.504 124.282 128.109 124.086C129.314 124.684 129.91 125.478 129.91 126.295C129.91 127.21 129.164 128.154 127.692 128.884C126.221 129.613 124.319 129.983 122.475 129.983M126.687 124.81C126.684 124.809 126.682 124.807 126.679 124.806C126.682 124.807 126.684 124.809 126.687 124.81ZM126.677 124.806C126.674 124.804 126.671 124.802 126.668 124.801C126.671 124.802 126.674 124.804 126.677 124.806ZM127.937 124.004C127.935 124.003 127.934 124.002 127.933 124.002C127.934 124.002 127.935 124.003 127.937 124.004Z" fill="#19B19D"/>
<path d="M128.109 124.086C125.95 123.014 122.526 122.918 119.835 123.746L120.759 124.557C122.681 123.966 125.126 124.035 126.668 124.801C126.951 124.941 127.18 125.097 127.369 125.263L129.092 124.734C128.827 124.502 128.505 124.283 128.109 124.086" fill="#70D294"/>
<path d="M127.369 125.263C127.18 125.097 126.951 124.941 126.668 124.801C125.808 124.374 124.667 124.164 123.493 124.164C122.562 124.164 121.609 124.296 120.759 124.557L120.756 124.555L119.835 123.746C121.026 123.379 122.36 123.194 123.664 123.194C125.308 123.194 126.906 123.489 128.109 124.086C128.505 124.283 128.827 124.502 129.092 124.734L127.374 125.262L127.369 125.263" fill="#A1DFD6"/>
<path d="M123.458 122.981L123.441 122.981C123.286 122.973 123.169 122.859 123.178 122.726L123.254 121.621L128.429 119.055C128.474 119.033 128.522 119.023 128.57 119.023C128.666 119.023 128.76 119.066 128.812 119.143C128.889 119.258 128.843 119.405 128.709 119.472L123.795 121.908L123.737 122.755C123.728 122.882 123.604 122.981 123.458 122.981" fill="#898B8C"/>
<path d="M109.879 139.531C109.782 139.531 109.688 139.487 109.636 139.41C109.559 139.295 109.605 139.148 109.739 139.081L138.325 124.907C138.37 124.885 138.419 124.875 138.466 124.875C138.563 124.875 138.657 124.918 138.708 124.995C138.786 125.11 138.74 125.257 138.605 125.324L110.019 139.498C109.974 139.52 109.926 139.531 109.879 139.531" fill="#898B8C"/>
<path d="M111.425 140.294C111.328 140.294 111.234 140.251 111.182 140.174C111.105 140.059 111.151 139.911 111.285 139.845L139.871 125.67C139.916 125.649 139.964 125.638 140.012 125.638C140.109 125.638 140.202 125.681 140.255 125.758C140.332 125.873 140.286 126.021 140.152 126.087L111.565 140.262C111.52 140.283 111.473 140.294 111.425 140.294Z" fill="#898B8C"/>
<path d="M112.968 141.059C112.871 141.059 112.777 141.016 112.725 140.939C112.647 140.824 112.693 140.677 112.828 140.61L141.414 126.435C141.459 126.414 141.507 126.404 141.555 126.404C141.652 126.404 141.745 126.446 141.797 126.523C141.874 126.639 141.829 126.786 141.695 126.852L113.108 141.027C113.063 141.049 113.015 141.059 112.968 141.059" fill="#898B8C"/>
</svg>
