<svg width="24" height="24" viewBox="0 0 24 24" fill="none" xmlns="http://www.w3.org/2000/svg">
<path d="M17.982 18.725C17.2833 17.7999 16.3793 17.0496 15.3412 16.5334C14.3031 16.0171 13.1594 15.7489 12 15.75C10.8407 15.7489 9.6969 16.0171 8.65883 16.5334C7.62077 17.0496 6.71675 17.7999 6.01801 18.725M17.981 18.725C19.3445 17.5122 20.3071 15.9136 20.7412 14.1411C21.1753 12.3686 21.0603 10.5061 20.4115 8.80048C19.7627 7.09487 18.6107 5.62678 17.1084 4.5909C15.6061 3.55502 13.8244 3.00029 11.9995 3.00029C10.1747 3.00029 8.39295 3.55502 6.89062 4.5909C5.38829 5.62678 4.23634 7.09487 3.58755 8.80048C2.93875 10.5061 2.82376 12.3686 3.25783 14.1411C3.6919 15.9136 4.65451 17.5122 6.01801 18.725M17.981 18.725C16.335 20.1932 14.2056 21.0031 12 21C9.79404 21.0034 7.66425 20.1934 6.01801 18.725M15 9.75C15 10.5456 14.6839 11.3087 14.1213 11.8713C13.5587 12.4339 12.7957 12.75 12 12.75C11.2044 12.75 10.4413 12.4339 9.87869 11.8713C9.31608 11.3087 9.00001 10.5456 9.00001 9.75C9.00001 8.95435 9.31608 8.19129 9.87869 7.62868C10.4413 7.06607 11.2044 6.75 12 6.75C12.7957 6.75 13.5587 7.06607 14.1213 7.62868C14.6839 8.19129 15 8.95435 15 9.75V9.75Z" stroke="#707B83" stroke-width="1.5" stroke-linecap="round" stroke-linejoin="round"/>
</svg>
