<svg width="33" height="23" viewBox="0 0 33 23" fill="none" xmlns="http://www.w3.org/2000/svg">
<path d="M11.808 0.416577L0.571701 10.2393C-0.191073 10.906 -0.191073 12.0917 0.571701 12.7583L11.808 22.5811C12.8899 23.5267 14.582 22.7588 14.582 21.3218L14.582 1.67584C14.582 0.239368 12.8899 -0.529037 11.808 0.416577" fill="white"/>
<path d="M18.746 19.3521C19.3985 19.3521 19.9277 18.8228 19.9277 18.1702C19.9277 17.5181 19.3985 16.9888 18.746 16.9888C18.0931 16.9888 17.5644 17.5181 17.5644 18.1702C17.5644 18.8228 18.0931 19.3521 18.746 19.3521Z" fill="white"/>
<path d="M18.746 14.9048C19.3985 14.9048 19.9277 14.3755 19.9277 13.7229C19.9277 13.0703 19.3985 12.5415 18.746 12.5415C18.0931 12.5415 17.5644 13.0703 17.5644 13.7229C17.5644 14.3755 18.0931 14.9048 18.746 14.9048Z" fill="white"/>
<path d="M18.746 10.4571C19.3985 10.4571 19.9277 9.92778 19.9277 9.27518C19.9277 8.62258 19.3985 8.09375 18.746 8.09375C18.0931 8.09375 17.5644 8.62258 17.5644 9.27518C17.5644 9.92778 18.0931 10.4571 18.746 10.4571Z" fill="white"/>
<path d="M18.746 6.00884C19.3985 6.00884 19.9277 5.48001 19.9277 4.82741C19.9277 4.17481 19.3985 3.64551 18.746 3.64551C18.0931 3.64551 17.5644 4.17481 17.5644 4.82741C17.5644 5.48001 18.0931 6.00884 18.746 6.00884Z" fill="white"/>
<path d="M23.103 19.3521C23.7559 19.3521 24.2852 18.8228 24.2852 18.1702C24.2852 17.5181 23.7559 16.9888 23.103 16.9888C22.4507 16.9888 21.9214 17.5181 21.9214 18.1702C21.9214 18.8228 22.4507 19.3521 23.103 19.3521Z" fill="white"/>
<path d="M23.103 14.9048C23.7559 14.9048 24.2852 14.3755 24.2852 13.7229C24.2852 13.0703 23.7559 12.5415 23.103 12.5415C22.4507 12.5415 21.9214 13.0703 21.9214 13.7229C21.9214 14.3755 22.4507 14.9048 23.103 14.9048Z" fill="white"/>
<path d="M23.103 10.4571C23.7559 10.4571 24.2852 9.92778 24.2852 9.27518C24.2852 8.62258 23.7559 8.09375 23.103 8.09375C22.4507 8.09375 21.9214 8.62258 21.9214 9.27518C21.9214 9.92778 22.4507 10.4571 23.103 10.4571Z" fill="white"/>
<path d="M23.103 6.00884C23.7559 6.00884 24.2852 5.48001 24.2852 4.82741C24.2852 4.17481 23.7559 3.64551 23.103 3.64551C22.4507 3.64551 21.9214 4.17481 21.9214 4.82741C21.9214 5.48001 22.4507 6.00884 23.103 6.00884Z" fill="white"/>
<path d="M27.46 14.9048C28.1127 14.9048 28.6416 14.3755 28.6416 13.7229C28.6416 13.0703 28.1127 12.5415 27.46 12.5415C26.8075 12.5415 26.2782 13.0703 26.2782 13.7229C26.2782 14.3755 26.8075 14.9048 27.46 14.9048Z" fill="white"/>
<path d="M27.46 10.4571C28.1127 10.4571 28.6416 9.92778 28.6416 9.27518C28.6416 8.62258 28.1127 8.09375 27.46 8.09375C26.8075 8.09375 26.2782 8.62258 26.2782 9.27518C26.2782 9.92778 26.8075 10.4571 27.46 10.4571Z" fill="white"/>
<path d="M31.8184 14.9048C32.4707 14.9048 33 14.3755 33 13.7229C33 13.0703 32.4707 12.5415 31.8184 12.5415C31.1655 12.5415 30.6367 13.0703 30.6367 13.7229C30.6367 14.3755 31.1655 14.9048 31.8184 14.9048Z" fill="white"/>
<path d="M31.8184 10.4571C32.4707 10.4571 33 9.92778 33 9.27518C33 8.62258 32.4707 8.09375 31.8184 8.09375C31.1655 8.09375 30.6367 8.62258 30.6367 9.27518C30.6367 9.92778 31.1655 10.4571 31.8184 10.4571Z" fill="white"/>
</svg>
