<svg width="33" height="23" viewBox="0 0 33 23" fill="none" xmlns="http://www.w3.org/2000/svg">
<path d="M21.192 22.581L32.4283 12.7582C33.1911 12.0916 33.1911 10.9059 32.4283 10.2392L21.192 0.416479C20.1101 -0.529136 18.418 0.2388 18.418 1.67574V21.3217C18.418 22.7582 20.1101 23.5266 21.192 22.581" fill="white"/>
<path d="M14.254 3.64546C13.6015 3.64546 13.0723 4.17476 13.0723 4.82736C13.0723 5.47949 13.6015 6.00879 14.254 6.00879C14.9069 6.00879 15.4356 5.47949 15.4356 4.82736C15.4356 4.17476 14.9069 3.64546 14.254 3.64546Z" fill="white"/>
<path d="M14.254 8.09273C13.6015 8.09273 13.0723 8.62202 13.0723 9.27463C13.0723 9.92723 13.6015 10.4561 14.254 10.4561C14.9069 10.4561 15.4356 9.92723 15.4356 9.27463C15.4356 8.62202 14.9069 8.09273 14.254 8.09273Z" fill="white"/>
<path d="M14.254 12.5405C13.6015 12.5405 13.0723 13.0698 13.0723 13.7224C13.0723 14.375 13.6015 14.9038 14.254 14.9038C14.9069 14.9038 15.4356 14.375 15.4356 13.7224C15.4356 13.0698 14.9069 12.5405 14.254 12.5405Z" fill="white"/>
<path d="M14.254 16.9887C13.6015 16.9887 13.0723 17.5176 13.0723 18.1702C13.0723 18.8228 13.6015 19.3521 14.254 19.3521C14.9069 19.3521 15.4356 18.8228 15.4356 18.1702C15.4356 17.5176 14.9069 16.9887 14.254 16.9887Z" fill="white"/>
<path d="M9.89698 3.64546C9.2441 3.64546 8.71484 4.17476 8.71484 4.82736C8.71484 5.47949 9.2441 6.00879 9.89698 6.00879C10.5493 6.00879 11.0786 5.47949 11.0786 4.82736C11.0786 4.17476 10.5493 3.64546 9.89698 3.64546Z" fill="white"/>
<path d="M9.89698 8.09273C9.2441 8.09273 8.71484 8.62202 8.71484 9.27463C8.71484 9.92723 9.2441 10.4561 9.89698 10.4561C10.5493 10.4561 11.0786 9.92723 11.0786 9.27463C11.0786 8.62202 10.5493 8.09273 9.89698 8.09273Z" fill="white"/>
<path d="M9.89698 12.5405C9.2441 12.5405 8.71484 13.0698 8.71484 13.7224C8.71484 14.375 9.2441 14.9038 9.89698 14.9038C10.5493 14.9038 11.0786 14.375 11.0786 13.7224C11.0786 13.0698 10.5493 12.5405 9.89698 12.5405Z" fill="white"/>
<path d="M9.89698 16.9887C9.2441 16.9887 8.71484 17.5176 8.71484 18.1702C8.71484 18.8228 9.2441 19.3521 9.89698 19.3521C10.5493 19.3521 11.0786 18.8228 11.0786 18.1702C11.0786 17.5176 10.5493 16.9887 9.89698 16.9887Z" fill="white"/>
<path d="M5.54002 8.09273C4.88733 8.09273 4.3584 8.62202 4.3584 9.27463C4.3584 9.92723 4.88733 10.4561 5.54002 10.4561C6.19253 10.4561 6.72178 9.92723 6.72178 9.27463C6.72178 8.62202 6.19253 8.09273 5.54002 8.09273Z" fill="white"/>
<path d="M5.54002 12.5405C4.88733 12.5405 4.3584 13.0698 4.3584 13.7224C4.3584 14.375 4.88733 14.9038 5.54002 14.9038C6.19253 14.9038 6.72178 14.375 6.72178 13.7224C6.72178 13.0698 6.19253 12.5405 5.54002 12.5405Z" fill="white"/>
<path d="M1.18157 8.09273C0.529253 8.09273 0 8.62202 0 9.27463C0 9.92723 0.529253 10.4561 1.18157 10.4561C1.83445 10.4561 2.36333 9.92723 2.36333 9.27463C2.36333 8.62202 1.83445 8.09273 1.18157 8.09273Z" fill="white"/>
<path d="M1.18157 12.5405C0.529253 12.5405 0 13.0698 0 13.7224C0 14.375 0.529253 14.9038 1.18157 14.9038C1.83445 14.9038 2.36333 14.375 2.36333 13.7224C2.36333 13.0698 1.83445 12.5405 1.18157 12.5405Z" fill="white"/>
</svg>
