<svg width="24" height="24" viewBox="0 0 24 24" fill="none" xmlns="http://www.w3.org/2000/svg">
<path d="M15.362 5.214C17.0869 5.98477 18.495 7.32407 19.3512 9.00815C20.2075 10.6922 20.4599 12.6191 20.0664 14.4669C19.6728 16.3147 18.6572 17.9715 17.189 19.1606C15.7209 20.3496 13.8893 20.9989 12 21C10.384 20.9999 8.80364 20.5253 7.45504 19.6349C6.10643 18.7446 5.049 17.4778 4.414 15.9918C3.779 14.5058 3.59439 12.8661 3.8831 11.2761C4.17181 9.68608 4.92112 8.21589 6.03801 7.048C6.80767 8.12273 7.82327 8.99775 9.00001 9.6C9.02063 8.27863 9.33254 6.97808 9.9135 5.79109C10.4945 4.6041 11.3302 3.55992 12.361 2.733C13.1478 3.78819 14.1767 4.63876 15.361 5.213L15.362 5.214Z" stroke="#707B83" stroke-width="1.5" stroke-linecap="round" stroke-linejoin="round"/>
<path d="M12 18C12.9514 17.9996 13.8671 17.6377 14.5616 16.9875C15.2561 16.3372 15.6775 15.4473 15.7404 14.498C15.8033 13.5487 15.5031 12.611 14.9005 11.8748C14.2979 11.1386 13.438 10.6589 12.495 10.533C11.4626 11.4568 10.7823 12.7099 10.57 14.079C9.79968 13.8905 9.07458 13.5506 8.437 13.079C8.25185 13.6423 8.20291 14.2414 8.29418 14.8272C8.38545 15.4131 8.61434 15.969 8.96206 16.4492C9.30978 16.9295 9.76642 17.3204 10.2945 17.59C10.8226 17.8596 11.4071 18.0001 12 18V18Z" stroke="#707B83" stroke-width="1.5" stroke-linecap="round" stroke-linejoin="round"/>
</svg>
